<svg id="Capa_2" data-name="Capa 2" xmlns="http://www.w3.org/2000/svg" viewBox="0 0 200 200"><path d="M133.33,85.39a18.73,18.73,0,1,0-9.09-35.09,2.5,2.5,0,0,0,2.43,4.37,13.72,13.72,0,1,1-7.06,12,2.5,2.5,0,0,0-5,0,18.64,18.64,0,0,0,1,6L82.14,89.47a18.72,18.72,0,0,0-31.21,20.68,2.5,2.5,0,0,0,4.2-2.71,13.73,13.73,0,1,1,11.54,6.28,2.5,2.5,0,1,0,0,5,18.71,18.71,0,0,0,15.5-8.23l33.45,16.62a18.44,18.44,0,0,0-1,6,18.73,18.73,0,0,0,37.45,0,2.5,2.5,0,0,0-5,0,13.7,13.7,0,1,1-6.81-11.86,2.5,2.5,0,1,0,2.52-4.31,18.72,18.72,0,0,0-24.94,5.68L84.38,106a18.44,18.44,0,0,0,1-6,18.64,18.64,0,0,0-1-6L117.86,77.2A18.73,18.73,0,0,0,133.33,85.39Z"/><path d="M125.45,69.17a2.5,2.5,0,0,0,2.5-2.5,5.39,5.39,0,0,1,5.38-5.38,2.5,2.5,0,0,0,0-5A10.39,10.39,0,0,0,123,66.67,2.5,2.5,0,0,0,125.45,69.17Z"/><path d="M123,133.12a2.5,2.5,0,0,0,5,0,5.39,5.39,0,0,1,5.38-5.38,2.5,2.5,0,0,0,0-5A10.4,10.4,0,0,0,123,133.12Z"/><path d="M69.17,92.12a2.5,2.5,0,0,0-2.5-2.5A10.39,10.39,0,0,0,56.29,100a2.5,2.5,0,0,0,5,0,5.38,5.38,0,0,1,5.38-5.38A2.5,2.5,0,0,0,69.17,92.12Z"/></svg>