<svg id="Capa_2" data-name="Capa 2" xmlns="http://www.w3.org/2000/svg" viewBox="0 0 200 200"><path d="M145.19,46.05a7.2,7.2,0,0,0-10.15,0L123.8,57.29,57.2,123.9a2.17,2.17,0,0,0-.29.35l-.06.1c-.73,1.16-2.64,5.45-9.22,24.85A2.51,2.51,0,0,0,50,152.5a2.55,2.55,0,0,0,.86-.15l24.34-9,0,0a2.65,2.65,0,0,0,.5-.26l.09-.07a3,3,0,0,0,.27-.23l66.61-66.6L154,65a7.2,7.2,0,0,0,0-10.15ZM54.07,145.84c2.17-6.29,4.34-12.37,5.69-15.85l10.05,10Zm20.27-8.34-1.11-1.11-5.77-5.77,29.09-29.09A2.5,2.5,0,0,0,93,98L63.93,127.09l-1.43-1.43,63.07-63.07,1.11,1.11L137.4,74.43Zm76.07-76.08-9.47,9.47-1.11-1.1L129.11,59.06l9.47-9.47a2.17,2.17,0,0,1,3.07,0l8.76,8.76A2.17,2.17,0,0,1,150.41,61.42Z"/><path d="M123,83a2.49,2.49,0,0,0-3.53,0l-2.24,2.24a2.5,2.5,0,0,0,3.54,3.53L123,86.54A2.5,2.5,0,0,0,123,83Z"/><path d="M110.11,92.4,86.55,116a2.5,2.5,0,0,0,1.76,4.27,2.53,2.53,0,0,0,1.77-.73l23.56-23.56a2.5,2.5,0,0,0-3.53-3.54Z"/></svg>