<svg id="Capa_2" data-name="Capa 2" xmlns="http://www.w3.org/2000/svg" viewBox="0 0 200 200"><path d="M145.48,50.12H132.42a7,7,0,0,0-3.15,13.3l-21.05,21A2.5,2.5,0,0,0,111.76,88l24.56-24.57a2.5,2.5,0,0,0-1.77-4.27h-2.13a2,2,0,1,1,0-4h13.06a2,2,0,0,1,2,2V70.2a2,2,0,0,1-4.05,0V68.07a2.5,2.5,0,0,0-4.27-1.77l-36.35,36.36a2.13,2.13,0,0,1-2.87,0L87.61,90.3a2.52,2.52,0,0,0-3.54,0L55.93,118.44a2.06,2.06,0,0,1-2.84,0,2,2,0,0,1,0-2.87L84.41,84.23a2.13,2.13,0,0,1,2.86,0L99.62,96.6a2.5,2.5,0,0,0,3.54-3.54L90.81,80.7a7,7,0,0,0-9.94,0L49.55,112a7,7,0,0,0,0,9.93,7,7,0,0,0,9.92,0L85.84,95.61l10.59,10.58a7,7,0,0,0,9.93,0L139.2,73.35a7,7,0,0,0,13.3-3.15V57.14A7,7,0,0,0,145.48,50.12Z"/><path d="M97,149.88a2.49,2.49,0,0,0,2.5-2.5V117.22a2.49,2.49,0,0,0-2.5-2.5H84.92a2.5,2.5,0,0,0-2.5,2.5v30.16a2.5,2.5,0,0,0,2.5,2.5Zm-9.56-30.16h7.06v25.16H87.42Z"/><path d="M121.11,149.88a2.5,2.5,0,0,0,2.5-2.5V109.84a2.5,2.5,0,0,0-2.5-2.5H109.05a2.5,2.5,0,0,0-2.5,2.5v37.54a2.5,2.5,0,0,0,2.5,2.5Zm-9.56-37.54h7.06v32.54h-7.06Z"/><path d="M145.24,149.88a2.5,2.5,0,0,0,2.5-2.5V93.16a2.5,2.5,0,0,0-2.5-2.5H133.18a2.5,2.5,0,0,0-2.5,2.5v54.22a2.5,2.5,0,0,0,2.5,2.5Zm-9.56-54.22h7.06v49.22h-7.06Z"/></svg>