<svg id="Capa_2" data-name="Capa 2" xmlns="http://www.w3.org/2000/svg" viewBox="0 0 200 200"><path d="M56.59,133.83a2.5,2.5,0,0,0-3.51-.43l-4.73,3.69A2.5,2.5,0,0,0,51.43,141l4.73-3.69A2.5,2.5,0,0,0,56.59,133.83Z"/><path d="M113.44,86.23l-10.06,7.86a2.5,2.5,0,0,0,1.54,4.47,2.48,2.48,0,0,0,1.54-.53l10.06-7.86a2.5,2.5,0,0,0-3.08-3.94Z"/><path d="M93.32,102l-10.06,7.86a2.5,2.5,0,0,0,1.54,4.47,2.54,2.54,0,0,0,1.54-.53l10.06-7.87A2.5,2.5,0,1,0,93.32,102Z"/><path d="M148.35,59l-4.73,3.69a2.5,2.5,0,0,0,1.55,4.47,2.45,2.45,0,0,0,1.53-.53l4.73-3.7A2.5,2.5,0,1,0,148.35,59Z"/><path d="M146,116.05h-8.93V78.42a7.29,7.29,0,0,0-.78-3.27,3.14,3.14,0,0,0-.18-.31l.49-.39a2.5,2.5,0,0,0-3.07-3.94l-.76.59a10.77,10.77,0,0,0-6.18-1.95H81.78a7.32,7.32,0,0,0-4.46,1.52V60.33a7.32,7.32,0,1,0-14.64,0v8.82H53.13a7.32,7.32,0,1,0,0,14.64h9.55v37.12a9.66,9.66,0,0,0,1,4.23l-.51.4a2.5,2.5,0,0,0,3.08,3.94l.67-.53a9.78,9.78,0,0,0,5.58,1.76h50v8.93a7.33,7.33,0,0,0,14.65,0V130.7H146a7.33,7.33,0,1,0,0-14.65ZM81.78,74.15h44.85a5.83,5.83,0,0,1,1.87.32l-5,3.9a2.7,2.7,0,0,0-.41.42H81.78a2.32,2.32,0,0,1,0-4.64Zm-4.46,8.13a7.31,7.31,0,0,0,4.46,1.51h40.68v32.27H77.32Zm-9.64,38.63V78.79H53.13a2.32,2.32,0,1,1,0-4.64H67.68V60.33a2.32,2.32,0,1,1,4.64,0v58l-4.53,3.55A4.64,4.64,0,0,1,67.68,120.91ZM146,125.7H132.11v13.94a2.33,2.33,0,0,1-4.65,0v-14h-.08a4.74,4.74,0,0,1-.75.06H72.47a4.3,4.3,0,0,1-1.2-.18l5-3.91a2.44,2.44,0,0,0,.51-.56h49.84a1.21,1.21,0,0,0,.83-.33V81.63l4.6-3.6a2.6,2.6,0,0,1,.05.39v42.63H146a2.33,2.33,0,1,1,0,4.65Z"/></svg>