<svg id="Capa_2" data-name="Capa 2" xmlns="http://www.w3.org/2000/svg" viewBox="0 0 200 200"><path d="M52,112.3a2.5,2.5,0,0,0,2-2.94A48,48,0,0,1,53,100a2.5,2.5,0,0,0-5,0,52.54,52.54,0,0,0,1,10.34,2.5,2.5,0,0,0,2.45,2A2,2,0,0,0,52,112.3Z"/><path d="M55.07,121.05a2.5,2.5,0,0,0,1.37-3.26c-.33-.81-.64-1.65-.92-2.48a2.5,2.5,0,0,0-4.74,1.61c.32.92.66,1.85,1,2.75a2.49,2.49,0,0,0,2.32,1.56A2.61,2.61,0,0,0,55.07,121.05Z"/><path d="M57,127.16a2.47,2.47,0,0,0,1.22-.32,2.51,2.51,0,0,0,1-3.4c-.16-.29-.32-.57-.47-.86a2.5,2.5,0,0,0-4.42,2.35l.52.95A2.5,2.5,0,0,0,57,127.16Z"/><path d="M160.19,83a7.06,7.06,0,0,0-9.79.72A52.51,52.51,0,0,0,49.14,89a2.5,2.5,0,1,0,4.89,1,47.51,47.51,0,0,1,92.79-.54,2.5,2.5,0,0,0,4.36,1l2.91-3.48a2.11,2.11,0,0,1,2.88-.27,2,2,0,0,1,.27,2.88l-9.66,11.53-.08.1a1,1,0,0,1-.17.18,2.11,2.11,0,0,1-.47.33l-.12,0-.13.05-.25.07a1.73,1.73,0,0,1-.81,0l-.21-.05h0l-.09,0-.1,0-.16-.08-.1-.06-.1-.06a.58.58,0,0,1-.15-.11L133,91.85a2.06,2.06,0,0,1-.28-2.88,2.12,2.12,0,0,1,2.89-.27l2.66,2.23a2.5,2.5,0,0,0,4-2.58,43.42,43.42,0,1,0-12.88,44,2.1,2.1,0,0,1,2.89.17,1.94,1.94,0,0,1,.51,1.47,2,2,0,0,1-.68,1.42,47.48,47.48,0,0,1-70.38-7.92,2.5,2.5,0,0,0-4.07,2.9,52.47,52.47,0,0,0,77.78,8.74,7,7,0,0,0-4.69-12.3,7.1,7.1,0,0,0-4.7,1.79,38.4,38.4,0,1,1,9-45.35,7,7,0,0,0-5.26,12.41l11.36,9.51.17.14a7.35,7.35,0,0,0,.74.57l.43.26c.2.11.39.2.63.31l.23.09.41.15.11,0a5.75,5.75,0,0,0,.87.2,6.78,6.78,0,0,0,2.73-.07c.23-.05.44-.11.69-.19l.53-.2.42-.2a6.15,6.15,0,0,0,1.54-1.07,6,6,0,0,0,.78-.82l9.62-11.49A7.05,7.05,0,0,0,160.19,83Z"/></svg>