<svg id="Capa_2" data-name="Capa 2" xmlns="http://www.w3.org/2000/svg" viewBox="0 0 200 200"><path d="M47.94,145.54a2.5,2.5,0,0,0,2.5,2.5h63.9a2,2,0,0,0,.49,0,40,40,0,0,0,8.39,4.38,2.32,2.32,0,0,0,.78.13,2.38,2.38,0,0,0,.79-.13c.27-.09,27.27-9.36,27.27-40v-2.55a2.5,2.5,0,0,0-2.5-2.5,10.4,10.4,0,0,1-10.25-8.86,2.5,2.5,0,0,0-2.47-2.15h-8.79V50a2.5,2.5,0,0,0-2.5-2.5H69.22a2.63,2.63,0,0,0-.49,0,2.8,2.8,0,0,0-.31.09l-.16,0-.32.17-.11.06a2.85,2.85,0,0,0-.38.31L48.68,67a1.91,1.91,0,0,0-.31.38.41.41,0,0,0,0,.09,2.21,2.21,0,0,0-.18.34s0,.09,0,.14-.07.21-.1.32a2.73,2.73,0,0,0-.05.5v61.47a2.5,2.5,0,0,0,5,0v-59H69.22a2.5,2.5,0,0,0,2.5-2.5V52.5h51.33V96.27h-11.9a2.51,2.51,0,0,0-2.47,2.15,10.39,10.39,0,0,1-10.24,8.86,2.5,2.5,0,0,0-2.5,2.5v2.55c0,14.72,6.21,24.5,12.71,30.71H50.44A2.5,2.5,0,0,0,47.94,145.54Zm8.54-79.26L66.72,56V66.28Zm44.46,46.05v-.26a15.46,15.46,0,0,0,12.22-10.8h21.67a15.46,15.46,0,0,0,12.23,10.8v.26c0,24.5-18.84,33.33-23,35C119.91,145.66,100.94,136.63,100.94,112.33Z"/><path d="M124,142.22a2.36,2.36,0,0,0,.78-.13c.5-.16,12.25-4.18,15.94-17a2.5,2.5,0,1,0-4.8-1.38,21.21,21.21,0,0,1-12.71,13.64,2.5,2.5,0,0,0,.79,4.88Z"/><path d="M139.29,119.67a2.49,2.49,0,0,0,2.5-2.5v-1.53a2.5,2.5,0,0,0-5,0v1.53A2.5,2.5,0,0,0,139.29,119.67Z"/><path d="M124.93,111.56h4.83a10.2,10.2,0,0,0,.6,1.3,2.5,2.5,0,1,0,4.38-2.41,5.09,5.09,0,0,1-.58-1.75,2.5,2.5,0,0,0-2.48-2.14h-6.75a2.5,2.5,0,0,0,0,5Z"/><path d="M112,66.2a2.5,2.5,0,0,0,0-5H77.24a2.5,2.5,0,0,0,0,5Z"/><path d="M63.23,75.58a2.5,2.5,0,0,0,2.5,2.5H112a2.5,2.5,0,0,0,0-5H65.73A2.5,2.5,0,0,0,63.23,75.58Z"/><path d="M65.73,90H112a2.5,2.5,0,0,0,0-5H65.73a2.5,2.5,0,0,0,0,5Z"/><path d="M65.73,101.84h35.09a2.5,2.5,0,0,0,0-5H65.73a2.5,2.5,0,0,0,0,5Z"/><path d="M65.73,113.73H90.47a2.5,2.5,0,0,0,0-5H65.73a2.5,2.5,0,0,0,0,5Z"/><path d="M65.73,125.61H90.47a2.5,2.5,0,0,0,0-5H65.73a2.5,2.5,0,0,0,0,5Z"/><path d="M65.73,137.49H94.64a2.5,2.5,0,0,0,0-5H65.73a2.5,2.5,0,0,0,0,5Z"/><path d="M54.75,116.41a2.5,2.5,0,0,0,5,0v-4.75a2.5,2.5,0,0,0-5,0Z"/><path d="M57.25,106.18a2.49,2.49,0,0,0,2.5-2.5V84.11a2.5,2.5,0,0,0-5,0v19.57A2.5,2.5,0,0,0,57.25,106.18Z"/></svg>