<svg id="Capa_2" data-name="Capa 2" xmlns="http://www.w3.org/2000/svg" viewBox="0 0 200 200"><path d="M143.72,93.09a6.29,6.29,0,0,0-1.84-4.45l-7.75-7.74a6.3,6.3,0,0,0-8.9,0,6.3,6.3,0,0,0-1.67,5.89h-6V58.43a2.5,2.5,0,1,0-5,0V86.8h-8.43a2.5,2.5,0,0,0,0,5h24.19A2.49,2.49,0,0,0,130,87.53l-1.26-1.27a1.29,1.29,0,1,1,1.83-1.83l7.74,7.74a1.3,1.3,0,0,1,.38.92,1.28,1.28,0,0,1-.38.91l-7.74,7.74a1.29,1.29,0,0,1-1.83-1.82L130,98.65a2.5,2.5,0,0,0-1.76-4.27H104.08a2.5,2.5,0,1,0,0,5h8.43v28.36a2.5,2.5,0,0,0,5,0V99.38h6a6.32,6.32,0,0,0,1.67,5.9,6.3,6.3,0,0,0,8.9,0l7.75-7.74A6.29,6.29,0,0,0,143.72,93.09Z"/><path d="M67.22,52.5h39.36a2.5,2.5,0,0,0,0-5H67.22A11,11,0,0,0,56.28,58.43v71.86a10.8,10.8,0,0,0,6.95,10.05l31.75,12a2.41,2.41,0,0,0,.88.16,2.49,2.49,0,0,0,2.5-2.5V72.26a2.5,2.5,0,0,0-1.61-2.34l-25.93-9.8a10.76,10.76,0,0,0-9.54,1V58.43A6,6,0,0,1,67.22,52.5Zm-3.46,13a5.67,5.67,0,0,1,5.3-.65L93.36,74v72.4L65,135.66a5.78,5.78,0,0,1-3.72-5.37V70.17A5.67,5.67,0,0,1,63.76,65.45Z"/><path d="M75.6,137.47a2.5,2.5,0,0,0,0-5,6,6,0,0,1-5.93-5.94V111.14a2.5,2.5,0,0,0-5,0v15.39A11,11,0,0,0,75.6,137.47Z"/><path d="M67.17,107.79a2.5,2.5,0,0,0,2.5-2.5v-.67a2.5,2.5,0,0,0-5,0v.67A2.5,2.5,0,0,0,67.17,107.79Z"/></svg>