<svg id="Capa_2" data-name="Capa 2" xmlns="http://www.w3.org/2000/svg" viewBox="0 0 200 200"><path d="M72.31,114l-5.68,33.11a2.5,2.5,0,0,0,3.63,2.64l18.34-9.64a2.5,2.5,0,0,0-2.33-4.43L72.42,143l5-29.41a2.53,2.53,0,0,0-.71-2.22L55.37,90.52l29.54-4.29a2.5,2.5,0,0,0,1.88-1.37L100,58.1l13.21,26.76a2.5,2.5,0,0,0,1.88,1.37l29.54,4.29-21.38,20.83a2.53,2.53,0,0,0-.71,2.22l5,29.41-26.42-13.89a2.5,2.5,0,0,0-2.32,4.43l30.9,16.25a2.48,2.48,0,0,0,1.16.28,2.49,2.49,0,0,0,2.47-2.92L127.69,114l24.06-23.46a2.5,2.5,0,0,0-1.39-4.26l-33.25-4.83L102.24,51.34a2.5,2.5,0,0,0-4.48,0L82.89,81.47,49.64,86.3a2.5,2.5,0,0,0-1.39,4.26Z"/><path d="M127.4,96.24l.37,0a2.5,2.5,0,0,0,.35-5l-1.31-.19a2.5,2.5,0,1,0-.72,5Z"/><path d="M120.18,95.19a2.19,2.19,0,0,0,.36,0,2.5,2.5,0,0,0,.36-5l-5.35-.77a2.5,2.5,0,1,0-.72,4.94Z"/></svg>