<svg id="Capa_2" data-name="Capa 2" xmlns="http://www.w3.org/2000/svg" viewBox="0 0 200 200"><path d="M114.3,92c-1.52-1.71-3.24-1.88-6.12-1.88-2.72,0-4.6.2-6.16,1.17s-2.36,1.88-2.88,4.44S95.28,117,95.28,117a.67.67,0,0,0,.72.84.9.9,0,0,0,1-.66c.22-.65,1.22-5.68,1.46-6.82s.92-1.14,1.53-1a34.72,34.72,0,0,0,6.84.26c4.41-.13,5.74-2.72,6.67-5.32s1.33-6.93,1.5-7.94S115.5,93.22,114.3,92Zm-1.67,6.07c-.25,1.63-.95,6.44-1.9,7.78s-1.9,1.77-5.76,1.72c-2.94,0-5.2,0-5.3-2.38a17.25,17.25,0,0,1,.34-4.27,22.35,22.35,0,0,1,2-6.61c.88-1.63,2.58-2.22,5.54-2.24s4.28.63,5,1.6S112.87,96.46,112.63,98.09Z"/><path d="M125.35,90.4c-3.53-.19-6.93.65-7.74,2.69s-1.27,3.73-.68,5.25a3.82,3.82,0,0,0,3.5,2.37,59.41,59.41,0,0,1,6.06.26,2.58,2.58,0,0,1,2.43,2.69c-.1,2-1.17,3.8-3.6,3.94s-8.2.17-9.3.24-1,.84-1,1.13-.09.59.59.55,6.74-.09,8.62-.19,4.05-.19,5.28-1.73a6,6,0,0,0,1.59-4.07c0-1.36-.52-4.54-4.9-4.77s-7.68.49-7.48-3,4.11-3.37,5-3.4,5.61,0,6.55,0,1.71-.2,1.55-1.78C131.8,90.57,128.88,90.6,125.35,90.4Z"/><path d="M143.34,90.14a19.76,19.76,0,0,0-5.06.62,5.82,5.82,0,0,0-3.66,2.88,29.76,29.76,0,0,0-1.91,7.1c-.2,1.27-.78,4.93.23,6.61s2.78,2.08,4.63,2.34,7.84-.17,8.91-.16.81-.69.88-1.21-.13-.68-.69-.68-5.76,0-8,0-2.37-.32-3.29-1-.76-3.44-.63-4.54a1.3,1.3,0,0,1,1.26-1.13s11.47.06,12.48,0,.94-.52,1-.85a25.72,25.72,0,0,0,.35-3c.07-1,.52-3.92-.94-5.47S144.67,90.14,143.34,90.14Zm4.34,8c-.1.45-.2.88-.91.88s-9.52-.07-10.82,0c0,0-.88,0-.58-.94a25.83,25.83,0,0,1,1.39-3.92c.58-1.14,1.59-1.79,4-1.85a30,30,0,0,1,5.81.16c1.1.26,1.55.84,1.49,2.14A35,35,0,0,1,147.68,98.18Z"/><path d="M96.79,99.92a.58.58,0,0,0-.57-.65H87.36l-3.42-4.45a2.85,2.85,0,0,0-2.26-1.11H76.33a1.43,1.43,0,0,1-1.1-.52,2,2,0,0,0-1.51-.71,1.94,1.94,0,1,0,1.62,3,1.44,1.44,0,0,1,1.21-.65h5.13a1.72,1.72,0,0,1,1.36.67l2.88,3.75H73.11a1.26,1.26,0,0,1-1-.49,1.94,1.94,0,0,0-3.48,1.08A1.94,1.94,0,0,0,72.18,101a1.32,1.32,0,0,1,1.12-.6h17l-2.76,4.15a1.7,1.7,0,0,1-1.43.76H85a1.9,1.9,0,0,1-1.47-.7,1.93,1.93,0,0,0-1.52-.73,2,2,0,0,0-1.93,1.84,2,2,0,0,0,1.94,2,1.91,1.91,0,0,0,1.46-.66,1.9,1.9,0,0,1,1.42-.65H86.1a2.84,2.84,0,0,0,2.38-1.27l3.19-4.78H96.2A.58.58,0,0,0,96.79,99.92Z"/><path d="M86,90.2A1.95,1.95,0,1,0,84,88.26,2,2,0,0,0,86,90.2Z"/><path d="M82.25,80.64a1.95,1.95,0,1,0,2,2A1.94,1.94,0,0,0,82.25,80.64Z"/><circle cx="78.27" cy="88.29" r="1.94"/><path d="M76.08,82.51a1.64,1.64,0,1,0-1.63,1.63A1.63,1.63,0,0,0,76.08,82.51Z"/><path d="M70.23,89.91a1.63,1.63,0,1,0-1.63-1.63A1.63,1.63,0,0,0,70.23,89.91Z"/><path d="M66.47,92.8a1.64,1.64,0,1,0,1.64,1.63A1.63,1.63,0,0,0,66.47,92.8Z"/><circle cx="62.59" cy="100.01" r="1.63"/><path d="M66.41,104.21A1.63,1.63,0,1,0,68,105.84,1.63,1.63,0,0,0,66.41,104.21Z"/><path d="M70.52,110.46a1.09,1.09,0,1,0,1.09,1.08A1.09,1.09,0,0,0,70.52,110.46Z"/><path d="M66.47,116.3a1.08,1.08,0,1,0,1.09,1.08A1.08,1.08,0,0,0,66.47,116.3Z"/><circle cx="62.52" cy="111.51" r="0.82"/><path d="M58.66,104.69a1.09,1.09,0,1,0,1.09,1.09A1.08,1.08,0,0,0,58.66,104.69Z"/><path d="M57.94,99.85a1.09,1.09,0,1,0-1.09,1.09A1.09,1.09,0,0,0,57.94,99.85Z"/><path d="M58.6,95.56a1.09,1.09,0,1,0-1.09-1.09A1.08,1.08,0,0,0,58.6,95.56Z"/><path d="M63.7,88.28a1.09,1.09,0,0,0-2.17,0,1.09,1.09,0,1,0,2.17,0Z"/><path d="M56.83,89a.67.67,0,1,0-.68-.67A.67.67,0,0,0,56.83,89Z"/><path d="M52.77,95.11a.67.67,0,1,0-.67-.67A.67.67,0,0,0,52.77,95.11Z"/><circle cx="50.7" cy="99.98" r="0.7"/><path d="M52.81,105.12a.7.7,0,1,0,0,1.4.7.7,0,1,0,0-1.4Z"/><circle cx="56.86" cy="111.54" r="0.7"/><path d="M74.48,104.21a1.63,1.63,0,1,0,1.63,1.63A1.63,1.63,0,0,0,74.48,104.21Z"/><path d="M78.27,109.88a1.63,1.63,0,1,0,1.63,1.63A1.63,1.63,0,0,0,78.27,109.88Z"/><path d="M74.41,115.81a1.63,1.63,0,1,0,1.64,1.63A1.63,1.63,0,0,0,74.41,115.81Z"/><path d="M86.06,109.57a2,2,0,1,0,2,2A2,2,0,0,0,86.06,109.57Z"/><circle cx="82.04" cy="117.4" r="1.96"/><path d="M67.54,82.56a1.1,1.1,0,1,0-2.2,0,1.1,1.1,0,1,0,2.2,0Z"/></svg>