<svg id="Capa_2" data-name="Capa 2" xmlns="http://www.w3.org/2000/svg" viewBox="0 0 200 200"><path d="M136.12,57.51a8.59,8.59,0,0,0-12.14,0l-3.41,3.41a2.5,2.5,0,0,0,0,3.53l5.72,5.72-2.12,2.13a36.67,36.67,0,0,0-48.33,0l-2.13-2.13,5.72-5.72a2.5,2.5,0,0,0,0-3.53L76,57.51a8.59,8.59,0,0,0-12.14,0l-6.37,6.37a8.59,8.59,0,0,0,0,12.14l3.41,3.41a2.5,2.5,0,0,0,3.53,0l5.72-5.72,2.13,2.12a36.56,36.56,0,0,0-7.65,13.93,2.5,2.5,0,1,0,4.81,1.39,31.79,31.79,0,1,1,51,33.12,2.41,2.41,0,0,0-.24.21,31.86,31.86,0,0,1-5.55,3.69l-.2.1A31.48,31.48,0,0,1,100,131.79a31.8,31.8,0,0,1-14.24-3.37h0a2.82,2.82,0,0,0-.49-.25,32,32,0,0,1-5.48-3.63,2.15,2.15,0,0,0-.45-.4l-.06,0a31.7,31.7,0,0,1-10-15.95,2.5,2.5,0,0,0-4.83,1.28,36.65,36.65,0,0,0,10.2,17.21l-6.8,10.15a2.49,2.49,0,0,0,.69,3.47L75,144.54a2.41,2.41,0,0,0,1.38.42,2.48,2.48,0,0,0,2.08-1.1l6.81-10.17a36.76,36.76,0,0,0,29.55,0l6.82,10.17a2.48,2.48,0,0,0,2.08,1.1,2.41,2.41,0,0,0,1.38-.42l6.43-4.28a2.49,2.49,0,0,0,.69-3.47l-6.82-10.17a36.69,36.69,0,0,0,2.35-50.79l2.13-2.12,5.72,5.72a2.5,2.5,0,0,0,3.53,0L142.49,76a8.59,8.59,0,0,0,0-12.14ZM62.68,74.12l-1.63-1.63a3.6,3.6,0,0,1,0-5.08l6.37-6.36A3.52,3.52,0,0,1,70,60a3.56,3.56,0,0,1,2.54,1l1.63,1.63Zm13,64.88-2.26-1.51,5.12-7.64c.74.53,1.5,1,2.27,1.51Zm51-1.51L124.36,139l-5.13-7.65c.77-.47,1.52-1,2.26-1.51Zm12.33-65-1.63,1.63L125.88,62.68l1.63-1.63a3.67,3.67,0,0,1,5.08,0L139,67.42A3.52,3.52,0,0,1,140,70,3.56,3.56,0,0,1,139,72.49Z"/><path d="M116.29,83.51a2.52,2.52,0,0,0,1.76.72,2.47,2.47,0,0,0,1.78-.74,2.5,2.5,0,0,0,0-3.53c-.49-.49-1-1-1.52-1.4a2.5,2.5,0,0,0-3.24,3.81C115.47,82.73,115.89,83.11,116.29,83.51Z"/><path d="M113,75a28.25,28.25,0,0,0-13-3.16,2.5,2.5,0,0,0,0,5,22.87,22.87,0,0,1,10.68,2.6A2.5,2.5,0,0,0,113,75Z"/><path d="M97.5,100a2.5,2.5,0,0,0,2.5,2.5h10.36a2.5,2.5,0,1,0,0-5H102.5V83.33a2.5,2.5,0,1,0-5,0Z"/><path d="M91.89,78.28a2.5,2.5,0,0,0-1.75-4.69,28.18,28.18,0,1,0,38,26.41,2.5,2.5,0,0,0-5,0A23.18,23.18,0,1,1,91.89,78.28Z"/></svg>