<svg id="Capa_2" data-name="Capa 2" xmlns="http://www.w3.org/2000/svg" viewBox="0 0 200 200"><path d="M59.59,105.84a2.5,2.5,0,1,0,4.8-1.39L54.75,71.09h77l-7.12,48.11H66.77a2.5,2.5,0,0,0,0,5h57.15l-1.13,7.66H70.12a2.5,2.5,0,0,0,0,5H125a2.5,2.5,0,0,0,2.47-2.13l1.87-12.66L137.15,69l2.43-16.45h9a2.5,2.5,0,0,0,0-5H137.42A2.5,2.5,0,0,0,135,49.63l-2.43,16.46H51.43A2.5,2.5,0,0,0,49,69.28Z"/><path d="M119.47,91.13l-2.83,19.13h-3a2.5,2.5,0,0,0,0,5h5.19a2.51,2.51,0,0,0,2.48-2.13l3.14-21.27a2.5,2.5,0,1,0-4.94-.73Z"/><path d="M123.08,86.31a2.49,2.49,0,0,0,2.47-2.14l.85-5.72a2.5,2.5,0,1,0-5-.73l-.85,5.72a2.5,2.5,0,0,0,2.11,2.84A2.31,2.31,0,0,0,123.08,86.31Z"/><path d="M74.45,145.43a7.07,7.07,0,1,0,7.07-7.06A7.08,7.08,0,0,0,74.45,145.43Zm9.13,0a2.07,2.07,0,1,1-2.06-2.06A2.07,2.07,0,0,1,83.58,145.43Z"/><path d="M106.23,145.43a7.07,7.07,0,1,0,7.07-7.06A7.08,7.08,0,0,0,106.23,145.43Zm9.13,0a2.07,2.07,0,1,1-2.06-2.06A2.07,2.07,0,0,1,115.36,145.43Z"/></svg>