<svg id="Capa_2" data-name="Capa 2" xmlns="http://www.w3.org/2000/svg" viewBox="0 0 200 200"><path d="M66.67,85.83a2.5,2.5,0,0,0,2.5-2.5,30.83,30.83,0,0,1,61.66,0c0,27.53-24,55.64-30.83,63-5.6-6.08-22.92-26.22-28.83-48.53a2.5,2.5,0,0,0-4.83,1.28c7.39,27.92,30.9,51.66,31.89,52.66a2.51,2.51,0,0,0,3.54,0c1.39-1.39,34.06-34.46,34.06-68.44a35.83,35.83,0,0,0-71.66,0A2.5,2.5,0,0,0,66.67,85.83Z"/><path d="M122.47,85.22a2.5,2.5,0,0,0,5,0A27.4,27.4,0,0,0,117.3,63.88a2.5,2.5,0,0,0-3.15,3.89A22.37,22.37,0,0,1,122.47,85.22Z"/><path d="M108.52,64.42a2.44,2.44,0,0,0,1,.19,2.5,2.5,0,0,0,1-4.81,27.89,27.89,0,0,0-5.21-1.56,2.5,2.5,0,0,0-.95,4.91A22.46,22.46,0,0,1,108.52,64.42Z"/><path d="M88,83.33a12,12,0,1,0,12-12A12,12,0,0,0,88,83.33Zm18.94,0a7,7,0,1,1-7-7A7,7,0,0,1,107,83.33Z"/></svg>