<svg id="Capa_2" data-name="Capa 2" xmlns="http://www.w3.org/2000/svg" viewBox="0 0 200 200"><path d="M120.63,80.85a2.5,2.5,0,0,0-2.5,2.5v3a2.5,2.5,0,0,0,5,0v-3A2.49,2.49,0,0,0,120.63,80.85Z"/><path d="M123.13,65.71a2.5,2.5,0,0,0-5,0V76a2.5,2.5,0,0,0,5,0Z"/><path d="M145,92.59h-73V74.14H84.73a2.49,2.49,0,0,0,2.5-2.5V59h40.56V81a2.5,2.5,0,0,0,5,0V56.46a2.5,2.5,0,0,0-2.5-2.5H84.73a2,2,0,0,0-.49,0,1.7,1.7,0,0,0-.32.1l-.15,0-.33.18-.1.05a3.68,3.68,0,0,0-.38.31L67.78,69.87a2.85,2.85,0,0,0-.31.38l0,.1a1.74,1.74,0,0,0-.18.33.83.83,0,0,0,0,.15,1.7,1.7,0,0,0-.1.32,2.63,2.63,0,0,0,0,.49v21H55a7.47,7.47,0,0,0-7.42,8.34L51,130a11.17,11.17,0,0,0,11.1,9.87h5v3.71a2.5,2.5,0,0,0,2.5,2.5h60.74a2.5,2.5,0,0,0,2.5-2.5v-3.71h6a11.12,11.12,0,0,0,11.14-10.2l2.55-28.92A7.46,7.46,0,0,0,145,92.59ZM75.58,69.14l6.65-6.65v6.65ZM127.79,141H72.05V122.25a4,4,0,0,1,3.94-4h47.86a4,4,0,0,1,3.94,4Zm17.15-11.84a6.15,6.15,0,0,1-6.16,5.63h-6V122.25a9,9,0,0,0-8.94-9H76a9,9,0,0,0-8.94,9v12.58h-5a6.19,6.19,0,0,1-6.14-5.45l-3.41-29A2.46,2.46,0,0,1,55,97.59H145a2.47,2.47,0,0,1,2.46,2.68Z"/></svg>