<svg id="Capa_2" data-name="Capa 2" xmlns="http://www.w3.org/2000/svg" viewBox="0 0 200 200"><path d="M49.68,91.07a2.5,2.5,0,0,0-1.89,2.43v13a2.5,2.5,0,0,0,1.89,2.43L62.16,112l2.77,6.69-6.62,11a2.51,2.51,0,0,0,.38,3.05l8.79,8.79a2.48,2.48,0,0,0,3,.37l11-6.61,6.69,2.77,3.11,12.48a2.5,2.5,0,0,0,2.43,1.89h12.42a2.5,2.5,0,0,0,2.43-1.89l3.11-12.48,6.69-2.77,11,6.61a2.48,2.48,0,0,0,3.05-.37l8.79-8.79a2.51,2.51,0,0,0,.38-3.05l-6.62-11,2.77-6.69,12.48-3.11a2.5,2.5,0,0,0,1.89-2.43v-13a2.5,2.5,0,0,0-1.89-2.43L137.84,88l-2.77-6.69,6.62-11a2.51,2.51,0,0,0-.38-3l-8.79-8.79a2.49,2.49,0,0,0-3.05-.37l-11,6.61-6.69-2.77-3.11-12.48a2.5,2.5,0,0,0-2.43-1.89H93.79a2.5,2.5,0,0,0-2.43,1.89L88.25,61.87l-6.69,2.77L70.53,58a2.5,2.5,0,0,0-3,.37l-8.79,8.79a2.51,2.51,0,0,0-.38,3l6.62,11L62.16,88ZM66.3,91,70,82a2.53,2.53,0,0,0-.16-2.24L63.61,69.34l6-6,10.44,6.26a2.53,2.53,0,0,0,2.24.16l9-3.73a2.52,2.52,0,0,0,1.47-1.71l2.95-11.8h8.52l2.95,11.8A2.52,2.52,0,0,0,108.68,66l9,3.73a2.53,2.53,0,0,0,2.24-.16l10.44-6.26,6,6-6.26,10.44A2.53,2.53,0,0,0,130,82l3.73,9a2.51,2.51,0,0,0,1.71,1.46l11.8,3v9.1l-11.8,3A2.51,2.51,0,0,0,133.7,109L130,118a2.53,2.53,0,0,0,.16,2.24l6.26,10.44-6,6-10.44-6.26a2.53,2.53,0,0,0-2.24-.16l-9,3.73a2.52,2.52,0,0,0-1.47,1.71l-2.95,11.8H95.74l-2.95-11.8A2.52,2.52,0,0,0,91.32,134l-9-3.73a2.53,2.53,0,0,0-2.24.16l-10.44,6.26-6-6,6.26-10.44A2.53,2.53,0,0,0,70,118l-3.73-9a2.51,2.51,0,0,0-1.71-1.46l-11.8-3v-9.1l11.8-3A2.51,2.51,0,0,0,66.3,91Z"/><path d="M79.6,100A20.4,20.4,0,1,0,100,79.6,20.42,20.42,0,0,0,79.6,100ZM100,84.6A15.4,15.4,0,1,1,84.6,100,15.42,15.42,0,0,1,100,84.6Z"/><path d="M96.76,77.67l.33,0a21.55,21.55,0,0,1,2.91-.19,2.5,2.5,0,0,0,0-5,28.25,28.25,0,0,0-3.56.23,2.5,2.5,0,0,0,.32,5Z"/><path d="M75,102.5a2.5,2.5,0,0,0,2.5-2.5A22.42,22.42,0,0,1,90.11,79.74a2.5,2.5,0,0,0-2.19-4.49A27.37,27.37,0,0,0,72.46,100,2.5,2.5,0,0,0,75,102.5Z"/><path d="M78.47,106.65a2.5,2.5,0,0,0-4.78,1.48A27.21,27.21,0,0,0,75,111.46a2.49,2.49,0,0,0,2.27,1.46,2.56,2.56,0,0,0,1-.22,2.51,2.51,0,0,0,1.23-3.32A21.29,21.29,0,0,1,78.47,106.65Z"/></svg>