<svg id="Capa_2" data-name="Capa 2" xmlns="http://www.w3.org/2000/svg" viewBox="0 0 200 200"><path d="M50,143.86h65a2.49,2.49,0,0,0,2.5-2.5V114.08a2.5,2.5,0,0,0-5,0v24.78h-60V77.4H66.26a2.5,2.5,0,0,0,2.5-2.5V61.14h43.77V85a2.5,2.5,0,1,0,5,0V58.64a2.49,2.49,0,0,0-2.5-2.5H66.26a2.12,2.12,0,0,0-.5,0,2,2,0,0,0-.32.1l-.14,0a2.21,2.21,0,0,0-.34.18l-.09.05a2.33,2.33,0,0,0-.38.31L48.23,73.13a2.33,2.33,0,0,0-.31.38l-.06.11a3.07,3.07,0,0,0-.17.31c0,.06,0,.12,0,.17s-.07.2-.09.3a2.73,2.73,0,0,0,0,.5v66.46A2.5,2.5,0,0,0,50,143.86ZM56,72.4l7.72-7.73V72.4Z"/><path d="M58.08,109.52a2.5,2.5,0,0,0-2.5,2.5v4.11a2.5,2.5,0,0,0,5,0V112A2.5,2.5,0,0,0,58.08,109.52Z"/><path d="M60.58,88.17a2.5,2.5,0,0,0-5,0v17a2.5,2.5,0,0,0,5,0Z"/><path d="M136.79,80.59a8.93,8.93,0,0,0-14.2,10.49H87.14a2.5,2.5,0,0,0,0,5h40.94a2.5,2.5,0,0,0,1.76-4.27l-2.14-2.14a3.92,3.92,0,0,1,5.55-5.55l13.1,13.11a3.91,3.91,0,0,1,0,5.54l-13.1,13.11a3.92,3.92,0,0,1-5.55-5.55l2.14-2.14a2.5,2.5,0,0,0-1.77-4.26H87.14a2.5,2.5,0,0,0,0,5h35.45a8.92,8.92,0,0,0,1.58,10.48,8.93,8.93,0,0,0,12.62,0l13.1-13.1a8.93,8.93,0,0,0,0-12.62Z"/></svg>