<svg id="Capa_2" data-name="Capa 2" xmlns="http://www.w3.org/2000/svg" viewBox="0 0 200 200"><path d="M125.55,98.18a2.5,2.5,0,0,0,2.5-2.5V50a2.5,2.5,0,0,0-2.5-2.5H69.22a2.63,2.63,0,0,0-.49,0,2.8,2.8,0,0,0-.31.09l-.16,0-.32.17-.11.06a2.85,2.85,0,0,0-.38.31L48.68,67a1.91,1.91,0,0,0-.31.38,1.05,1.05,0,0,0-.07.11,1.91,1.91,0,0,0-.16.32.85.85,0,0,0-.06.17,2.46,2.46,0,0,0-.09.29,2.73,2.73,0,0,0-.05.5v76.76a2.5,2.5,0,0,0,2.5,2.5h75.11a2.5,2.5,0,0,0,2.5-2.5V129.33a2.5,2.5,0,0,0-5,0V143H52.94V71.28H69.22a2.5,2.5,0,0,0,2.5-2.5V52.5h51.33V95.68A2.5,2.5,0,0,0,125.55,98.18ZM56.48,66.28,66.72,56V66.28Z"/><path d="M112,61.2H77.24a2.5,2.5,0,0,0,0,5H112a2.5,2.5,0,0,0,0-5Z"/><path d="M112,73.08H65.73a2.5,2.5,0,0,0,0,5H112a2.5,2.5,0,0,0,0-5Z"/><path d="M112,85H65.73a2.5,2.5,0,0,0,0,5H112a2.5,2.5,0,0,0,0-5Z"/><path d="M114.54,99.34a2.5,2.5,0,0,0-2.5-2.5H65.73a2.5,2.5,0,0,0,0,5H112A2.49,2.49,0,0,0,114.54,99.34Z"/><path d="M106.54,111.23a2.49,2.49,0,0,0-2.5-2.5H65.73a2.5,2.5,0,0,0,0,5H104A2.5,2.5,0,0,0,106.54,111.23Z"/><path d="M94.64,120.61H65.73a2.5,2.5,0,0,0,0,5H94.64a2.5,2.5,0,0,0,0-5Z"/><path d="M94.64,132.49H65.73a2.5,2.5,0,0,0,0,5H94.64a2.5,2.5,0,0,0,0-5Z"/><path d="M154.43,83.29a5.64,5.64,0,0,0-8,0l-3.51,3.5a2.49,2.49,0,0,0-3.25.23L105.38,121.3a2.43,2.43,0,0,0-.31.38h0c-.5.79-1.52,3.17-4.89,13.09a2.5,2.5,0,0,0,.62,2.6,2.54,2.54,0,0,0,1.75.71,2.34,2.34,0,0,0,.86-.16l12.53-4.61,0,0a2,2,0,0,0,.51-.26l.11-.09a1.71,1.71,0,0,0,.26-.21l16.22-16.22a2.46,2.46,0,0,0,.65,2.35,2.49,2.49,0,0,0,3.54,0l17.14-17.14a2.5,2.5,0,0,0-2.74-4.07,2.49,2.49,0,0,0-.3-2.45l3.5-3.5a5.68,5.68,0,0,0,0-8Zm-13,9,4.37,4.38-30.74,30.74-4.37-4.38Zm-34.81,39.1c.51-1.45,1-2.81,1.41-3.94l2.5,2.5ZM151.3,88.17l-3.47,3.48-1.36-1.35L150,86.82a.67.67,0,0,1,.47-.2.69.69,0,0,1,.48.2l.4.41A.66.66,0,0,1,151.3,88.17Z"/><path d="M57.47,109.16a2.5,2.5,0,0,0-2.5,2.5v4.75a2.5,2.5,0,0,0,5,0v-4.75A2.5,2.5,0,0,0,57.47,109.16Z"/><path d="M60,84.11a2.5,2.5,0,1,0-5,0v19.57a2.5,2.5,0,0,0,5,0Z"/></svg>