<svg id="Capa_2" data-name="Capa 2" xmlns="http://www.w3.org/2000/svg" viewBox="0 0 200 200"><path d="M109.12,48.84a2.5,2.5,0,1,0-1.45,4.78A26.68,26.68,0,0,1,120,61.53a2.51,2.51,0,0,0,1.88.84,2.46,2.46,0,0,0,1.65-.62,2.5,2.5,0,0,0,.22-3.53A31.64,31.64,0,0,0,109.12,48.84Z"/><path d="M125.08,70.1a2.5,2.5,0,0,0,2.35,1.65,2.54,2.54,0,0,0,.85-.15,2.51,2.51,0,0,0,1.5-3.21c-.22-.59-.45-1.18-.7-1.75a2.5,2.5,0,1,0-4.59,2C124.7,69.11,124.9,69.6,125.08,70.1Z"/><path d="M129.17,76.67a2.5,2.5,0,0,0-2.5,2.5A26.6,26.6,0,0,1,117,99.68a2.1,2.1,0,0,1-.27.2L102.86,109v17.77a2.86,2.86,0,0,1-5.72,0V107.48a2.84,2.84,0,0,1,1.29-2.39l14.95-9.82.25-.19a20.94,20.94,0,1,0-31.78-5.43,2.85,2.85,0,1,1-4.94,2.85A26.66,26.66,0,0,1,100,52.5a2.5,2.5,0,0,0,0-5A31.66,31.66,0,0,0,72.58,95a7.86,7.86,0,0,0,13.6-7.87,16,16,0,1,1,24.31,4l-14.81,9.73a7.87,7.87,0,0,0-3.54,6.57v19.31a7.86,7.86,0,0,0,15.72,0V111.72l11.64-7.66a6.68,6.68,0,0,0,.74-.54,31.59,31.59,0,0,0,11.43-24.35A2.5,2.5,0,0,0,129.17,76.67Z"/><path d="M100,136.79a7.86,7.86,0,1,0,7.86,7.85A7.87,7.87,0,0,0,100,136.79Zm0,10.71a2.86,2.86,0,1,1,2.86-2.86A2.86,2.86,0,0,1,100,147.5Z"/></svg>