<svg id="Capa_2" data-name="Capa 2" xmlns="http://www.w3.org/2000/svg" viewBox="0 0 200 200"><path d="M74,150a2.5,2.5,0,0,0,2.5,2.5h46.94A12.57,12.57,0,0,0,136,139.94V69.28a7.47,7.47,0,0,0-4.16-6.73l-28.5-14.26a7.6,7.6,0,0,0-6.74,0L68.13,62.55A7.47,7.47,0,0,0,64,69.28v70.66a2.5,2.5,0,0,0,5,0V69.28A2.5,2.5,0,0,1,70.37,67l28.5-14.25a2.5,2.5,0,0,1,2.26,0L129.63,67a2.5,2.5,0,0,1,1.4,2.26v70.66a7.57,7.57,0,0,1-7.56,7.56H76.53A2.5,2.5,0,0,0,74,150Z"/><path d="M126.39,75.36a5.21,5.21,0,0,0-2.9-4.7l-4.71-2.35a2.5,2.5,0,1,0-2.23,4.47l4.7,2.35a.24.24,0,0,1,.14.23V85.9a2.5,2.5,0,0,0,5,0Z"/><path d="M123.89,90.57a2.5,2.5,0,0,0-2.5,2.5v1.82a2.5,2.5,0,0,0,5,0V93.07A2.5,2.5,0,0,0,123.89,90.57Z"/><path d="M100,57.51a9,9,0,1,0,9,9A9,9,0,0,0,100,57.51Zm0,12.91a4,4,0,1,1,4-4A4,4,0,0,1,100,70.42Z"/><path d="M78.14,105.06a9,9,0,1,0,9-9A9,9,0,0,0,78.14,105.06Zm12.91,0a4,4,0,1,1-4-4A4,4,0,0,1,91.05,105.06Z"/><path d="M110.21,117.92a9,9,0,1,0,9,9A9,9,0,0,0,110.21,117.92Zm0,12.91a4,4,0,1,1,4-4A4,4,0,0,1,110.21,130.83Z"/><path d="M81.57,129.53a2.5,2.5,0,0,0,0,3.54,2.45,2.45,0,0,0,1.76.73,2.49,2.49,0,0,0,1.77-.73l32.69-32.69a2.5,2.5,0,0,0-3.53-3.54Z"/></svg>