<svg id="Capa_2" data-name="Capa 2" xmlns="http://www.w3.org/2000/svg" viewBox="0 0 200 200"><path d="M119.41,141.36V114.08a2.5,2.5,0,0,0-5,0v24.78h-60V77.4H68.14a2.5,2.5,0,0,0,2.5-2.5V61.14h43.77V85a2.5,2.5,0,1,0,5,0V58.64a2.5,2.5,0,0,0-2.5-2.5H68.14a2.12,2.12,0,0,0-.5,0,2,2,0,0,0-.32.1l-.14,0a2.21,2.21,0,0,0-.34.18l-.09.05a2.33,2.33,0,0,0-.38.31L50.11,73.13a2.33,2.33,0,0,0-.31.38l-.06.11a3.07,3.07,0,0,0-.17.31c0,.06,0,.12,0,.17s-.07.2-.09.3a2.73,2.73,0,0,0,0,.5v66.46a2.5,2.5,0,0,0,2.5,2.5h65A2.5,2.5,0,0,0,119.41,141.36Zm-61.5-69,7.73-7.73V72.4Z"/><path d="M60,109.52a2.5,2.5,0,0,0-2.5,2.5v4.11a2.5,2.5,0,0,0,5,0V112A2.5,2.5,0,0,0,60,109.52Z"/><path d="M62.46,88.17a2.5,2.5,0,0,0-5,0v17a2.5,2.5,0,0,0,5,0Z"/><path d="M105.42,91.81a2.5,2.5,0,0,0,1.76,4.27h40.94a2.5,2.5,0,0,0,0-5H112.66A8.92,8.92,0,0,0,98.47,80.59l-13.1,13.1a8.93,8.93,0,0,0,0,12.62l13.1,13.11a8.92,8.92,0,0,0,14.19-10.49h35.46a2.5,2.5,0,0,0,0-5H107.18a2.5,2.5,0,0,0-1.77,4.27l2.14,2.13a3.92,3.92,0,1,1-5.54,5.55L88.9,102.78a3.95,3.95,0,0,1,0-5.55L102,84.12a4,4,0,0,1,5.54,0,3.92,3.92,0,0,1,0,5.55Z"/></svg>