<svg id="Capa_2" data-name="Capa 2" xmlns="http://www.w3.org/2000/svg" viewBox="0 0 200 200"><path d="M52.5,87.35a2.5,2.5,0,0,0-5,0,8.42,8.42,0,0,0,8.41,8.41H87.35a8.43,8.43,0,0,0,8.41-8.41V55.91a8.42,8.42,0,0,0-8.41-8.41H55.91a8.42,8.42,0,0,0-8.41,8.41V71.63a2.5,2.5,0,0,0,5,0V55.91a3.41,3.41,0,0,1,3.41-3.41H87.35a3.41,3.41,0,0,1,3.41,3.41V87.35a3.41,3.41,0,0,1-3.41,3.41H55.91A3.41,3.41,0,0,1,52.5,87.35Z"/><path d="M144.09,52.5a3.41,3.41,0,0,1,3.41,3.41V87.35a3.41,3.41,0,0,1-3.41,3.41H112.65a3.41,3.41,0,0,1-3.41-3.41V55.91a3.41,3.41,0,0,1,3.41-3.41h15.72a2.5,2.5,0,0,0,0-5H112.65a8.42,8.42,0,0,0-8.41,8.41V87.35a8.42,8.42,0,0,0,8.41,8.41h31.44a8.42,8.42,0,0,0,8.41-8.41V55.91a8.42,8.42,0,0,0-8.41-8.41,2.5,2.5,0,0,0,0,5Z"/><path d="M55.91,152.5a2.5,2.5,0,0,0,0-5,3.41,3.41,0,0,1-3.41-3.41V112.65a3.41,3.41,0,0,1,3.41-3.41H87.35a3.41,3.41,0,0,1,3.41,3.41v31.44a3.41,3.41,0,0,1-3.41,3.41H71.63a2.5,2.5,0,0,0,0,5H87.35a8.42,8.42,0,0,0,8.41-8.41V112.65a8.43,8.43,0,0,0-8.41-8.41H55.91a8.42,8.42,0,0,0-8.41,8.41v31.44A8.42,8.42,0,0,0,55.91,152.5Z"/><path d="M128.37,104.24a24.13,24.13,0,1,0,24.13,24.13A24.16,24.16,0,0,0,128.37,104.24Zm0,43.26a19.13,19.13,0,1,1,19.13-19.13A19.15,19.15,0,0,1,128.37,147.5Z"/><path d="M119,116.93a14.72,14.72,0,0,0-5.43,11.44,2.5,2.5,0,0,0,5,0,9.75,9.75,0,0,1,3.59-7.57,2.5,2.5,0,0,0-3.16-3.87Z"/><path d="M128.37,113.59a14.84,14.84,0,0,0-1.63.09,2.5,2.5,0,0,0,.27,5h.28a9.77,9.77,0,0,1,1.08-.06,2.5,2.5,0,0,0,0-5Z"/><path d="M72.53,60.68a2.5,2.5,0,0,0,0-5H69.88a2.5,2.5,0,0,0,0,5Z"/><path d="M58.18,74.13a2.5,2.5,0,0,0,2.5-2.5V61.85a1.18,1.18,0,0,1,1.17-1.17,2.5,2.5,0,0,0,0-5,6.18,6.18,0,0,0-6.17,6.17v9.78A2.5,2.5,0,0,0,58.18,74.13Z"/></svg>