<svg id="Capa_2" data-name="Capa 2" xmlns="http://www.w3.org/2000/svg" viewBox="0 0 200 200"><path d="M146.9,104.51a2.51,2.51,0,0,0,1.9-2.43V90.51a2.49,2.49,0,0,0-1.9-2.42L135.37,85.2l-2.52-6.06L139,68.94a2.51,2.51,0,0,0-.38-3.06l-8.18-8.18a2.5,2.5,0,0,0-3-.37l-10.2,6.11-6.07-2.51-2.88-11.54a2.5,2.5,0,0,0-2.43-1.89H94.22a2.5,2.5,0,0,0-2.43,1.89L88.91,60.93l-6.07,2.51-10.2-6.11a2.5,2.5,0,0,0-3,.37l-8.18,8.18A2.51,2.51,0,0,0,61,68.94l6.12,10.2L64.63,85.2,53.1,88.09a2.49,2.49,0,0,0-1.9,2.42v11.57a2.51,2.51,0,0,0,1.9,2.43l11.53,2.88,2.52,6.07L61,123.66a2.5,2.5,0,0,0,.38,3l8.18,8.18a2.5,2.5,0,0,0,3,.37l10.2-6.11,8.07,3.34v12a8,8,0,0,0,8,8h2.19a8,8,0,0,0,8-8v-12l8.07-3.34,10.2,6.11a2.49,2.49,0,0,0,3-.37l8.18-8.18a2.5,2.5,0,0,0,.38-3l-6.12-10.2,2.52-6.07Zm-45.8,43H98.91a3,3,0,0,1-3-3V115.09A7.9,7.9,0,0,0,92,108.31a16,16,0,0,1-1.2-26.95v9.75a2.52,2.52,0,0,0,.8,1.84l6.73,6.22a2.5,2.5,0,0,0,3.4,0L108.43,93a2.52,2.52,0,0,0,.8-1.84V81.35a15.84,15.84,0,0,1,6.62,10.73,16,16,0,0,1-7.8,16.22,7.91,7.91,0,0,0-4,6.79v29.42A3,3,0,0,1,101.1,147.5Zm30.13-43.19-3.48,8.4a2.5,2.5,0,0,0,.17,2.24l5.76,9.6L128.26,130l-9.61-5.76a2.5,2.5,0,0,0-2.24-.16l-7.32,3v-12a2.84,2.84,0,0,1,1.48-2.47h0a21,21,0,0,0-2.93-37.76,2.5,2.5,0,0,0-3.41,2.33V90L100,93.93,95.77,90V77.19a2.5,2.5,0,0,0-3.41-2.33,21,21,0,0,0-2.91,37.77,2.83,2.83,0,0,1,1.46,2.46v12l-7.32-3a2.5,2.5,0,0,0-2.24.16L71.74,130l-5.42-5.42,5.76-9.6a2.5,2.5,0,0,0,.17-2.24l-3.48-8.4a2.51,2.51,0,0,0-1.7-1.47L56.2,100.13V92.46l10.87-2.71a2.51,2.51,0,0,0,1.7-1.47l3.48-8.39a2.52,2.52,0,0,0-.17-2.25L66.32,68l5.42-5.42,9.61,5.76a2.46,2.46,0,0,0,2.24.16L92,65.07a2.51,2.51,0,0,0,1.46-1.71L96.17,52.5h7.66l2.72,10.86A2.51,2.51,0,0,0,108,65.07l8.4,3.47a2.46,2.46,0,0,0,2.24-.16l9.61-5.76L133.68,68l-5.76,9.6a2.52,2.52,0,0,0-.17,2.25l3.48,8.39a2.51,2.51,0,0,0,1.7,1.47l10.87,2.71v7.67l-10.87,2.71A2.51,2.51,0,0,0,131.23,104.31Z"/><path d="M100.77,120.16a2.5,2.5,0,0,0-2.5,2.5v11.42a2.5,2.5,0,0,0,5,0V122.66A2.5,2.5,0,0,0,100.77,120.16Z"/><path d="M100.77,111.65a2.5,2.5,0,0,0-2.5,2.5v1.62a2.5,2.5,0,0,0,5,0v-1.62A2.5,2.5,0,0,0,100.77,111.65Z"/><path d="M102.87,110.31a2.51,2.51,0,0,0,1.26-.34,17,17,0,0,0,7.75-10,2.5,2.5,0,1,0-4.82-1.33,11.93,11.93,0,0,1-5.45,7.06,2.5,2.5,0,0,0,1.26,4.66Z"/></svg>