<svg id="Capa_2" data-name="Capa 2" xmlns="http://www.w3.org/2000/svg" viewBox="0 0 200 200"><path d="M100,65a2.5,2.5,0,0,0,0,5,19.73,19.73,0,0,1,4.14.44,2.5,2.5,0,1,0,1.06-4.88A24.5,24.5,0,0,0,100,65Z"/><path d="M111.64,67.94a2.5,2.5,0,1,0-2.39,4.39,19.4,19.4,0,0,1,10.14,17,2.5,2.5,0,0,0,5,0A24.39,24.39,0,0,0,111.64,67.94Z"/><path d="M140.21,134.86a2.5,2.5,0,0,0-2.5-2.5H72.22v-41c.52,0,1,.08,1.58.08A17.21,17.21,0,0,0,87.93,64.43a27.76,27.76,0,0,1,39.85,25V104a2.5,2.5,0,1,0,5,0V89.44a32.83,32.83,0,0,0-24.31-31.66,8.23,8.23,0,0,0,.17-1.64,8.64,8.64,0,1,0-17.28,0,8.15,8.15,0,0,0,.17,1.64,32.89,32.89,0,0,0-7.2,2.87A17.22,17.22,0,1,0,67.22,90.18v42.18H62.29a2.5,2.5,0,1,0,0,5h25a12.51,12.51,0,0,0-.21,2.2,12.94,12.94,0,0,0,25.88,0,13.33,13.33,0,0,0-.2-2.2h25A2.5,2.5,0,0,0,140.21,134.86ZM96.36,56.14a3.64,3.64,0,1,1,7.28,0,3.45,3.45,0,0,1-.08.72,31,31,0,0,0-7.12,0A3.55,3.55,0,0,1,96.36,56.14ZM61.58,74.26A12.23,12.23,0,1,1,73.8,86.49,12.24,12.24,0,0,1,61.58,74.26Zm46.36,65.3a7.94,7.94,0,0,1-15.88,0,7.7,7.7,0,0,1,.32-2.2h15.24A7.7,7.7,0,0,1,107.94,139.56Z"/><path d="M132.78,109.82a2.5,2.5,0,0,0-5,0V119a2.5,2.5,0,0,0,5,0Z"/><path d="M130.28,122.49a2.5,2.5,0,0,0-2.5,2.5v2.32a2.5,2.5,0,1,0,5,0V125A2.5,2.5,0,0,0,130.28,122.49Z"/></svg>