<svg id="Capa_2" data-name="Capa 2" xmlns="http://www.w3.org/2000/svg" viewBox="0 0 200 200"><path d="M135.18,71h5.58a2.5,2.5,0,0,0,2.5-2.5V63.34a6.74,6.74,0,0,0-6.73-6.73H112.74V53.35a5.85,5.85,0,0,0-5.84-5.85H93.1a5.85,5.85,0,0,0-5.84,5.85v3.26H63.47a6.74,6.74,0,0,0-6.73,6.73v5.19a2.5,2.5,0,0,0,2.5,2.5h5.58a2.55,2.55,0,0,0,0,.39l4,68.91a2.51,2.51,0,0,0,2.5,2.36h.14A2.51,2.51,0,0,0,73.79,140l-4-68.91s0-.07,0-.1h60.44a.68.68,0,0,1,0,.14l-3,68.91v.11a7.32,7.32,0,0,1-7.31,7.31H81.11a2.5,2.5,0,0,0,0,5h38.78a12.32,12.32,0,0,0,12.31-12.25l3-68.87A2.06,2.06,0,0,0,135.18,71ZM92.26,53.35a.85.85,0,0,1,.84-.85h13.8a.85.85,0,0,1,.84.85v3.26H92.26Zm-30.52,10a1.74,1.74,0,0,1,1.73-1.73h73.06a1.74,1.74,0,0,1,1.73,1.73V66H61.74Z"/><path d="M123.19,99.74h.1a2.51,2.51,0,0,0,2.5-2.39l.76-18.29a2.5,2.5,0,1,0-5-.21l-.77,18.29A2.51,2.51,0,0,0,123.19,99.74Z"/><path d="M120.43,105.9a2.5,2.5,0,0,0,2.39,2.61h.11a2.49,2.49,0,0,0,2.49-2.4l.08-1.78a2.5,2.5,0,0,0-5-.21Z"/><path d="M86.25,135.62V83.89a2.5,2.5,0,1,0-5,0v51.73a2.5,2.5,0,0,0,5,0Z"/><path d="M102.5,135.62V83.89a2.5,2.5,0,1,0-5,0v51.73a2.5,2.5,0,0,0,5,0Z"/><path d="M118.75,134V83.89a2.5,2.5,0,1,0-5,0V134a2.5,2.5,0,0,0,5,0Z"/></svg>