<svg id="Capa_2" data-name="Capa 2" xmlns="http://www.w3.org/2000/svg" viewBox="0 0 200 200"><path d="M130,47.5H70A22.52,22.52,0,0,0,47.5,70v5a2.5,2.5,0,0,0,5,0V70A17.52,17.52,0,0,1,70,52.5h60A17.52,17.52,0,0,1,147.5,70v60A17.52,17.52,0,0,1,130,147.5H70A17.52,17.52,0,0,1,52.5,130v-5a2.5,2.5,0,0,0-5,0v5A22.52,22.52,0,0,0,70,152.5h60A22.52,22.52,0,0,0,152.5,130V70A22.52,22.52,0,0,0,130,47.5Z"/><path d="M50,103.62a2.5,2.5,0,0,0,2.5-2.5V85.93a2.5,2.5,0,0,0-5,0v15.19A2.5,2.5,0,0,0,50,103.62Z"/><path d="M50,115.87a2.5,2.5,0,0,0,2.5-2.5v-3.06a2.5,2.5,0,0,0-5,0v3.06A2.5,2.5,0,0,0,50,115.87Z"/><path d="M67.56,72.22h8.91a8.34,8.34,0,0,0,15.91,0h40.06a2.5,2.5,0,0,0,0-5H92.38a8.34,8.34,0,0,0-15.91,0H67.56a2.5,2.5,0,0,0,0,5Zm16.87-5.84a3.34,3.34,0,0,1,3.33,3.25s0,.06,0,.09,0,.06,0,.1a3.34,3.34,0,1,1-3.33-3.44Z"/><path d="M67.56,102.5h41.35a8.34,8.34,0,0,0,15.91,0h7.62a2.5,2.5,0,0,0,0-5h-7.62a8.34,8.34,0,0,0-15.91,0H67.56a2.5,2.5,0,0,0,0,5Zm49.31-5.84a3.34,3.34,0,0,1,3.33,3.24s0,.07,0,.1,0,.06,0,.1a3.34,3.34,0,1,1-3.33-3.44Z"/><path d="M67.56,132.78H92a8.34,8.34,0,0,0,15.92,0h24.48a2.5,2.5,0,0,0,0-5H108a8.34,8.34,0,0,0-15.92,0H67.56a2.5,2.5,0,0,0,0,5ZM100,126.94a3.34,3.34,0,0,1,3.33,3.24s0,.07,0,.1,0,.06,0,.1a3.34,3.34,0,1,1-3.33-3.44Z"/></svg>