<svg id="Capa_2" data-name="Capa 2" xmlns="http://www.w3.org/2000/svg" viewBox="0 0 200 200"><path d="M100,126.34a7.74,7.74,0,0,1-7.73-7.73,2.5,2.5,0,0,0-5,0A12.74,12.74,0,0,0,97.5,131.09v2.44a2.5,2.5,0,0,0,5,0v-2.44a12.74,12.74,0,0,0,10.23-12.48c0-8.73-6.86-10.85-11.86-12.4-5.49-1.7-8.6-2.91-8.6-8.06a7.73,7.73,0,0,1,15.46,0,2.5,2.5,0,0,0,5,0A12.75,12.75,0,0,0,102.5,85.67V83.23a2.5,2.5,0,0,0-5,0v2.44A12.75,12.75,0,0,0,87.27,98.15c0,9.08,7,11.25,12.12,12.83,5.48,1.7,8.34,2.81,8.34,7.63A7.74,7.74,0,0,1,100,126.34Z"/><path d="M66.47,142.44a2.5,2.5,0,0,0,2.5-2.5V69.28A2.5,2.5,0,0,1,70.37,67l28.5-14.25a2.5,2.5,0,0,1,2.26,0L129.63,67a2.5,2.5,0,0,1,1.4,2.26v70.66a7.57,7.57,0,0,1-7.56,7.56H76.53a2.5,2.5,0,0,0,0,5h46.94A12.57,12.57,0,0,0,136,139.94V69.28a7.47,7.47,0,0,0-4.16-6.73l-28.5-14.26a7.6,7.6,0,0,0-6.74,0L68.13,62.55A7.47,7.47,0,0,0,64,69.28v70.66A2.5,2.5,0,0,0,66.47,142.44Z"/><path d="M126.39,79.34a7.47,7.47,0,0,0-4.16-6.73l-8.6-4.3a2.5,2.5,0,1,0-2.23,4.47l8.59,4.3a2.52,2.52,0,0,1,1.4,2.26V98.61a2.5,2.5,0,0,0,5,0Z"/><path d="M123.89,103.73a2.5,2.5,0,0,0-2.5,2.5v3.34a2.5,2.5,0,0,0,5,0v-3.34A2.5,2.5,0,0,0,123.89,103.73Z"/><path d="M109,66.47a9,9,0,1,0-9,9A9,9,0,0,0,109,66.47Zm-12.9,0a4,4,0,1,1,4,4A4,4,0,0,1,96.05,66.47Z"/></svg>