<svg id="Capa_2" data-name="Capa 2" xmlns="http://www.w3.org/2000/svg" viewBox="0 0 200 200"><path d="M67.22,52.5h39.36a2.5,2.5,0,0,0,0-5H67.22A11,11,0,0,0,56.28,58.43v71.86a10.8,10.8,0,0,0,6.95,10.05l31.75,12a2.41,2.41,0,0,0,.88.16,2.49,2.49,0,0,0,2.5-2.5V97.7l7.59,7.58a6.23,6.23,0,0,0,4.45,1.84,6.38,6.38,0,0,0,2.11-.37v21a2.5,2.5,0,0,0,5,0V99.38H136a2.5,2.5,0,0,0,0-5H111.81a2.49,2.49,0,0,0-1.76,4.26l1.26,1.27a1.29,1.29,0,1,1-1.83,1.83L101.74,94a1.28,1.28,0,0,1,0-1.82l7.74-7.74a1.29,1.29,0,1,1,1.83,1.82l-1.26,1.27a2.49,2.49,0,0,0,1.76,4.26H136a2.5,2.5,0,0,0,0-5H117.51V58.43a2.5,2.5,0,1,0-5,0v21A6.29,6.29,0,0,0,106,80.9l-7.59,7.58V72.26a2.5,2.5,0,0,0-1.61-2.34l-25.93-9.8a10.76,10.76,0,0,0-9.54,1V58.43A6,6,0,0,1,67.22,52.5Zm-3.46,13a5.66,5.66,0,0,1,5.3-.65L93.36,74v72.4L65,135.66a5.78,5.78,0,0,1-3.72-5.37V70.17A5.67,5.67,0,0,1,63.76,65.45Z"/><path d="M75.6,137.47a2.5,2.5,0,0,0,0-5,6,6,0,0,1-5.93-5.94V111.14a2.5,2.5,0,0,0-5,0v15.39A11,11,0,0,0,75.6,137.47Z"/><path d="M67.17,107.79a2.5,2.5,0,0,0,2.5-2.5v-.67a2.5,2.5,0,0,0-5,0v.67A2.5,2.5,0,0,0,67.17,107.79Z"/></svg>