<svg id="Capa_2" data-name="Capa 2" xmlns="http://www.w3.org/2000/svg" viewBox="0 0 200 200"><path d="M64.46,143.39a9.12,9.12,0,0,0,9.11,9.11h52.86a9.12,9.12,0,0,0,9.11-9.11V68.5a9.11,9.11,0,0,0-9.11-9.11H113.51V55.62a2.49,2.49,0,0,0-2.5-2.5H108.1a.54.54,0,0,1-.5-.37,8.13,8.13,0,0,0-15.2,0,.54.54,0,0,1-.5.37H89a2.49,2.49,0,0,0-2.5,2.5v3.77H73.57a9.11,9.11,0,0,0-9.11,9.11v3.82a2.5,2.5,0,0,0,5,0V68.5a4.11,4.11,0,0,1,4.11-4.11H86.49v3.76a2.49,2.49,0,0,0,2.5,2.5h22a2.49,2.49,0,0,0,2.5-2.5V64.39h12.92a4.11,4.11,0,0,1,4.11,4.11v74.89a4.11,4.11,0,0,1-4.11,4.11H73.57a4.11,4.11,0,0,1-4.11-4.11V114.87a2.5,2.5,0,0,0-5,0Zm44.05-77.74h-17V58.12h.41a5.59,5.59,0,0,0,5.18-3.6,3.12,3.12,0,0,1,5.84,0,5.59,5.59,0,0,0,5.18,3.6h.41Z"/><path d="M64.46,99.21a2.5,2.5,0,0,0,5,0V87.89a2.5,2.5,0,0,0-5,0Z"/><path d="M67,83.12a2.5,2.5,0,0,0,2.5-2.5V79a2.5,2.5,0,0,0-5,0v1.66A2.5,2.5,0,0,0,67,83.12Z"/><path d="M120,83.68H93a2.5,2.5,0,0,0,0,5h27a2.5,2.5,0,1,0,0-5Z"/><path d="M120,91.12H89a2.5,2.5,0,0,0,0,5h31a2.5,2.5,0,1,0,0-5Z"/><path d="M88.75,78.86l-9.36,9.35-2.76-2.76A2.5,2.5,0,0,0,73.09,89l4.53,4.53a2.49,2.49,0,0,0,3.54,0L92.28,82.39a2.5,2.5,0,0,0-3.53-3.53Z"/><path d="M120,107.71H93a2.5,2.5,0,0,0,0,5h27a2.5,2.5,0,0,0,0-5Z"/><path d="M120,115.14H89a2.5,2.5,0,0,0,0,5h31a2.5,2.5,0,0,0,0-5Z"/><path d="M73.09,113l4.53,4.53a2.51,2.51,0,0,0,3.54,0l11.12-11.13a2.5,2.5,0,0,0-3.53-3.53l-9.36,9.35-2.76-2.76A2.5,2.5,0,0,0,73.09,113Z"/><path d="M120,131.73H93a2.5,2.5,0,1,0,0,5h27a2.5,2.5,0,0,0,0-5Z"/><path d="M120,139.17H89a2.5,2.5,0,1,0,0,5h31a2.5,2.5,0,0,0,0-5Z"/><path d="M73.09,137l4.53,4.53a2.51,2.51,0,0,0,3.54,0l11.12-11.12a2.5,2.5,0,0,0-3.53-3.54l-9.36,9.36-2.76-2.76A2.5,2.5,0,1,0,73.09,137Z"/></svg>