<svg id="Capa_2" data-name="Capa 2" xmlns="http://www.w3.org/2000/svg" viewBox="0 0 200 200"><path d="M67.22,89.44v42.92H62.29a2.5,2.5,0,1,0,0,5h25a12.51,12.51,0,0,0-.21,2.2,12.94,12.94,0,0,0,25.88,0,13.33,13.33,0,0,0-.2-2.2h25a2.5,2.5,0,1,0,0-5H72.22V89.44a27.78,27.78,0,0,1,55.56,0V104a2.5,2.5,0,1,0,5,0V89.44a32.83,32.83,0,0,0-24.31-31.66,8.23,8.23,0,0,0,.17-1.64,8.65,8.65,0,0,0-17.29,0,9,9,0,0,0,.17,1.64A32.84,32.84,0,0,0,67.22,89.44Zm40.72,50.12a7.94,7.94,0,0,1-15.88,0,7.7,7.7,0,0,1,.32-2.2h15.24A7.7,7.7,0,0,1,107.94,139.56ZM96.35,56.14a3.65,3.65,0,0,1,7.29,0,3.45,3.45,0,0,1-.08.72,31.78,31.78,0,0,0-7.12,0A3.46,3.46,0,0,1,96.35,56.14Z"/><path d="M100,65a2.5,2.5,0,0,0,0,5,19.73,19.73,0,0,1,4.14.44,2.5,2.5,0,1,0,1.06-4.88A24.5,24.5,0,0,0,100,65Z"/><path d="M111.64,67.94a2.5,2.5,0,1,0-2.39,4.39,19.4,19.4,0,0,1,10.14,17,2.5,2.5,0,0,0,5,0A24.39,24.39,0,0,0,111.64,67.94Z"/><path d="M132.78,109.82a2.5,2.5,0,0,0-5,0V119a2.5,2.5,0,0,0,5,0Z"/><path d="M130.28,122.49a2.5,2.5,0,0,0-2.5,2.5v2.32a2.5,2.5,0,1,0,5,0V125A2.5,2.5,0,0,0,130.28,122.49Z"/></svg>