<svg id="Capa_2" data-name="Capa 2" xmlns="http://www.w3.org/2000/svg" viewBox="0 0 200 200"><path d="M100,64.64a16,16,0,1,0,16,16A16,16,0,0,0,100,64.64Zm0,26.9a11,11,0,1,1,11-11A11,11,0,0,1,100,91.54Z"/><path d="M105.89,114.67a2.5,2.5,0,0,0-2.5,2.5v1.88a2.5,2.5,0,0,0,5,0v-1.88A2.5,2.5,0,0,0,105.89,114.67Z"/><path d="M105.89,122.33a2.49,2.49,0,0,0-2.5,2.5v9.35a2.5,2.5,0,0,0,5,0v-9.35A2.49,2.49,0,0,0,105.89,122.33Z"/><path d="M100,47.5A52.5,52.5,0,1,0,152.5,100,52.56,52.56,0,0,0,100,47.5Zm-9.1,99.12V119.05a2.5,2.5,0,1,0-5,0V140c-4.07-3-6.27-5.87-6.27-12.27,0-15.58,3.15-23.49,20.37-23.49s20.37,7.91,20.37,23.49c0,5.75-1.66,7.32-5.31,10.75l-1,.91V119.05a2.5,2.5,0,1,0-5,0v27.57a47.49,47.49,0,0,1-18.2,0Zm24.58-1.72c.4-.35.81-.69,1.19-1.07.64-.62,1.24-1.19,1.82-1.73,3.84-3.62,6.88-6.48,6.88-14.39,0-13.78-2-28.49-25.37-28.49s-25.37,14.71-25.37,28.49c0,9.16,3.88,13.16,9.22,17a47.51,47.51,0,1,1,31.63.23Z"/></svg>