<svg id="Capa_2" data-name="Capa 2" xmlns="http://www.w3.org/2000/svg" viewBox="0 0 200 200"><path d="M146.3,88.05V76.23A9.22,9.22,0,0,0,137.58,67L131.4,52.16a9.23,9.23,0,0,0-12-5L71.59,67H62.22a9.21,9.21,0,0,0-9.07,7.65l-2.94,1.22a9.22,9.22,0,0,0-5,12l2.07,5A2.5,2.5,0,1,0,51.91,91l-2.06-5a4.22,4.22,0,0,1,2.28-5.51l4.33-1.8A2.5,2.5,0,0,0,58,76.32v-.09A4.22,4.22,0,0,1,62.22,72h74.87a4.22,4.22,0,0,1,4.21,4.21V91.45H58V83.33a2.5,2.5,0,1,0-5,0V99a2.5,2.5,0,0,0,5,0v-2.5h83.3v9.72H58v-1.51a2.5,2.5,0,0,0-5,0V107a2.38,2.38,0,0,0,.15.81,2.42,2.42,0,0,0,.81,2.77,2.49,2.49,0,0,0-1,1.95v9.1a9.23,9.23,0,0,0,9.22,9.21h.92a9.22,9.22,0,0,0,11.56,4l9.62-4h52.77a9.22,9.22,0,0,0,9.21-9.21v-17a9.28,9.28,0,0,0,2.52-10.53Zm-25-36.25a4.22,4.22,0,0,1,5.51,2.28L132.15,67H84.62Zm15.82,74.08H62.22A4.22,4.22,0,0,1,58,121.67v-9.1a2.49,2.49,0,0,0-.43-1.4H141.3v10.5A4.22,4.22,0,0,1,137.09,125.88Z"/><path d="M72.72,116a2.5,2.5,0,0,0-5,0,2.5,2.5,0,0,0-1.54,4.75,2.5,2.5,0,0,0,4,2.93,2.47,2.47,0,0,0,2,1,2.5,2.5,0,0,0,2.05-3.93A2.5,2.5,0,0,0,72.72,116Z"/><path d="M86.94,116a2.5,2.5,0,0,0-5,0,2.5,2.5,0,0,0-1.54,4.75,2.49,2.49,0,0,0,2,3.93,2.46,2.46,0,0,0,2-1,2.49,2.49,0,0,0,2,1,2.53,2.53,0,0,0,1.47-.48,2.5,2.5,0,0,0,.57-3.45A2.5,2.5,0,0,0,86.94,116Z"/><path d="M101.17,116a2.5,2.5,0,0,0-5,0,2.5,2.5,0,0,0-1.55,4.75,2.49,2.49,0,0,0,2,3.93,2.48,2.48,0,0,0,2-1,2.49,2.49,0,0,0,4-2.92,2.5,2.5,0,0,0-1.54-4.75Z"/></svg>