<svg id="Capa_2" data-name="Capa 2" xmlns="http://www.w3.org/2000/svg" viewBox="0 0 200 200"><path d="M69.16,152.5h61.68a8.84,8.84,0,0,0,8.83-8.83V96.07a8.84,8.84,0,0,0-8.83-8.82H128V75.52a28,28,0,0,0-56,0V87.25H69.16a8.84,8.84,0,0,0-8.83,8.82v5.87a2.5,2.5,0,0,0,5,0V96.07a3.83,3.83,0,0,1,3.83-3.82h61.68a3.83,3.83,0,0,1,3.83,3.82v47.6a3.84,3.84,0,0,1-3.83,3.83H69.16a3.84,3.84,0,0,1-3.83-3.83,2.5,2.5,0,0,0-5,0A8.84,8.84,0,0,0,69.16,152.5Zm7.82-77a23,23,0,1,1,46,0V87.25h-3.88V75.52a19.14,19.14,0,1,0-38.28,0V87.25H77Zm37.16,11.73H85.86V75.52a14.14,14.14,0,1,1,28.28,0Z"/><path d="M62.83,125.46a2.5,2.5,0,0,0,2.5-2.5V109.51a2.5,2.5,0,0,0-5,0V123A2.5,2.5,0,0,0,62.83,125.46Z"/><path d="M60.33,133.85a2.5,2.5,0,0,0,5,0v-2a2.5,2.5,0,0,0-5,0Z"/><path d="M100,132.48a5.6,5.6,0,0,0,5.59-5.59V124a9.31,9.31,0,0,0,3.71-7,9.39,9.39,0,0,0-9.17-9.72H100A9.31,9.31,0,0,0,94.41,124v2.86A5.6,5.6,0,0,0,100,132.48Zm-3-19a4.31,4.31,0,0,1,3-1.24h.06a4.31,4.31,0,0,1,1.89,8.15,2.52,2.52,0,0,0-1.36,2.23v4.24a.59.59,0,0,1-1.18,0v-4.24a2.52,2.52,0,0,0-1.36-2.23A4.31,4.31,0,0,1,97,113.51Z"/></svg>