<svg id="Capa_2" data-name="Capa 2" xmlns="http://www.w3.org/2000/svg" viewBox="0 0 200 200"><path d="M57.39,74a2.5,2.5,0,0,0-2.5,2.5V130a6,6,0,0,0,6,6h77.2a7.47,7.47,0,0,0,6.73-4.16,2.43,2.43,0,0,0,.27-1.12V69.25a2.43,2.43,0,0,0-.27-1.12A7.47,7.47,0,0,0,138.11,64H67.45a2.5,2.5,0,0,0,0,5h70.66a2.49,2.49,0,0,1,2,1v37L127,95.92a2.49,2.49,0,0,0-3.33.11l-14.41,13.76-24-28.08a2.5,2.5,0,0,0-3.58-.23L59.89,101.23V76.53A2.5,2.5,0,0,0,57.39,74Zm68.07,27.16,14.65,12.27v16.59a2.49,2.49,0,0,1-2,1H127.34L112.46,113.6ZM83.1,86.92,120.77,131H60.91a1,1,0,0,1-1-1V108Z"/><path d="M134.4,80.09a2.5,2.5,0,0,0,2.5-2.5v-.66a2.5,2.5,0,0,0-5,0v.66A2.5,2.5,0,0,0,134.4,80.09Z"/><path d="M131.9,90.83a2.5,2.5,0,1,0,5,0V84.52a2.5,2.5,0,0,0-5,0Z"/><path d="M122.37,85.9A10.47,10.47,0,1,0,111.9,96.37,10.48,10.48,0,0,0,122.37,85.9Zm-15.94,0a5.47,5.47,0,1,1,5.47,5.47A5.47,5.47,0,0,1,106.43,85.9Z"/></svg>