<svg id="iconos" xmlns="http://www.w3.org/2000/svg" viewBox="0 0 100 100"><path d="M75.71,62.65a1.5,1.5,0,0,1-1.5-1.5v-27a1.07,1.07,0,0,0-1.07-1.07H26.86a1.07,1.07,0,0,0-1.07,1.07v27a1.5,1.5,0,0,1-3,0v-27a4.07,4.07,0,0,1,4.07-4.07H73.14a4.07,4.07,0,0,1,4.07,4.07v27A1.5,1.5,0,0,1,75.71,62.65Z"/><circle cx="30.21" cy="37.28" r="0.58"/><circle cx="32.46" cy="37.28" r="0.58"/><circle cx="34.71" cy="37.28" r="0.58"/><path d="M50,56.94a8.86,8.86,0,1,1,8.86-8.86A8.88,8.88,0,0,1,50,56.94Zm0-16.72a7.86,7.86,0,1,0,7.86,7.86A7.87,7.87,0,0,0,50,40.22Z"/><path d="M50,56.94c-2.27,0-4-3.89-4-8.86s1.78-8.86,4-8.86,4,3.89,4,8.86S52.27,56.94,50,56.94Zm0-16.72c-1.44,0-3,3.23-3,7.86s1.61,7.86,3,7.86,3-3.23,3-7.86S51.44,40.22,50,40.22Z"/><path d="M58.36,48.58H41.64a.5.5,0,0,1,0-1H58.36a.5.5,0,0,1,0,1Z"/><path d="M75.44,70.08H24.56A6.07,6.07,0,0,1,18.5,64V61.52A1.5,1.5,0,0,1,20,60h4.29a1.5,1.5,0,0,1,0,3H21.5v1a3.07,3.07,0,0,0,3.06,3.07H75.44A3.07,3.07,0,0,0,78.5,64V63H75.71a1.5,1.5,0,0,1,0-3H80a1.5,1.5,0,0,1,1.5,1.5V64A6.07,6.07,0,0,1,75.44,70.08Z"/><path d="M71.43,58.84H27.92a.5.5,0,0,1-.5-.5V35a.5.5,0,0,1,.5-.5H71.43a.5.5,0,0,1,.5.5V58.34A.5.5,0,0,1,71.43,58.84Zm-43-1H70.93V35.48H28.42Z"/><path d="M55.25,64.26H44.75a2.12,2.12,0,0,1-2.12-2.12V62H24.29a.5.5,0,0,1,0-1H43.13a.5.5,0,0,1,.5.5v.62a1.12,1.12,0,0,0,1.12,1.12h10.5a1.12,1.12,0,0,0,1.12-1.12v-.62a.5.5,0,0,1,.5-.5H75.71a.5.5,0,0,1,0,1H57.37v.12A2.12,2.12,0,0,1,55.25,64.26Z"/></svg>