<svg id="iconos" xmlns="http://www.w3.org/2000/svg" viewBox="0 0 100 100"><path d="M50,78.86a4.08,4.08,0,0,1-2.67-1L24.71,58.17A18.28,18.28,0,1,1,50,31.82,18.27,18.27,0,0,1,81.45,43.13h0a18.16,18.16,0,0,1-6.14,15l-.43.38L52.68,77.86A4.09,4.09,0,0,1,50,78.86ZM36.79,29.16A15.28,15.28,0,0,0,26.68,55.9l.41.36L49.3,75.6a1.08,1.08,0,0,0,1.41,0L73.34,55.89a15.19,15.19,0,0,0,5.12-12.55h0A15.46,15.46,0,0,0,64.05,29.18,15.26,15.26,0,0,0,51.19,35a1.56,1.56,0,0,1-2.37,0A15.13,15.13,0,0,0,36.79,29.16Z"/></svg>