<svg id="iconos" xmlns="http://www.w3.org/2000/svg" viewBox="0 0 100 100"><path d="M75.47,61.77,64.24,50.54a3.54,3.54,0,0,0-5,0L55,54.75a1.2,1.2,0,0,1-1.68,0l-8.11-8.12a1.21,1.21,0,0,1,0-1.69l4.21-4.19a3.52,3.52,0,0,0,0-5L38.23,24.53a3.54,3.54,0,0,0-5,0l-6.36,6.36A11.87,11.87,0,0,0,25.19,33a11.44,11.44,0,0,0,1.68,14.11l26,26A11.41,11.41,0,0,0,67,74.81a11.94,11.94,0,0,0,2.13-1.68l6.36-6.36a3.52,3.52,0,0,0,0-5ZM35.35,26.65a.52.52,0,0,1,.38-.16.51.51,0,0,1,.38.16L47.34,37.88a.54.54,0,0,1,.16.38.55.55,0,0,1-.16.38l-2.67,2.65-12-12ZM67,71a8.47,8.47,0,0,1-12,0L29,45a8.47,8.47,0,0,1,0-12l3-3L44,42l-.83.83a4.21,4.21,0,0,0,0,5.92h0l8.13,8.13a4.22,4.22,0,0,0,5.92,0L58,56,70,68Zm6.36-6.36-2.66,2.66-12-12,2.66-2.67a.54.54,0,0,1,.76,0L73.35,63.89a.51.51,0,0,1,.16.38A.54.54,0,0,1,73.35,64.65Z"/></svg>