<svg id="iconos" xmlns="http://www.w3.org/2000/svg" viewBox="0 0 100 100"><path d="M34.23,71.12a3.84,3.84,0,0,1-1.86-.5L12.93,59.72a5.13,5.13,0,0,1-2.42-4.14,5.47,5.47,0,0,1,1.76-4.5l18-15.24A3.77,3.77,0,0,1,33.48,35a4.3,4.3,0,0,1,2.94,2.31A5.65,5.65,0,0,1,35.29,44L23.17,54.29l12.91,7.24A5.43,5.43,0,0,1,38.19,68,4.32,4.32,0,0,1,34.23,71.12ZM32.77,37.89a.89.89,0,0,0-.57.24l-18,15.24a2.45,2.45,0,0,0-.7,2,2.18,2.18,0,0,0,.88,1.73L33.84,68c.59.33,1.22-.14,1.52-1a2.51,2.51,0,0,0-.74-2.87l-14.8-8.29a1.51,1.51,0,0,1-.24-2.46L33.35,41.73a2.69,2.69,0,0,0,.41-3.07,1.34,1.34,0,0,0-.85-.76Z"/><path d="M67.23,71.11a4.16,4.16,0,0,1-3.65-2.38A5.65,5.65,0,0,1,64.71,62L76.83,51.72,63.92,44.47A5.43,5.43,0,0,1,61.81,38a4.6,4.6,0,0,1,2.64-2.88,3.71,3.71,0,0,1,3.18.25l19.44,10.9a5.14,5.14,0,0,1,2.42,4.14,5.47,5.47,0,0,1-1.76,4.5l-18,15.24A3.8,3.8,0,0,1,67.23,71.11ZM65.77,37.89a.63.63,0,0,0-.26,0A1.66,1.66,0,0,0,64.64,39a2.51,2.51,0,0,0,.74,2.87l14.8,8.3a1.5,1.5,0,0,1,.24,2.45L66.65,64.27a2.69,2.69,0,0,0-.41,3.07c.39.74,1,1,1.56.53l18-15.24a2.45,2.45,0,0,0,.7-2,2.18,2.18,0,0,0-.88-1.73L66.16,38A.72.72,0,0,0,65.77,37.89Z"/><path d="M42.72,78.5a2.51,2.51,0,0,1-1.21-.31A4,4,0,0,1,40,73.46l14.57-43.7a3.3,3.3,0,0,1,1.83-2.08,2.49,2.49,0,0,1,2.13.13A4,4,0,0,1,60,32.54L45.47,76.24A3,3,0,0,1,42.72,78.5Zm14.57-50a1.55,1.55,0,0,0-.56.11,2.28,2.28,0,0,0-1.25,1.47L40.91,73.78A3,3,0,0,0,42,77.31c1,.52,2.11-.12,2.53-1.39l14.57-43.7A3,3,0,0,0,58,28.69,1.46,1.46,0,0,0,57.29,28.5Z"/></svg>