<svg id="iconos" xmlns="http://www.w3.org/2000/svg" viewBox="0 0 100 100"><path d="M58.16,44.66a9.28,9.28,0,1,1,9.27-9.27A9.28,9.28,0,0,1,58.16,44.66Zm0-15.55a6.28,6.28,0,1,0,6.27,6.28A6.29,6.29,0,0,0,58.16,29.11Z"/><path d="M55.31,32.28A.5.5,0,0,1,55,31.4,6.12,6.12,0,0,1,58.94,30a.5.5,0,0,1,.5.5.5.5,0,0,1-.5.5,5.18,5.18,0,0,0-3.31,1.2A.49.49,0,0,1,55.31,32.28Z"/><path d="M53.53,35l-.14,0a.5.5,0,0,1-.34-.63,6.31,6.31,0,0,1,.9-1.82.5.5,0,0,1,.7-.11.48.48,0,0,1,.11.69A5.31,5.31,0,0,0,54,34.62.5.5,0,0,1,53.53,35Z"/><path d="M48.81,28a.53.53,0,0,1-.38-.18.51.51,0,0,1,.06-.71,8.59,8.59,0,0,1,5.53-2,.5.5,0,0,1,0,1,7.6,7.6,0,0,0-4.89,1.78A.49.49,0,0,1,48.81,28Z"/><path d="M46.72,30.66a.54.54,0,0,1-.21-.05.49.49,0,0,1-.23-.67A7.85,7.85,0,0,1,47,28.66a.5.5,0,1,1,.81.59,7.53,7.53,0,0,0-.68,1.13A.5.5,0,0,1,46.72,30.66Z"/><path d="M43.48,44a1.5,1.5,0,0,1-1.5-1.5V32.88a11.39,11.39,0,0,1,21.79-4.62A1.5,1.5,0,0,1,61,29.48,8.39,8.39,0,0,0,45,32.88v9.64A1.5,1.5,0,0,1,43.48,44Z"/><path d="M43.48,68.92a1.51,1.51,0,0,1-1.5-1.5V52.28a1.5,1.5,0,0,1,3,0V67.42A1.5,1.5,0,0,1,43.48,68.92Z"/><path d="M63.81,46.26l-3-.36c.18-1.48.34-3,.47-4.41l3,.27C64.15,43.24,64,44.75,63.81,46.26Z"/><path d="M70.59,76.41l-1.28-9.92a1.28,1.28,0,0,1,0-.19,3.37,3.37,0,0,0-3.37-3.37l-6.23-.36a1.52,1.52,0,0,1-1.12-.6,1.49,1.49,0,0,1-.26-1.24c.43-1.82.86-3.94,1.26-6.28l3,.51c-.29,1.7-.6,3.27-.91,4.72l4.39.25h0a6.35,6.35,0,0,1,6.28,6.26L73.56,76Z"/><path d="M66.71,78.83a1.5,1.5,0,0,1-1.41-1l-1.92-5.17L52.47,75.53a8.24,8.24,0,0,1-2.1.27A8.4,8.4,0,0,1,42,67.42a1.5,1.5,0,0,1,3,0,5.4,5.4,0,0,0,5.39,5.38,5.28,5.28,0,0,0,1.31-.16l12.25-3.2a1.49,1.49,0,0,1,1.79.93l2.4,6.44a1.51,1.51,0,0,1-.89,1.93A1.58,1.58,0,0,1,66.71,78.83Z"/><path d="M68.62,84a1.5,1.5,0,0,1-1.4-1L65.3,77.85a1.5,1.5,0,1,1,2.81-1l1.5,4,4.68-.7a5.51,5.51,0,0,0-1.75-.06,1.5,1.5,0,0,1-1.65-1.3l-.3-2.35a1.5,1.5,0,0,1,3-.38l.13,1c2.64.14,4.54,1.52,5.09,3.81A1.52,1.52,0,0,1,78.57,82a1.5,1.5,0,0,1-1,.64L68.85,84Z"/><path d="M37.23,75.07a1.52,1.52,0,0,1-.74-.2l-6-3.41A1.5,1.5,0,1,1,32,68.86l4.8,2.73,5.46-7.66a1.5,1.5,0,1,1,2.44,1.74l-6.25,8.77A1.49,1.49,0,0,1,37.23,75.07Z"/><path d="M39,84.51a6.38,6.38,0,0,1-4.85-2.22l-7.28-6.74a1.5,1.5,0,1,1,2-2.2l7.34,6.8a1.85,1.85,0,0,1,.14.14,3.32,3.32,0,0,0,2.28,1.2,3.41,3.41,0,0,0,2.46-.77l10.82-8a1.5,1.5,0,0,1,1.78,2.41l-10.75,8A6.19,6.19,0,0,1,39,84.51Z"/><path d="M22.57,76.17a4.71,4.71,0,0,1-2.82-1,1.48,1.48,0,0,1-.6-1A1.5,1.5,0,0,1,19.52,73l5.85-6.57a1.5,1.5,0,0,1,1.86-.31L32,68.86a1.5,1.5,0,0,1-1.49,2.6L26.8,69.34l-3.15,3.54A5.58,5.58,0,0,0,25,71.8a1.49,1.49,0,0,1,2.1-.06l1.73,1.61a1.5,1.5,0,1,1-2,2.2l-.73-.68A5.93,5.93,0,0,1,22.57,76.17Z"/><path d="M40.61,59a.49.49,0,0,1-.5-.45s0-.12,0-.33a.5.5,0,0,1,.49-.5.51.51,0,0,1,.51.48c0,.1,0,.2,0,.3a.5.5,0,0,1-.48.5Z"/><path d="M35.94,64.67a6.18,6.18,0,0,1-6.18-6.18c0-.11,0-.22,0-.32.12-11.19,8.74-17.4,16.78-17.52h.26a6.18,6.18,0,1,1,0,12.35,4.42,4.42,0,0,0-3.31,1.15,6.06,6.06,0,0,0-1.4,4.07v.17s0,.08,0,.11A6.18,6.18,0,0,1,35.94,64.67Zm10.87-21h-.16c-6.68.11-13.78,5.27-13.89,14.63v.22a3.18,3.18,0,0,0,6.35,0,2.83,2.83,0,0,1,0-.33A8.93,8.93,0,0,1,41.37,52a7.38,7.38,0,0,1,5.44-2,3.18,3.18,0,1,0,0-6.35Z"/><path d="M40.73,57.16h-.1l-9.12-1.77a.51.51,0,0,1-.4-.59.5.5,0,0,1,.59-.39l9.13,1.77a.49.49,0,0,1,.39.58A.5.5,0,0,1,40.73,57.16Z"/><path d="M66.39,55.37a17.25,17.25,0,0,1-4.48-.6l.78-2.9a14.48,14.48,0,0,0,14.08-4l.16-.15a3.18,3.18,0,0,0-2.24-5.42h0a3.17,3.17,0,0,0-2.22.9l-.23.24c-2.57,2.59-6.7,4.21-10.57,1l1.92-2.3c2.83,2.35,5.51.21,6.53-.81l.12-.13.08-.08a6.13,6.13,0,0,1,4.36-1.81h0a6.17,6.17,0,0,1,4.36,10.54,2.4,2.4,0,0,1-.24.22A17.67,17.67,0,0,1,66.39,55.37Z"/><path d="M75.19,51.6a.48.48,0,0,1-.41-.22l-5.2-7.7a.49.49,0,0,1,.13-.69.5.5,0,0,1,.7.13l5.2,7.71a.5.5,0,0,1-.14.69A.46.46,0,0,1,75.19,51.6Z"/><path d="M40.48,65.8a7.55,7.55,0,0,1-4.55-1.52,1.5,1.5,0,0,1,1.8-2.4,4.65,4.65,0,0,0,5,.32,1.51,1.51,0,0,1,2,.57,1.49,1.49,0,0,1-.57,2A7.52,7.52,0,0,1,40.48,65.8Z"/><path d="M34.4,50a1.5,1.5,0,0,1-1.5-1.5V25.54a2.13,2.13,0,1,1,4.26,0v4.8a7.78,7.78,0,0,1,7.13.27,1.5,1.5,0,0,1-1.51,2.59,4.64,4.64,0,0,0-2.3-.62,4.55,4.55,0,0,0-3.63,1.79,1.45,1.45,0,0,1-1,.56V48.46A1.5,1.5,0,0,1,34.4,50Z"/><path d="M60.58,55.27h-5.3A2.25,2.25,0,0,1,53,53V47.54a2.25,2.25,0,0,1,2.25-2.25h6.09a2.27,2.27,0,0,1,1.7.78,2.21,2.21,0,0,1,.52,1.79l-.78,5.48A2.27,2.27,0,0,1,60.58,55.27Zm-5.3-9A1.25,1.25,0,0,0,54,47.54V53a1.25,1.25,0,0,0,1.25,1.25h5.3a1.26,1.26,0,0,0,1.24-1.07l.78-5.48a1.19,1.19,0,0,0-.29-1,1.24,1.24,0,0,0-.94-.44Z"/><path d="M56.29,53.16A1.33,1.33,0,0,1,55,51.82V48.43a1.34,1.34,0,0,1,2.67,0v3.39A1.34,1.34,0,0,1,56.29,53.16Zm0-5.06a.33.33,0,0,0-.33.33v3.39a.34.34,0,1,0,.67,0V48.43A.34.34,0,0,0,56.29,48.1Z"/><path d="M59.49,49.93a1.34,1.34,0,1,1,1.34-1.33A1.33,1.33,0,0,1,59.49,49.93Zm0-1.67a.34.34,0,1,0,.34.34A.34.34,0,0,0,59.49,48.26Z"/><path d="M59.49,52.78a1.34,1.34,0,1,1,1.34-1.34A1.34,1.34,0,0,1,59.49,52.78Zm0-1.67a.34.34,0,0,0,0,.67.34.34,0,1,0,0-.67Z"/><path d="M27.16,75.53a.51.51,0,0,1-.31-.11.5.5,0,0,1-.08-.7l4-5a.49.49,0,0,1,.7-.08.5.5,0,0,1,.08.7l-4,5A.53.53,0,0,1,27.16,75.53Z"/><path d="M66.71,77.37a.5.5,0,0,1-.1-1l6.26-1.29a.5.5,0,1,1,.2,1l-6.26,1.3Z"/></svg>