<svg id="iconos" xmlns="http://www.w3.org/2000/svg" viewBox="0 0 100 100"><path d="M69.3,76H32a3.8,3.8,0,0,1-3.8-3.79v-28a1.5,1.5,0,0,1,1.5-1.5H71.59a1.5,1.5,0,0,1,1.5,1.5v28A3.79,3.79,0,0,1,69.3,76ZM31.21,45.69V72.21A.8.8,0,0,0,32,73H69.3a.79.79,0,0,0,.79-.79V45.69Z"/><path d="M45.4,66.26A2.25,2.25,0,0,1,44.28,66a2.17,2.17,0,0,1-1.05-1.86V54.53a2.17,2.17,0,0,1,1-1.83,2.14,2.14,0,0,1,2.08-.13L55.88,57a2.16,2.16,0,0,1,1.24,1.9,2.13,2.13,0,0,1-1.14,2L46.42,66A2.24,2.24,0,0,1,45.4,66.26Zm0-12.9a1.2,1.2,0,0,0-.62.18,1.16,1.16,0,0,0-.54,1v9.56a1.17,1.17,0,0,0,1.71,1L55.51,60A1.13,1.13,0,0,0,56.12,59a1.14,1.14,0,0,0-.67-1l-9.56-4.46A1.25,1.25,0,0,0,45.39,53.36Z"/><path d="M29.71,45.69a1.51,1.51,0,0,1-1.48-1.25l-1.3-7.68a1.49,1.49,0,0,1,.25-1.12,1.53,1.53,0,0,1,1-.61l41.29-7a1.51,1.51,0,0,1,1.12.26,1.53,1.53,0,0,1,.61,1l1.3,7.68a1.5,1.5,0,0,1-1.23,1.73L30,45.67Zm.43-7.95.8,4.72L69.27,36l-.8-4.72Z"/><path d="M29.71,44.69a.52.52,0,0,1-.29-.09.51.51,0,0,1-.12-.7l6.38-9a.5.5,0,0,1,.7-.12.51.51,0,0,1,.12.7l-6.38,9A.49.49,0,0,1,29.71,44.69Z"/><path d="M36.88,43.47a.52.52,0,0,1-.29-.09.51.51,0,0,1-.11-.7l6.37-9a.5.5,0,0,1,.7-.12.51.51,0,0,1,.12.7l-6.38,9A.49.49,0,0,1,36.88,43.47Z"/><path d="M44.05,42.26a.42.42,0,0,1-.28-.1.49.49,0,0,1-.12-.69l6.37-9a.52.52,0,0,1,.7-.12.5.5,0,0,1,.12.7l-6.38,9A.49.49,0,0,1,44.05,42.26Z"/><path d="M51.23,41a.52.52,0,0,1-.29-.09.5.5,0,0,1-.12-.7l6.38-9a.5.5,0,0,1,.69-.11.49.49,0,0,1,.12.69l-6.38,9A.5.5,0,0,1,51.23,41Z"/><path d="M58.4,39.82a.52.52,0,0,1-.29-.09A.5.5,0,0,1,58,39l6.38-9a.5.5,0,0,1,.81.57l-6.37,9A.51.51,0,0,1,58.4,39.82Z"/><path d="M65.57,38.6a.52.52,0,0,1-.29-.09.51.51,0,0,1-.12-.7l4.51-6.35a.5.5,0,0,1,.7-.12.51.51,0,0,1,.12.7L66,38.39A.49.49,0,0,1,65.57,38.6Z"/></svg>