<svg id="iconos" xmlns="http://www.w3.org/2000/svg" viewBox="0 0 100 100"><path d="M49.2,80A.51.51,0,0,1,49,80L30,73.4a.5.5,0,0,1-.33-.47V24.5a.49.49,0,0,1,.21-.41.48.48,0,0,1,.45-.06L49.36,30.6a.51.51,0,0,1,.34.47V79.5a.49.49,0,0,1-.5.5ZM30.65,72.57,48.7,78.8V31.43L30.65,25.2Z"/><path d="M69.85,51H53a1.5,1.5,0,0,1,0-3h16.9a1.5,1.5,0,0,1,0,3Z"/><path d="M59.9,57.2a1.52,1.52,0,0,1-1.28-.7,1.5,1.5,0,0,1,.48-2.07L67,49.5,59.1,44.57A1.5,1.5,0,0,1,60.69,42l10,6.21a1.5,1.5,0,0,1,0,2.54L60.69,57A1.52,1.52,0,0,1,59.9,57.2Z"/><path d="M59.53,74.43H50.14a1.5,1.5,0,0,1,0-3H58V61.94a1.5,1.5,0,0,1,3,0v11A1.5,1.5,0,0,1,59.53,74.43Z"/><path d="M59.53,38.57a1.5,1.5,0,0,1-1.5-1.5V26H31.09a1.5,1.5,0,0,1,0-3H59.53A1.5,1.5,0,0,1,61,24.5V37.07A1.5,1.5,0,0,1,59.53,38.57Z"/></svg>