<svg id="iconos" xmlns="http://www.w3.org/2000/svg" viewBox="0 0 100 100"><path d="M36.2,79.06a4.18,4.18,0,0,1-4.11-4.88l2.16-12.6a1.18,1.18,0,0,0-.33-1l-9.16-8.92a4.17,4.17,0,0,1,2.31-7.11l12.65-1.84A1.15,1.15,0,0,0,40.6,42l5.66-11.46a4.17,4.17,0,0,1,7.48,0h0L59.4,42a1.15,1.15,0,0,0,.88.64l12.65,1.84a4.17,4.17,0,0,1,2.31,7.11l-9.16,8.92a1.18,1.18,0,0,0-.33,1l2.16,12.6a4.16,4.16,0,0,1-6,4.39L50.54,72.62a1.21,1.21,0,0,0-1.08,0L38.14,78.57A4.11,4.11,0,0,1,36.2,79.06ZM50,31.24a1.15,1.15,0,0,0-1,.66L43.29,43.36a4.16,4.16,0,0,1-3.13,2.28L27.5,47.48a1.16,1.16,0,0,0-.64,2L36,58.4a4.16,4.16,0,0,1,1.2,3.68L35.05,74.69a1.16,1.16,0,0,0,1.69,1.23l11.32-6a4.16,4.16,0,0,1,3.88,0l11.32,6A1.16,1.16,0,0,0,65,74.69l-2.16-12.6a4.2,4.2,0,0,1,1.2-3.7l9.15-8.92a1.16,1.16,0,0,0-.64-2L59.84,45.64a4.16,4.16,0,0,1-3.13-2.28L51.05,31.9A1.15,1.15,0,0,0,50,31.24Z"/></svg>