<svg id="iconos" xmlns="http://www.w3.org/2000/svg" viewBox="0 0 100 100"><path d="M58,79.5a4.91,4.91,0,0,1-2.42-.65l-.11-.06L26.24,58.93a7,7,0,0,1-3.19-5.59,7.45,7.45,0,0,1,2.38-6.13l.1-.08,27-19.42a5,5,0,0,1,3.24-1.21,5.53,5.53,0,0,1,4.82,3.17,7.76,7.76,0,0,1-1.52,9.23L59,39,46.79,47.85h25a5.15,5.15,0,0,1,0,10.3H48l12.44,8.37c2.73,1.57,3.94,5.42,2.77,8.79a6.16,6.16,0,0,1-3.52,3.87A5,5,0,0,1,58,79.5Zm-.91-3.24a1.88,1.88,0,0,0,1.57.12,3.22,3.22,0,0,0,1.76-2c.69-2,0-4.39-1.46-5.22l-.1-.07L42.26,57.9a1.5,1.5,0,0,1,.84-2.75H71.81a2.15,2.15,0,0,0,0-4.3H42.18a1.49,1.49,0,0,1-1.42-1,1.52,1.52,0,0,1,.54-1.68L57.18,36.58A4.77,4.77,0,0,0,58,31.07c-.8-1.53-2.34-2-3.51-1l-.1.07-27,19.42a4.48,4.48,0,0,0-1.28,3.61,4,4,0,0,0,1.72,3.21l.11.07Z"/></svg>