<svg id="iconos" xmlns="http://www.w3.org/2000/svg" viewBox="0 0 100 100"><path d="M66.14,38.13H42.62a1.78,1.78,0,0,1-1.72-1.82V23a1.85,1.85,0,0,1,1.8-1.89H66.06A1.84,1.84,0,0,1,67.86,23V36.31A1.78,1.78,0,0,1,66.14,38.13ZM42.7,22.1a.85.85,0,0,0-.8.89V36.31a.78.78,0,0,0,.72.82H66.14a.78.78,0,0,0,.72-.82V23a.85.85,0,0,0-.8-.89Z"/><ellipse cx="44.39" cy="24.7" rx="0.29" ry="0.32"/><ellipse cx="44.39" cy="26.03" rx="0.29" ry="0.32"/><ellipse cx="44.39" cy="27.37" rx="0.29" ry="0.32"/><ellipse cx="44.39" cy="28.71" rx="0.29" ry="0.32"/><ellipse cx="44.39" cy="30.04" rx="0.29" ry="0.32"/><ellipse cx="45.99" cy="24.7" rx="0.29" ry="0.32"/><ellipse cx="45.99" cy="26.03" rx="0.29" ry="0.32"/><ellipse cx="45.99" cy="27.37" rx="0.29" ry="0.32"/><ellipse cx="45.99" cy="28.71" rx="0.29" ry="0.32"/><ellipse cx="45.99" cy="30.04" rx="0.29" ry="0.32"/><ellipse cx="44.39" cy="31.38" rx="0.29" ry="0.32"/><ellipse cx="44.39" cy="32.72" rx="0.29" ry="0.32"/><ellipse cx="44.39" cy="34.05" rx="0.29" ry="0.32"/><rect x="47.3" y="24.38" width="3.07" height="0.63"/><rect x="50.78" y="24.38" width="4.76" height="0.63"/><rect x="47.3" y="25.72" width="2.18" height="0.63"/><rect x="55.96" y="25.72" width="2.18" height="0.63"/><rect x="58.64" y="25.72" width="0.79" height="0.63"/><rect x="49.88" y="25.72" width="5.66" height="0.63"/><rect x="47.3" y="27.06" width="3.48" height="0.63"/><rect x="56.83" y="27.06" width="1.31" height="0.63"/><rect x="51.18" y="27.06" width="5.22" height="0.63"/><rect x="48.79" y="32.4" width="3.48" height="0.63"/><rect x="58.33" y="32.4" width="1.31" height="0.63"/><rect x="52.68" y="32.4" width="5.22" height="0.63"/><rect x="50.78" y="33.74" width="5.22" height="0.63"/><rect x="47.3" y="28.39" width="2.93" height="0.63"/><rect x="48.76" y="31.07" width="3.62" height="0.63"/><rect x="50.64" y="28.39" width="5.04" height="0.63"/><rect x="47.3" y="29.73" width="4.36" height="0.63"/><path d="M80,45.5H34.45a1.5,1.5,0,0,1,0-3H80a1.5,1.5,0,0,1,0,3Z"/><path d="M27,45.5H20a1.5,1.5,0,0,1,0-3h7a1.5,1.5,0,0,1,0,3Z"/><path d="M49.49,63.39H33.42a7.93,7.93,0,0,1-7.92-7.92V35.36a1.5,1.5,0,0,1,1.5-1.5h7.45a1.5,1.5,0,0,1,1.5,1.5V55.47a4.92,4.92,0,0,0,4.92,4.92h8.62a1.5,1.5,0,0,1,0,3Zm-21-26.53V55.47a4.93,4.93,0,0,0,4.92,4.92h1.24A7.89,7.89,0,0,1,33,55.47V36.86Z"/><path d="M38.24,74.08a.51.51,0,0,1-.5-.5V61.89a.5.5,0,0,1,.5-.5.5.5,0,0,1,.5.5V73.58A.5.5,0,0,1,38.24,74.08Z"/><path d="M44.23,74.08h-12a.5.5,0,0,1-.5-.5.5.5,0,0,1,.5-.5h12a.5.5,0,0,1,.5.5A.5.5,0,0,1,44.23,74.08Z"/><path d="M22.91,71a.5.5,0,0,1-.5-.5V44a.5.5,0,0,1,.5-.5.51.51,0,0,1,.5.5V70.54A.5.5,0,0,1,22.91,71Z"/><path d="M77.09,71a.5.5,0,0,1-.5-.5V44a.51.51,0,0,1,.5-.5.5.5,0,0,1,.5.5V70.54A.5.5,0,0,1,77.09,71Z"/><path d="M49.83,44.5a.53.53,0,0,1-.4-.19.5.5,0,0,1,.1-.7c2.44-1.86,2.39-5.93,2.39-6a.49.49,0,0,1,.49-.51.51.51,0,0,1,.51.49c0,.18.06,4.61-2.79,6.78A.49.49,0,0,1,49.83,44.5Z"/><path d="M58.93,44.5a.49.49,0,0,1-.3-.1c-2.85-2.17-2.79-6.6-2.79-6.78a.52.52,0,0,1,.51-.49.49.49,0,0,1,.49.51s-.05,4.11,2.39,6a.5.5,0,0,1,.1.7A.53.53,0,0,1,58.93,44.5Z"/><path d="M44.69,63.39a1.24,1.24,0,0,1-.33,0,1.5,1.5,0,0,1-1.14-1.79l1.64-7.35a2.05,2.05,0,0,0-2-2.5H34.45a1.5,1.5,0,0,1,0-3h8.41a5.06,5.06,0,0,1,4.93,6.16l-1.64,7.35A1.49,1.49,0,0,1,44.69,63.39Z"/></svg>