<svg id="iconos" xmlns="http://www.w3.org/2000/svg" viewBox="0 0 100 100"><path d="M70.92,69.21a1.51,1.51,0,0,1-1.5-1.5V56.42a1.5,1.5,0,0,1,3,0V67.71A1.5,1.5,0,0,1,70.92,69.21Z"/><path d="M23.92,69.21a1.5,1.5,0,0,1-1.5-1.5V43a3.85,3.85,0,0,1,3.85-3.85H43.75a1.5,1.5,0,0,1,0,3H26.27a.85.85,0,0,0-.85.85V67.71A1.5,1.5,0,0,1,23.92,69.21Z"/><path d="M70.67,76H24.17a5.67,5.67,0,0,1-5.67-5.67V68a1.5,1.5,0,0,1,1.5-1.5h3.92a1.5,1.5,0,0,1,0,3H21.5v.78A2.68,2.68,0,0,0,24.17,73h46.5a2.68,2.68,0,0,0,2.67-2.67v-.78H70.92a1.5,1.5,0,0,1,0-3h3.92a1.5,1.5,0,0,1,1.5,1.5v2.28A5.67,5.67,0,0,1,70.67,76Z"/><path d="M67,65.64H27.23a.5.5,0,0,1-.5-.5V43.79a.5.5,0,0,1,.5-.5H43.75a.5.5,0,0,1,.5.5.51.51,0,0,1-.5.5h-16V64.64H66.51V56.42a.5.5,0,0,1,.5-.5.51.51,0,0,1,.5.5v8.72A.5.5,0,0,1,67,65.64Z"/><path d="M52.22,70.59h-9.6a2,2,0,0,1-2-2v-.07H23.92a.5.5,0,0,1-.5-.5.5.5,0,0,1,.5-.5H41.14a.51.51,0,0,1,.5.5v.57a1,1,0,0,0,1,1h9.6a1,1,0,0,0,1-1V68a.51.51,0,0,1,.5-.5H70.92a.5.5,0,0,1,.5.5.5.5,0,0,1-.5.5H54.2v.07A2,2,0,0,1,52.22,70.59Z"/><path d="M55.59,44.73a2.62,2.62,0,1,1,2.61-2.62A2.63,2.63,0,0,1,55.59,44.73Zm0-4.23a1.62,1.62,0,1,0,1.61,1.61A1.62,1.62,0,0,0,55.59,40.5Z"/><path d="M63.71,44.73a2.62,2.62,0,1,1,2.61-2.62A2.62,2.62,0,0,1,63.71,44.73Zm0-4.23a1.62,1.62,0,1,0,1.61,1.61A1.62,1.62,0,0,0,63.71,40.5Z"/><path d="M71.83,44.73a2.62,2.62,0,1,1,2.62-2.62A2.62,2.62,0,0,1,71.83,44.73Zm0-4.23a1.62,1.62,0,1,0,1.62,1.61A1.62,1.62,0,0,0,71.83,40.5Z"/><path d="M55.57,59.9a1.52,1.52,0,0,1-.75-.19,1.5,1.5,0,0,1-.75-1.31V54.22H51.82a5.91,5.91,0,0,1-5.9-5.9V35.91a5.91,5.91,0,0,1,5.9-5.9H75.6a5.91,5.91,0,0,1,5.9,5.9V48.32a5.91,5.91,0,0,1-5.9,5.9h-10L56.33,59.7A1.6,1.6,0,0,1,55.57,59.9ZM51.82,33a2.9,2.9,0,0,0-2.9,2.9V48.32a2.9,2.9,0,0,0,2.9,2.9h3.75a1.5,1.5,0,0,1,1.5,1.5v3.05l7.33-4.34a1.49,1.49,0,0,1,.77-.21H75.6a2.9,2.9,0,0,0,2.9-2.9V35.91A2.9,2.9,0,0,0,75.6,33Z"/></svg>