<svg id="iconos" xmlns="http://www.w3.org/2000/svg" viewBox="0 0 100 100"><path d="M65.76,75.23h-3c0-9.91,5.74-14.28,8.59-15.84L59.79,36.87,48.23,59.39c2.85,1.56,8.59,5.93,8.59,15.84h-3c0-10.71-7.8-13.61-8.13-13.73a1.48,1.48,0,0,1-.89-.86,1.53,1.53,0,0,1,.05-1.24L58.46,32.9a1.49,1.49,0,0,1,2.66,0L74.73,59.4a1.55,1.55,0,0,1,0,1.25,1.48,1.48,0,0,1-.9.85C73.56,61.62,65.76,64.52,65.76,75.23Z"/><path d="M71.15,82.5a.5.5,0,0,1-.5-.5V78a2.31,2.31,0,0,0-2.3-2.31H51.72A2.32,2.32,0,0,0,49.41,78v4a.5.5,0,0,1-.5.5.5.5,0,0,1-.5-.5V78a3.31,3.31,0,0,1,3.31-3.31H68.35A3.31,3.31,0,0,1,71.65,78v4A.5.5,0,0,1,71.15,82.5Z"/><path d="M59.79,53a.5.5,0,0,1-.5-.5V33.58a.5.5,0,0,1,1,0V52.51A.5.5,0,0,1,59.79,53Z"/><path d="M59.79,58.35A3.17,3.17,0,1,1,63,55.18,3.17,3.17,0,0,1,59.79,58.35Zm0-5.34A2.17,2.17,0,1,0,62,55.18,2.17,2.17,0,0,0,59.79,53Z"/><path d="M30.11,53.37h-.17a1.5,1.5,0,0,1-1.32-1.66A31.55,31.55,0,0,1,56.31,24a1.5,1.5,0,1,1,.33,3,28.54,28.54,0,0,0-25,25A1.51,1.51,0,0,1,30.11,53.37Z"/><path d="M59.79,29.5a.47.47,0,0,1-.35-.15l-3.5-3.5a.5.5,0,0,1,0-.71l3.5-3.49a.48.48,0,0,1,.7,0l3.5,3.49a.5.5,0,0,1,0,.71l-3.5,3.5A.47.47,0,0,1,59.79,29.5ZM57,25.5l2.79,2.79,2.79-2.79-2.79-2.79Z"/><path d="M30.11,59.18a.51.51,0,0,1-.36-.15l-3.49-3.5a.48.48,0,0,1,0-.7l3.49-3.5a.5.5,0,0,1,.71,0l3.5,3.5a.5.5,0,0,1,0,.7L30.46,59A.5.5,0,0,1,30.11,59.18Zm-2.79-4L30.11,58l2.79-2.79-2.79-2.79Z"/><path d="M30.11,27.79A2.29,2.29,0,1,1,32.4,25.5,2.29,2.29,0,0,1,30.11,27.79Zm0-3.58A1.29,1.29,0,1,0,31.4,25.5,1.29,1.29,0,0,0,30.11,24.21Z"/><path d="M56.29,26H31.9a.5.5,0,0,1-.5-.5.5.5,0,0,1,.5-.5H56.29a.5.5,0,0,1,.5.5A.5.5,0,0,1,56.29,26Z"/></svg>