<svg id="iconos" xmlns="http://www.w3.org/2000/svg" viewBox="0 0 100 100"><path d="M54.61,70.28A21.89,21.89,0,1,1,70.09,32.91c.49.49,1,1,1.39,1.53a1.5,1.5,0,1,1-2.31,1.92c-.38-.46-.78-.9-1.2-1.33a18.89,18.89,0,1,0,5.19,9.76A1.49,1.49,0,0,1,74.34,43a1.5,1.5,0,0,1,1.76,1.18A21.89,21.89,0,0,1,54.61,70.28Z"/><path d="M25,78.5a.47.47,0,0,1-.35-.15.48.48,0,0,1,0-.7L39.83,62.46a.5.5,0,1,1,.71.71L25.35,78.35A.47.47,0,0,1,25,78.5Z"/><path d="M25,79.5a1.51,1.51,0,0,1-1.06-.44,1.49,1.49,0,0,1,0-2.12l9.56-9.56a1.5,1.5,0,1,1,2.12,2.12l-9.56,9.56A1.51,1.51,0,0,1,25,79.5Z"/><path d="M59.63,61a.45.45,0,0,1-.3-.1l-8.76-6.57-5.22,3.27a.5.5,0,0,1-.69-.15.51.51,0,0,1,.16-.69l5.51-3.46a.51.51,0,0,1,.57,0l7.85,5.9L53,38.47a.51.51,0,0,1,.19-.55.53.53,0,0,1,.58,0l9.65,7.13L79.73,34.81a.5.5,0,1,1,.54.84L63.64,46.09a.5.5,0,0,1-.56,0L54.33,39.6l5.78,20.72a.53.53,0,0,1-.2.55A.51.51,0,0,1,59.63,61Z"/><path d="M77.36,40.94a.46.46,0,0,1-.23,0,.5.5,0,0,1-.22-.67l2.27-4.47-5,.09h0a.49.49,0,0,1-.5-.49.5.5,0,0,1,.49-.51L80,34.73a.52.52,0,0,1,.43.23.5.5,0,0,1,0,.5L77.8,40.67A.5.5,0,0,1,77.36,40.94Z"/></svg>