<svg id="iconos" xmlns="http://www.w3.org/2000/svg" viewBox="0 0 100 100"><path d="M77.5,70.93h-55a1.5,1.5,0,0,1-1.5-1.5V30.57a1.5,1.5,0,0,1,1.5-1.5h55a1.5,1.5,0,0,1,1.5,1.5V69.43A1.5,1.5,0,0,1,77.5,70.93Zm-53.5-3H76V32.07H24Z"/><path d="M50,55.51a.5.5,0,0,1-.33-.12L22.17,30.94a.5.5,0,0,1,0-.71.5.5,0,0,1,.7,0L50,54.34,77.17,30.19a.5.5,0,0,1,.7,0,.5.5,0,0,1,0,.71L50.33,55.39A.5.5,0,0,1,50,55.51Z"/><path d="M22.5,69.93a.47.47,0,0,1-.37-.16.5.5,0,0,1,0-.71L44,49.63a.5.5,0,1,1,.66.74L22.83,69.81A.5.5,0,0,1,22.5,69.93Z"/><path d="M77.5,69.93a.5.5,0,0,1-.33-.12L55.31,50.37a.5.5,0,1,1,.66-.74L77.83,69.06a.5.5,0,0,1,0,.71A.47.47,0,0,1,77.5,69.93Z"/></svg>