<svg id="iconos" xmlns="http://www.w3.org/2000/svg" viewBox="0 0 100 100"><path d="M44.21,79.5a5.53,5.53,0,0,1-4.82-3.17,7.76,7.76,0,0,1,1.52-9.23L41,67l12.21-8.88h-25a5.15,5.15,0,0,1,0-10.3H52L39.54,39.48c-2.73-1.57-3.94-5.42-2.77-8.79a6.16,6.16,0,0,1,3.52-3.87,4.85,4.85,0,0,1,4.15.33l.11.06L73.76,47.07A7,7,0,0,1,77,52.66a7.45,7.45,0,0,1-2.38,6.13l-.1.08-27,19.42A5,5,0,0,1,44.21,79.5ZM42.82,69.42a4.77,4.77,0,0,0-.77,5.51c.8,1.53,2.34,2,3.51,1l.1-.07,27-19.42A4.48,4.48,0,0,0,74,52.86a4,4,0,0,0-1.72-3.21l-.11-.07L42.93,29.74a1.88,1.88,0,0,0-1.57-.12,3.22,3.22,0,0,0-1.76,2.05c-.69,2,0,4.39,1.46,5.22l.1.07L57.74,48.1a1.5,1.5,0,0,1-.84,2.75H28.19a2.15,2.15,0,0,0,0,4.3H57.82a1.49,1.49,0,0,1,1.42,1,1.52,1.52,0,0,1-.54,1.68Z"/></svg>