<svg id="iconos" xmlns="http://www.w3.org/2000/svg" viewBox="0 0 100 100"><path d="M56.2,77.68H42.48a9,9,0,0,1-9-9V47.55a1.5,1.5,0,0,1,1.5-1.5H63.65a1.5,1.5,0,0,1,1.5,1.5V68.72A9,9,0,0,1,56.2,77.68ZM36.52,49.05V68.72a6,6,0,0,0,6,6H56.2a6,6,0,0,0,5.95-6V49.05Z"/><path d="M67.41,66.28H63.65a1.5,1.5,0,0,1-1.5-1.5V52.26a6.22,6.22,0,0,1,6.21-6.21,7,7,0,0,1,7,8.2l-1,6.2A7,7,0,0,1,67.41,66.28Zm-2.26-3h2.26A4,4,0,0,0,71.33,60l1-6.2a4.05,4.05,0,0,0-4-4.71,3.21,3.21,0,0,0-3.21,3.21Z"/><path d="M72.59,77.5H26.09a.5.5,0,0,1,0-1h46.5a.5.5,0,0,1,0,1Z"/><path d="M42.17,43.89a.54.54,0,0,1-.33-.12.5.5,0,0,1-.05-.7c.11-.12,2.52-3,0-7.63-2.93-5.23-.07-8.63,0-8.77a.5.5,0,1,1,.76.66c-.11.13-2.51,3,.06,7.62,2.93,5.24.06,8.63-.06,8.77A.52.52,0,0,1,42.17,43.89Z"/><path d="M47.51,43.89a.52.52,0,0,1-.33-.12.49.49,0,0,1,0-.7c.11-.12,2.52-3-.06-7.63-2.92-5.23-.06-8.63.06-8.77a.5.5,0,1,1,.76.66c-.11.13-2.51,3,.06,7.62,2.93,5.24.06,8.63-.06,8.77A.52.52,0,0,1,47.51,43.89Z"/><path d="M52.85,43.89a.52.52,0,0,1-.33-.12.49.49,0,0,1-.05-.7c.1-.12,2.52-3-.06-7.63-2.93-5.23-.06-8.63.06-8.77a.51.51,0,0,1,.71-.05.51.51,0,0,1,0,.71c-.11.13-2.51,3,.06,7.62,2.92,5.24.06,8.63-.06,8.77A.52.52,0,0,1,52.85,43.89Z"/><path d="M49.34,66a.5.5,0,0,1-.28-.91,2.49,2.49,0,0,0,1-1.6A3,3,0,0,0,49,61.2a3.92,3.92,0,0,1-1.37-3.13,3.46,3.46,0,0,1,1.45-2.32.5.5,0,1,1,.56.83,2.47,2.47,0,0,0-1,1.6A3,3,0,0,0,49.7,60.5a3.94,3.94,0,0,1,1.36,3.13A3.38,3.38,0,0,1,49.61,66,.45.45,0,0,1,49.34,66Z"/><path d="M49.34,66c-2,0-3.7-2.32-3.7-5.18s1.66-5.18,3.7-5.18S53,58,53,60.85,51.38,66,49.34,66Zm0-9.36c-1.46,0-2.7,1.91-2.7,4.18S47.88,65,49.34,65,52,63.12,52,60.85,50.8,56.67,49.34,56.67Z"/></svg>