<svg id="iconos" xmlns="http://www.w3.org/2000/svg" viewBox="0 0 100 100"><path d="M46.51,56.33a1.41,1.41,0,0,1-.77-.22A1.47,1.47,0,0,1,45,54.83V49.08a1.51,1.51,0,0,1,.69-1.27,1.48,1.48,0,0,1,1.44-.09l5.75,2.68A1.49,1.49,0,0,1,53,53.08l-5.75,3.07A1.46,1.46,0,0,1,46.51,56.33Zm0-7.75a.43.43,0,0,0-.27.08.47.47,0,0,0-.23.42v5.75a.48.48,0,0,0,.24.42.47.47,0,0,0,.49,0l5.75-3.07a.49.49,0,0,0,0-.89l-5.75-2.69A.52.52,0,0,0,46.51,48.58Z"/><path d="M22.4,38.9a.49.49,0,0,1-.5-.45l-.24-2.86a.52.52,0,0,1,.11-.36.48.48,0,0,1,.34-.18l4-.34a.51.51,0,0,1,.54.46L26.86,38a.53.53,0,0,1-.11.37.51.51,0,0,1-.34.17l-4,.34Zm.3-2.9.16,1.86,3-.25-.15-1.86Z"/><path d="M22.89,44.66a.51.51,0,0,1-.5-.46l-.24-2.85a.49.49,0,0,1,.12-.37.47.47,0,0,1,.33-.17l4-.34a.5.5,0,0,1,.54.45l.24,2.86a.47.47,0,0,1-.11.36.48.48,0,0,1-.34.18l-4,.34Zm.3-2.9.16,1.86,3-.25-.16-1.86Z"/><path d="M23.38,50.42a.5.5,0,0,1-.49-.46l-.25-2.86a.48.48,0,0,1,.12-.36.45.45,0,0,1,.34-.18l4-.34a.5.5,0,0,1,.54.46l.25,2.85a.5.5,0,0,1-.46.54l-4,.34Zm.3-2.91.16,1.86,3-.25-.16-1.86Z"/><path d="M23.87,56.17a.5.5,0,0,1-.49-.46l-.25-2.85a.5.5,0,0,1,.46-.54l4-.34a.49.49,0,0,1,.54.45l.25,2.86a.48.48,0,0,1-.12.36.46.46,0,0,1-.34.18l-4,.34Zm.3-2.9.16,1.86,3-.25L27.14,53Z"/><path d="M24.37,61.93a.5.5,0,0,1-.33-.12.51.51,0,0,1-.17-.34l-.25-2.86a.52.52,0,0,1,.46-.54l4-.34a.48.48,0,0,1,.36.12.54.54,0,0,1,.18.34L28.83,61a.51.51,0,0,1-.46.55l-4,.33Zm.29-2.9.16,1.86,3-.26-.16-1.86Z"/><path d="M24.86,67.68a.47.47,0,0,1-.32-.12.45.45,0,0,1-.18-.34l-.24-2.85a.49.49,0,0,1,.45-.54l4-.34a.51.51,0,0,1,.54.45l.24,2.86a.56.56,0,0,1-.11.37.51.51,0,0,1-.34.17l-4,.34Zm.3-2.9.15,1.86,3-.25-.16-1.86Z"/><path d="M25.35,73.44a.5.5,0,0,1-.5-.46l-.24-2.86a.5.5,0,0,1,.45-.54l4-.34a.5.5,0,0,1,.54.46l.24,2.86a.5.5,0,0,1-.45.54l-4,.34Zm.3-2.9.16,1.86,3-.26-.15-1.86Z"/><path d="M70.93,34.76a.5.5,0,0,1-.5-.46l-.24-2.86a.47.47,0,0,1,.11-.36.52.52,0,0,1,.34-.18l4-.34a.51.51,0,0,1,.54.46l.24,2.86a.5.5,0,0,1-.45.54l-4,.34Zm.3-2.9.15,1.86,3-.26-.16-1.86Z"/><path d="M71.42,40.51a.5.5,0,0,1-.5-.45l-.24-2.86a.56.56,0,0,1,.11-.37.51.51,0,0,1,.34-.17l4-.34a.5.5,0,0,1,.54.46l.24,2.85a.5.5,0,0,1-.11.37.51.51,0,0,1-.34.17l-4,.34Zm.3-2.9.16,1.86,3-.25-.15-1.86Z"/><path d="M71.91,46.27a.51.51,0,0,1-.5-.46L71.17,43a.49.49,0,0,1,.12-.37.48.48,0,0,1,.33-.18l4-.33a.49.49,0,0,1,.54.45l.25,2.86a.51.51,0,0,1-.46.54l-4,.34Zm.3-2.9.16,1.86,3-.26-.16-1.86Z"/><path d="M72.4,52a.49.49,0,0,1-.49-.45l-.25-2.86a.48.48,0,0,1,.12-.36.46.46,0,0,1,.34-.18l4-.34a.5.5,0,0,1,.54.46l.25,2.85a.5.5,0,0,1-.46.54l-4,.34Zm.3-2.9L72.86,51l3-.25-.16-1.86Z"/><path d="M72.89,57.78a.5.5,0,0,1-.49-.46l-.25-2.85a.5.5,0,0,1,.46-.54l4-.34a.5.5,0,0,1,.54.45l.25,2.86a.48.48,0,0,1-.12.36.45.45,0,0,1-.34.18l-4,.34Zm.3-2.9.16,1.86,3-.25-.16-1.86Z"/><path d="M73.39,63.54a.5.5,0,0,1-.5-.46l-.24-2.86a.47.47,0,0,1,.11-.36.48.48,0,0,1,.34-.18l4-.34a.51.51,0,0,1,.54.46l.24,2.85a.53.53,0,0,1-.11.37.51.51,0,0,1-.34.17l-4,.34Zm.29-2.91.16,1.86,3-.25-.16-1.86Z"/><path d="M73.88,69.29a.47.47,0,0,1-.32-.12.48.48,0,0,1-.18-.34L73.14,66a.49.49,0,0,1,.45-.54l4-.34a.51.51,0,0,1,.54.45l.24,2.86a.52.52,0,0,1-.11.36.48.48,0,0,1-.34.18l-4,.34Zm.3-2.9.15,1.86,3-.25-.16-1.86Z"/><path d="M39.69,64.4a2.2,2.2,0,0,1-2.19-2L35.92,43.88a2.2,2.2,0,0,1,2-2.38l22.21-1.89a2.18,2.18,0,0,1,2.37,2l1.58,18.52a2.21,2.21,0,0,1-2,2.38L39.87,64.39h-.18Zm.14-.5h0ZM60.31,40.6h-.1L38,42.5a1.19,1.19,0,0,0-1.08,1.29L38.5,62.31a1.19,1.19,0,0,0,1.29,1.09L62,61.5a1.24,1.24,0,0,0,.81-.42,1.18,1.18,0,0,0,.27-.87L61.5,41.69A1.2,1.2,0,0,0,60.31,40.6Z"/><path d="M70.06,67.61a.5.5,0,0,1-.49-.46L66.72,33.82a.5.5,0,0,1,.45-.54.5.5,0,0,1,.54.45l2.85,33.33a.49.49,0,0,1-.45.54Z"/><path d="M32.79,70.79a.5.5,0,0,1-.5-.46L29.44,36.94a.49.49,0,0,1,.45-.54.5.5,0,0,1,.54.45l2.86,33.4a.51.51,0,0,1-.46.54Z"/><path d="M22,77.78a1.48,1.48,0,0,1-1-.35,1.47,1.47,0,0,1-.53-1L16.76,33a1.5,1.5,0,0,1,1.36-1.62l11.26-1A1.51,1.51,0,0,1,31,31.74l.31,3.64,34.28-3-.3-3.6a1.5,1.5,0,0,1,1.36-1.63l11.26-1a1.48,1.48,0,0,1,1.09.35,1.51,1.51,0,0,1,.53,1l3.71,43.46a1.5,1.5,0,0,1-1.36,1.62l-11.26,1A1.51,1.51,0,0,1,69,72.26l-.3-3.53-34.28,3,.29,3.48a1.5,1.5,0,0,1-1.36,1.63l-11.26,1Zm-2.1-43.59,3.46,40.47L31.6,74l-.3-3.48a1.49,1.49,0,0,1,1.36-1.62l37.27-3.24A1.51,1.51,0,0,1,71.56,67l.3,3.53,8.27-.7L76.67,29.34l-8.27.71.31,3.6a1.5,1.5,0,0,1-1.36,1.62L30.07,38.5A1.5,1.5,0,0,1,29,38.15a1.45,1.45,0,0,1-.53-1l-.31-3.64Z"/></svg>