<svg id="iconos" xmlns="http://www.w3.org/2000/svg" viewBox="0 0 100 100"><path d="M62.9,72.8H29.4a1.5,1.5,0,0,1-1.5-1.5V41.35a1.5,1.5,0,0,1,1.5-1.5H62.9a1.5,1.5,0,0,1,1.5,1.5V71.3A1.5,1.5,0,0,1,62.9,72.8Zm-32-3H61.4V42.85H30.9Z"/><path d="M72.11,68.62a1.44,1.44,0,0,1-.8-.24l-9.22-5.86a1.49,1.49,0,0,1-.69-1.26V51.4a1.52,1.52,0,0,1,.69-1.27l9.22-5.85a1.46,1.46,0,0,1,1.52-.05,1.49,1.49,0,0,1,.78,1.31V67.12a1.49,1.49,0,0,1-.78,1.31A1.41,1.41,0,0,1,72.11,68.62ZM64.4,60.43l6.21,4V48.27L64.4,52.22Z"/><path d="M37.57,41.85A10.18,10.18,0,1,1,47.74,31.68,10.18,10.18,0,0,1,37.57,41.85Zm0-19.35a9.18,9.18,0,1,0,9.17,9.18A9.19,9.19,0,0,0,37.57,22.5Z"/><path d="M55.53,41.85A7.87,7.87,0,1,1,63.4,34,7.88,7.88,0,0,1,55.53,41.85Zm0-14.74A6.87,6.87,0,1,0,62.4,34,6.88,6.88,0,0,0,55.53,27.11Z"/><path d="M56.85,82.5a.51.51,0,0,1-.36-.15L46.15,72,35.81,82.35a.5.5,0,0,1-.71,0,.5.5,0,0,1,0-.7L45.8,71a.5.5,0,0,1,.7,0l10.7,10.7a.5.5,0,0,1-.35.85Z"/><path d="M54.94,66H29.4a.51.51,0,0,1-.5-.5.5.5,0,0,1,.5-.5H54.94a.5.5,0,0,1,.5.5A.5.5,0,0,1,54.94,66Z"/></svg>