<svg id="iconos" xmlns="http://www.w3.org/2000/svg" viewBox="0 0 100 100"><path d="M44.07,54.5a1.5,1.5,0,0,1-.34-3L57.4,48.43a1.5,1.5,0,0,1,.66,2.93L44.4,54.46A1.24,1.24,0,0,1,44.07,54.5Z"/><path d="M63.67,55.61a1.53,1.53,0,0,1-.87-.28l-5.94-4.21a1.51,1.51,0,0,1-.44-1.95L60,42.8a1.5,1.5,0,0,1,1-.74l16.33-3.71a1.48,1.48,0,0,1,1.53.56,1.51,1.51,0,0,1,.12,1.63L76,45.73l4.85,3.44a1.5,1.5,0,0,1-.54,2.69L64,55.57A1.24,1.24,0,0,1,63.67,55.61Zm-4-6.16,4.3,3L76.4,49.68,73.19,47.4a1.5,1.5,0,0,1-.44-1.95L74.65,42l-12.4,2.82Z"/><path d="M44.05,62.39a9.37,9.37,0,0,1-9.14-7.31,9.39,9.39,0,0,1,15.68-8.84.5.5,0,0,1,0,.71.51.51,0,0,1-.71,0,8.36,8.36,0,0,0-7.68-2.14,8.39,8.39,0,1,0,3.72,16.36,8.37,8.37,0,0,0,6-5.25.5.5,0,1,1,.94.35,9.37,9.37,0,0,1-8.82,6.11Z"/><path d="M44,69.77A16.77,16.77,0,1,1,55.9,41.12a.5.5,0,0,1,0,.71.5.5,0,0,1-.71,0,15.77,15.77,0,1,0,3.73,16.42.5.5,0,0,1,.64-.3.49.49,0,0,1,.3.64A16.71,16.71,0,0,1,47.79,69.35,17.18,17.18,0,0,1,44,69.77Z"/><path d="M44,78.57A25.57,25.57,0,1,1,62.23,35a1.5,1.5,0,1,1-2.13,2.11,22.56,22.56,0,1,0,5.29,23.26,1.5,1.5,0,0,1,2.84,1A25.44,25.44,0,0,1,49.74,77.93,25.92,25.92,0,0,1,44,78.57Z"/></svg>