<svg id="iconos" xmlns="http://www.w3.org/2000/svg" viewBox="0 0 100 100"><path d="M69.07,38.38A6.39,6.39,0,1,1,75.46,32,6.4,6.4,0,0,1,69.07,38.38Zm0-9.77A3.39,3.39,0,1,0,72.46,32,3.38,3.38,0,0,0,69.07,28.61Z"/><path d="M69.07,77a.5.5,0,0,1-.5-.5V67.21a.5.5,0,0,1,.5-.5.5.5,0,0,1,.5.5v9.24A.5.5,0,0,1,69.07,77Z"/><path d="M62.76,57.39a.5.5,0,0,1-.5-.5V46.42a.5.5,0,0,1,1,0V56.89A.5.5,0,0,1,62.76,57.39Z"/><path d="M75.37,57.39a.5.5,0,0,1-.5-.5V46.42a.5.5,0,0,1,1,0V56.89A.5.5,0,0,1,75.37,57.39Z"/><path d="M33.33,78.39H28.54a3.62,3.62,0,0,1-3.61-3.26L23.27,58.39h-.81a4,4,0,0,1-4-4V46.75a7.37,7.37,0,0,1,7.37-7.37H36a7.37,7.37,0,0,1,7.36,7.37v7.68a4,4,0,0,1-4,4H38.6L36.94,75.12A3.62,3.62,0,0,1,33.33,78.39Zm-7.46-36a4.37,4.37,0,0,0-4.37,4.37v7.68a1,1,0,0,0,1,1h2.17a1.5,1.5,0,0,1,1.49,1.35l1.79,18.09a.62.62,0,0,0,.63.56h4.79a.62.62,0,0,0,.62-.57l1.8-18.08a1.49,1.49,0,0,1,1.49-1.35h2.17a1,1,0,0,0,1-1V46.75A4.37,4.37,0,0,0,36,42.38Z"/><path d="M30.93,38.38A6.39,6.39,0,1,1,37.32,32,6.4,6.4,0,0,1,30.93,38.38Zm0-9.77A3.39,3.39,0,1,0,34.32,32,3.38,3.38,0,0,0,30.93,28.61Z"/><path d="M30.93,77a.5.5,0,0,1-.5-.5V62.56a.5.5,0,0,1,.5-.5.5.5,0,0,1,.5.5V76.45A.5.5,0,0,1,30.93,77Z"/><path d="M24.63,57.39a.5.5,0,0,1-.5-.5V46.42a.5.5,0,0,1,.5-.5.5.5,0,0,1,.5.5V56.89A.51.51,0,0,1,24.63,57.39Z"/><path d="M37.23,57.39a.51.51,0,0,1-.5-.5V46.42a.5.5,0,0,1,.5-.5.5.5,0,0,1,.5.5V56.89A.5.5,0,0,1,37.23,57.39Z"/><path d="M71.46,78.39H66.67a3.62,3.62,0,0,1-3.61-3.26l-.67-6.78h-2A1.5,1.5,0,0,1,58.9,66.5l2-8.11h-.27a4,4,0,0,1-4-4V46.75A7.37,7.37,0,0,1,64,39.38H74.13a7.38,7.38,0,0,1,7.37,7.37v7.68a4,4,0,0,1-4,4h-.27l2,8.11A1.54,1.54,0,0,1,79,67.78a1.51,1.51,0,0,1-1.18.57h-2l-.68,6.77A3.62,3.62,0,0,1,71.46,78.39Zm-9.2-13h1.49a1.5,1.5,0,0,1,1.49,1.35l.81,8.13a.62.62,0,0,0,.62.56h4.79a.62.62,0,0,0,.63-.57l.81-8.12a1.49,1.49,0,0,1,1.49-1.35h1.47l-1.94-8.09a1.34,1.34,0,0,1,0-.35,1.52,1.52,0,0,1,1.5-1.52h2.17a1,1,0,0,0,1-1V46.75a4.37,4.37,0,0,0-4.37-4.37H64a4.37,4.37,0,0,0-4.36,4.37v7.68a1,1,0,0,0,1,1h2.17a1.5,1.5,0,0,1,1.46,1.85Z"/><path d="M50,81.92a.5.5,0,0,1-.5-.5V22.58a.5.5,0,0,1,1,0V81.42A.5.5,0,0,1,50,81.92Z"/></svg>