<svg id="iconos" xmlns="http://www.w3.org/2000/svg" viewBox="0 0 100 100"><path d="M67.2,42.16H32.8a4.31,4.31,0,0,1-4.3-4.3V35.8a4.31,4.31,0,0,1,4.3-4.3H67.2a4.31,4.31,0,0,1,4.3,4.3v2.06A4.31,4.31,0,0,1,67.2,42.16ZM32.8,34.5a1.3,1.3,0,0,0-1.3,1.3v2.06a1.3,1.3,0,0,0,1.3,1.3H67.2a1.3,1.3,0,0,0,1.3-1.3V35.8a1.3,1.3,0,0,0-1.3-1.3Z"/><path d="M67.2,58.33H32.8A4.31,4.31,0,0,1,28.5,54V52a4.31,4.31,0,0,1,4.3-4.3H67.2A4.31,4.31,0,0,1,71.5,52V54A4.31,4.31,0,0,1,67.2,58.33ZM32.8,50.67A1.3,1.3,0,0,0,31.5,52V54a1.3,1.3,0,0,0,1.3,1.3H67.2A1.3,1.3,0,0,0,68.5,54V52a1.3,1.3,0,0,0-1.3-1.3Z"/><path d="M67.2,74.5H32.8a4.31,4.31,0,0,1-4.3-4.3V68.14a4.31,4.31,0,0,1,4.3-4.3H67.2a4.31,4.31,0,0,1,4.3,4.3V70.2A4.31,4.31,0,0,1,67.2,74.5ZM32.8,66.84a1.3,1.3,0,0,0-1.3,1.3V70.2a1.3,1.3,0,0,0,1.3,1.3H67.2a1.3,1.3,0,0,0,1.3-1.3V68.14a1.3,1.3,0,0,0-1.3-1.3Z"/></svg>