<svg id="iconos" xmlns="http://www.w3.org/2000/svg" viewBox="0 0 100 100"><path d="M52.81,84.5H47.19a1.5,1.5,0,0,1-1.47-1.2L44,75.15a23.16,23.16,0,0,1-5.47-2.27l-7,4.57a1.49,1.49,0,0,1-1.89-.19l-4-4a1.49,1.49,0,0,1-.2-1.88l4.58-7A22.26,22.26,0,0,1,27.85,59L19.7,57.28a1.5,1.5,0,0,1-1.2-1.47V50.19a1.49,1.49,0,0,1,1.2-1.47L27.85,47a23.16,23.16,0,0,1,2.27-5.47l-4.58-7a1.5,1.5,0,0,1,.2-1.89l4-4a1.5,1.5,0,0,1,1.89-.2l7,4.58A23.16,23.16,0,0,1,44,30.85l1.69-8.15a1.5,1.5,0,0,1,1.47-1.2h5.62a1.5,1.5,0,0,1,1.47,1.2L56,30.85a23.16,23.16,0,0,1,5.47,2.27l7-4.58a1.5,1.5,0,0,1,1.89.2l4,4a1.5,1.5,0,0,1,.2,1.89l-4.58,7A23.16,23.16,0,0,1,72.15,47l8.15,1.69a1.49,1.49,0,0,1,1.2,1.47v5.62a1.5,1.5,0,0,1-1.2,1.47L72.15,59a22.65,22.65,0,0,1-2.27,5.48l4.58,7a1.49,1.49,0,0,1-.2,1.88l-4,4a1.5,1.5,0,0,1-1.89.19l-7-4.57A23.16,23.16,0,0,1,56,75.15L54.28,83.3A1.5,1.5,0,0,1,52.81,84.5Zm-4.4-3h3.18l1.62-7.86a1.5,1.5,0,0,1,1.15-1.18,19.64,19.64,0,0,0,6.31-2.62,1.51,1.51,0,0,1,1.68,0L69,74.28,71.28,72l-4.41-6.71a1.5,1.5,0,0,1,0-1.65,19.64,19.64,0,0,0,2.62-6.31,1.49,1.49,0,0,1,1.21-1.15l7.83-1.62V51.41l-7.86-1.62a1.51,1.51,0,0,1-1.18-1.15,19.64,19.64,0,0,0-2.62-6.31,1.51,1.51,0,0,1,0-1.69L71.28,34,69,31.72l-6.7,4.41a1.54,1.54,0,0,1-1.66,0,20.1,20.1,0,0,0-6.31-2.62,1.49,1.49,0,0,1-1.15-1.21L51.59,24.5H48.41l-1.62,7.86a1.5,1.5,0,0,1-1.15,1.18,20.1,20.1,0,0,0-6.31,2.62,1.49,1.49,0,0,1-1.67,0L31,31.72,28.72,34l4.41,6.7a1.52,1.52,0,0,1,0,1.66,19.64,19.64,0,0,0-2.62,6.31,1.49,1.49,0,0,1-1.22,1.15L21.5,51.41v3.18l7.86,1.62a1.5,1.5,0,0,1,1.18,1.15,19.64,19.64,0,0,0,2.62,6.31,1.53,1.53,0,0,1,0,1.69L28.72,72,31,74.28l6.7-4.41a1.52,1.52,0,0,1,1.66,0,19.64,19.64,0,0,0,6.31,2.62,1.49,1.49,0,0,1,1.15,1.21Z"/><path d="M50,66.92A13.92,13.92,0,1,1,63.92,53,13.93,13.93,0,0,1,50,66.92Zm0-26.84A12.92,12.92,0,1,0,62.92,53,12.93,12.93,0,0,0,50,40.08Z"/></svg>