<svg id="iconos" xmlns="http://www.w3.org/2000/svg" viewBox="0 0 100 100"><path d="M62.45,84.5H46.33a1.5,1.5,0,0,1-1.5-1.5v-1a1.52,1.52,0,0,1,.75-1.31,5.77,5.77,0,1,0-8.63-5,5.78,5.78,0,0,0,2.92,5,1.51,1.51,0,0,1,.76,1.31v1a1.5,1.5,0,0,1-1.5,1.5H23A4.51,4.51,0,0,1,18.5,80V63.87a1.5,1.5,0,0,1,1.5-1.5H21a1.51,1.51,0,0,1,1.31.76,5.77,5.77,0,1,0,9.14-6.9,5.77,5.77,0,0,0-9.14,1.19,1.52,1.52,0,0,1-1.31.75H20a1.5,1.5,0,0,1-1.5-1.5V40.55a4.5,4.5,0,0,1,4.5-4.5H36.11A8.81,8.81,0,0,1,42.54,21.5,8.85,8.85,0,0,1,48.86,24a8.77,8.77,0,0,1,.47,12H62.45a4.49,4.49,0,0,1,4.5,4.5V53.67A8.75,8.75,0,0,1,78.75,66.6a8.73,8.73,0,0,1-11.8.29V80A4.5,4.5,0,0,1,62.45,84.5Zm-13.11-3H62.45A1.5,1.5,0,0,0,64,80V63.87a1.5,1.5,0,0,1,1.5-1.5h1a1.48,1.48,0,0,1,1.3.76A5.79,5.79,0,0,0,78.5,60.4h0a5.77,5.77,0,0,0-5.77-5.9,5.8,5.8,0,0,0-5,2.92,1.5,1.5,0,0,1-1.3.75h-1a1.5,1.5,0,0,1-1.5-1.5V40.55a1.5,1.5,0,0,0-1.5-1.5H46.33a1.5,1.5,0,0,1-1.5-1.5v-1a1.5,1.5,0,0,1,.75-1.3,5.77,5.77,0,0,0,1.19-9.14,5.77,5.77,0,1,0-6.9,9.14,1.48,1.48,0,0,1,.76,1.3v1a1.5,1.5,0,0,1-1.5,1.5H23a1.5,1.5,0,0,0-1.5,1.5V53.67a8.76,8.76,0,0,1,12,.47,8.78,8.78,0,0,1-12,12.75V80A1.5,1.5,0,0,0,23,81.5H36.13A8.77,8.77,0,0,1,42.92,67a8.88,8.88,0,0,1,8.58,9A8.73,8.73,0,0,1,49.34,81.5Z"/></svg>