<svg id="iconos" xmlns="http://www.w3.org/2000/svg" viewBox="0 0 100 100"><path d="M25.94,51.26a2,2,0,1,1,2-2A2,2,0,0,1,25.94,51.26Zm0-3a1,1,0,1,0,1,1A1,1,0,0,0,25.94,48.21Z"/><path d="M64.94,46.19H64.7a267,267,0,0,0-29.4,0h-.16A1.59,1.59,0,0,1,34,45.78a1.55,1.55,0,0,1-.46-1.1,16.44,16.44,0,0,1,32.88,0,1.55,1.55,0,0,1-.46,1.1A1.53,1.53,0,0,1,64.94,46.19ZM50,42.78q6.69,0,13.35.32a13.45,13.45,0,0,0-26.7,0C41.08,42.88,45.54,42.78,50,42.78Z"/><path d="M50,55.7c-4,0-7.9-.09-11.82-.26l-3-.15-11.49-.62a5.44,5.44,0,0,1,0-10.87l11.5-.62a272.82,272.82,0,0,1,29.72,0l11.5.62a5.44,5.44,0,0,1,0,10.87l-11.5.62c-1,.06-2,.11-3,.15C57.9,55.61,54,55.7,50,55.7Zm0-9.92c-4.91,0-9.82.13-14.7.4l-11.5.62a2.44,2.44,0,0,0,0,4.88l11.49.62,3,.14c7.76.35,15.62.35,23.38,0l3-.14,11.51-.62a2.44,2.44,0,0,0,0-4.88L64.7,46.18C59.82,45.91,54.91,45.78,50,45.78Z"/><path d="M33.7,51.26a2,2,0,1,1,2-2A2,2,0,0,1,33.7,51.26Zm0-3a1,1,0,1,0,1,1A1,1,0,0,0,33.7,48.21Z"/><path d="M41.47,51.26a2,2,0,1,1,2-2A2,2,0,0,1,41.47,51.26Zm0-3a1,1,0,1,0,1,1A1,1,0,0,0,41.47,48.21Z"/><path d="M49.23,51.26a2,2,0,1,1,2-2A2,2,0,0,1,49.23,51.26Zm0-3a1,1,0,1,0,1,1A1,1,0,0,0,49.23,48.21Z"/><path d="M57,51.26a2,2,0,1,1,2-2A2,2,0,0,1,57,51.26Zm0-3a1,1,0,1,0,1,1A1,1,0,0,0,57,48.21Z"/><path d="M64.76,51.26a2,2,0,1,1,2-2A2,2,0,0,1,64.76,51.26Zm0-3a1,1,0,1,0,1,1A1,1,0,0,0,64.76,48.21Z"/><path d="M72.53,51.26a2,2,0,1,1,2-2A2,2,0,0,1,72.53,51.26Zm0-3a1,1,0,1,0,1,1A1,1,0,0,0,72.53,48.21Z"/><path d="M65.18,83.74a.5.5,0,0,1-.48-.37L57,54.2a.5.5,0,0,1,.36-.61.5.5,0,0,1,.61.35l7.73,29.17a.5.5,0,0,1-.36.61Z"/><path d="M34.82,83.74l-.13,0a.5.5,0,0,1-.36-.61L42.05,54a.49.49,0,0,1,.61-.35.5.5,0,0,1,.36.61L35.3,83.37A.5.5,0,0,1,34.82,83.74Z"/></svg>