<svg id="iconos" xmlns="http://www.w3.org/2000/svg" viewBox="0 0 100 100"><path d="M47.9,69.38A20.72,20.72,0,1,1,67.09,40.81,1.5,1.5,0,1,1,64.32,42a17.73,17.73,0,0,0-28.94-5.83A17.72,17.72,0,1,0,64,56.1a1.5,1.5,0,0,1,2.72,1.26,20.71,20.71,0,0,1-18.81,12Z"/><path d="M20,77.06a.5.5,0,0,1-.35-.85L34,61.89a.5.5,0,0,1,.71.71L20.35,76.92A.5.5,0,0,1,20,77.06Z"/><path d="M20,78.06a1.47,1.47,0,0,1-1.06-.44,1.49,1.49,0,0,1,0-2.12l9-9a1.5,1.5,0,0,1,2.12,2.12l-9,9A1.47,1.47,0,0,1,20,78.06Z"/><path d="M43.07,53.36a1.07,1.07,0,0,1-.2.38.79.79,0,0,1-.59.25.78.78,0,0,1-.57-.25,1,1,0,0,1-.21-.42L39.09,45a1.09,1.09,0,0,1,0-.25.75.75,0,0,1,.24-.57.78.78,0,0,1,.57-.24.85.85,0,0,1,.58.23,1,1,0,0,1,.19.31l1.66,5.87L44,44.51a.82.82,0,0,1,1.36-.39.75.75,0,0,1,.19.31l1.67,5.87,1.66-5.8a.78.78,0,0,1,.22-.38.81.81,0,0,1,.57-.23.74.74,0,0,1,.56.24.77.77,0,0,1,.22.57.92.92,0,0,1,0,.29L48,53.36a1.07,1.07,0,0,1-.2.38.81.81,0,0,1-.59.25.77.77,0,0,1-.57-.25,1,1,0,0,1-.22-.42L44.73,47.6Z"/><path d="M55.85,53.36a1,1,0,0,1-.21.38.77.77,0,0,1-.58.25.79.79,0,0,1-.58-.25,1,1,0,0,1-.21-.42L51.87,45a.73.73,0,0,1,0-.25.8.8,0,0,1,.8-.81.82.82,0,0,1,.58.23.87.87,0,0,1,.19.31l1.67,5.87,1.65-5.79a.83.83,0,0,1,.23-.39.77.77,0,0,1,.56-.23.83.83,0,0,1,.58.23.87.87,0,0,1,.19.31L60,50.3l1.65-5.8a.78.78,0,0,1,.22-.38.83.83,0,0,1,.57-.23.71.71,0,0,1,.56.24.78.78,0,0,1,.23.57,1.35,1.35,0,0,1,0,.29l-2.42,8.37a.93.93,0,0,1-.2.38.79.79,0,0,1-.59.25.78.78,0,0,1-.57-.25,1,1,0,0,1-.21-.42L57.5,47.6Z"/><path d="M68.62,53.36a1.07,1.07,0,0,1-.2.38.81.81,0,0,1-.59.25.78.78,0,0,1-.57-.25.93.93,0,0,1-.21-.42L64.64,45a.73.73,0,0,1,0-.25.75.75,0,0,1,.24-.57.78.78,0,0,1,.57-.24.81.81,0,0,1,.57.23.91.91,0,0,1,.2.31l1.66,5.87,1.66-5.79a.81.81,0,0,1,.22-.39.79.79,0,0,1,.57-.23.81.81,0,0,1,.57.23.75.75,0,0,1,.19.31l1.67,5.87,1.66-5.8a.71.71,0,0,1,.22-.38.8.8,0,0,1,.56-.23.75.75,0,0,1,.57.24.77.77,0,0,1,.22.57.92.92,0,0,1,0,.29L73.5,53.36a1.07,1.07,0,0,1-.2.38.81.81,0,0,1-.59.25.79.79,0,0,1-.58-.25,1,1,0,0,1-.21-.42L70.28,47.6Z"/><path d="M79.7,52.26a1,1,0,0,1,0,1.43,1,1,0,0,1-1.42,0,1,1,0,0,1,0-1.43,1,1,0,0,1,1.42,0Z"/></svg>