<svg id="iconos" xmlns="http://www.w3.org/2000/svg" viewBox="0 0 100 100"><path d="M44.92,71.83a1.42,1.42,0,0,1-.77-.21,1.5,1.5,0,0,1-.52-2.06L62.32,38.41A1.5,1.5,0,1,1,64.89,40L46.2,71.11A1.47,1.47,0,0,1,44.92,71.83Z"/><path d="M34.2,65.41a1.43,1.43,0,0,1-.77-.22,1.5,1.5,0,0,1-.52-2.06L51.6,32a1.5,1.5,0,1,1,2.57,1.54L35.48,64.68A1.48,1.48,0,0,1,34.2,65.41Z"/><path d="M44.92,70.83a.48.48,0,0,1-.26-.07L33.94,64.33a.49.49,0,0,1-.17-.68.48.48,0,0,1,.68-.17l10.72,6.43a.49.49,0,0,1-.25.92Z"/><path d="M32.73,80.07a1.54,1.54,0,0,1-.77-.21,1.5,1.5,0,0,1-.72-1.44l1.52-14.6a1.5,1.5,0,1,1,3,.31l-1.18,11.4,9.5-6.41a1.5,1.5,0,1,1,1.68,2.48L33.57,79.82A1.48,1.48,0,0,1,32.73,80.07Z"/><path d="M63.6,40.68a1.46,1.46,0,0,1-.77-.22,1.49,1.49,0,0,1-.51-2.05L67,30.59A2.07,2.07,0,0,0,67.24,29a2.1,2.1,0,0,0-1-1.32L61.79,25a2.19,2.19,0,0,0-1.62-.24,2.13,2.13,0,0,0-1.31,1l-4.69,7.81A1.5,1.5,0,0,1,51.6,32l4.68-7.82a5.17,5.17,0,0,1,3.16-2.34,5.1,5.1,0,0,1,3.89.58l4.48,2.69a5.15,5.15,0,0,1,1.77,7.05L64.89,40A1.5,1.5,0,0,1,63.6,40.68Z"/><path d="M63.4,39.56a.59.59,0,0,1-.25-.07L52.83,33.3a.5.5,0,0,1,.51-.86l10.32,6.19a.5.5,0,0,1-.26.93Z"/><path d="M40.63,68.26a.48.48,0,0,1-.26-.07.49.49,0,0,1-.17-.68L53.92,44.64a.5.5,0,0,1,.85.51L41.06,68A.5.5,0,0,1,40.63,68.26Z"/></svg>