<svg id="iconos" xmlns="http://www.w3.org/2000/svg" viewBox="0 0 100 100"><path d="M38.73,76.42H35.22a9.09,9.09,0,0,1-9.08-9.08V58.41a4,4,0,0,0-2.83-3.83l-3.75-1.15a1.49,1.49,0,0,1,0-2.86l3.75-1.15a4,4,0,0,0,2.83-3.83V36.66a9.09,9.09,0,0,1,9.08-9.08h3.51a1.5,1.5,0,1,1,0,3H35.22a6.09,6.09,0,0,0-6.08,6.08v8.93A7,7,0,0,1,25,52a7,7,0,0,1,4.18,6.41v8.93a6.09,6.09,0,0,0,6.08,6.08h3.51a1.5,1.5,0,1,1,0,3Z"/><path d="M64.78,76.42H61.27a1.5,1.5,0,1,1,0-3h3.51a6.09,6.09,0,0,0,6.08-6.08V58.41A7,7,0,0,1,75,52a7,7,0,0,1-4.18-6.41V36.66a6.09,6.09,0,0,0-6.08-6.08H61.27a1.5,1.5,0,1,1,0-3h3.51a9.09,9.09,0,0,1,9.08,9.08v8.93a4,4,0,0,0,2.83,3.83l3.75,1.15a1.49,1.49,0,0,1,0,2.86l-3.75,1.15a4,4,0,0,0-2.83,3.83v8.93A9.09,9.09,0,0,1,64.78,76.42Z"/><path d="M61.25,38.82H38.75a.5.5,0,0,1-.5-.5.51.51,0,0,1,.5-.5h22.5a.51.51,0,0,1,.5.5A.5.5,0,0,1,61.25,38.82Z"/><path d="M58.5,45.66H38.75a.5.5,0,0,1,0-1H58.5a.5.5,0,0,1,0,1Z"/><path d="M61.25,52.5H38.75a.5.5,0,0,1,0-1h22.5a.5.5,0,0,1,0,1Z"/><path d="M58.5,59.34H38.75a.5.5,0,0,1,0-1H58.5a.5.5,0,0,1,0,1Z"/><path d="M61.25,66.18H38.75a.51.51,0,0,1-.5-.5.5.5,0,0,1,.5-.5h22.5a.5.5,0,0,1,.5.5A.51.51,0,0,1,61.25,66.18Z"/></svg>