<svg id="iconos" xmlns="http://www.w3.org/2000/svg" viewBox="0 0 100 100"><path d="M59.71,84.21H40.29a5.71,5.71,0,0,1-5.71-5.7V26.92a5.71,5.71,0,0,1,5.71-5.71H59.71a5.71,5.71,0,0,1,5.71,5.71V78.51A5.71,5.71,0,0,1,59.71,84.21Zm-19.42-60a2.71,2.71,0,0,0-2.71,2.71V78.51a2.7,2.7,0,0,0,2.71,2.7H59.71a2.7,2.7,0,0,0,2.71-2.7V26.92a2.71,2.71,0,0,0-2.71-2.71Z"/><path d="M50,80.33A2.35,2.35,0,1,1,52.34,78,2.35,2.35,0,0,1,50,80.33Zm0-3.69A1.35,1.35,0,1,0,51.34,78,1.34,1.34,0,0,0,50,76.64Z"/><path d="M52.63,26.74H47.87a.5.5,0,0,1-.5-.5.5.5,0,0,1,.5-.5h4.76a.5.5,0,0,1,.5.5A.5.5,0,0,1,52.63,26.74Z"/><circle cx="45.48" cy="26.24" r="0.43"/></svg>