<svg id="iconos" xmlns="http://www.w3.org/2000/svg" viewBox="0 0 100 100"><path d="M41.44,74h-.07A1.49,1.49,0,0,1,40,72.73L37.29,58.48,24.26,51a1.5,1.5,0,0,1-.75-1.43,1.48,1.48,0,0,1,1-1.28l50-18.18a1.5,1.5,0,0,1,1.85,2.08L58.16,68.58a1.44,1.44,0,0,1-.91.76,1.48,1.48,0,0,1-1.18-.13L45.69,63.28l-2.81,9.6A1.5,1.5,0,0,1,41.44,74ZM28.55,50l10.83,6.19a1.5,1.5,0,0,1,.73,1L41.76,66l1.59-5.42a1.48,1.48,0,0,1,.87-1,1.51,1.51,0,0,1,1.31.09l10.66,6.09L72,34.24Z"/><path d="M44.79,61.53a.51.51,0,0,1-.36-.15.5.5,0,0,1,0-.71L70,35.75,38.93,57.93a.51.51,0,0,1-.7-.12.5.5,0,0,1,.12-.7l36.36-26a.51.51,0,0,1,.67.08.5.5,0,0,1,0,.68L45.13,61.39A.45.45,0,0,1,44.79,61.53Z"/><path d="M41.44,73a.5.5,0,0,1-.32-.11.5.5,0,0,1-.07-.7l7.46-9.09a.5.5,0,0,1,.71-.07.5.5,0,0,1,.07.7l-7.46,9.09A.5.5,0,0,1,41.44,73Z"/></svg>