<svg id="iconos" xmlns="http://www.w3.org/2000/svg" viewBox="0 0 100 100"><path d="M50,75a3.91,3.91,0,1,1,3.91-3.91A3.92,3.92,0,0,1,50,75Zm0-6.82a2.91,2.91,0,1,0,2.91,2.91A2.91,2.91,0,0,0,50,68.14Z"/><path d="M23.27,50.4a4.77,4.77,0,0,1-3.44-8.08,41.64,41.64,0,0,1,60.34,0A4.75,4.75,0,0,1,80.1,49h0a4.76,4.76,0,0,1-6.79-.07,32.12,32.12,0,0,0-46.62,0,4.7,4.7,0,0,1-3.35,1.46ZM50,35.92A34.82,34.82,0,0,1,75.49,46.87a1.65,1.65,0,0,0,1.21.53A1.68,1.68,0,0,0,78,46.88h0a1.77,1.77,0,0,0,0-2.49,38.64,38.64,0,0,0-56,0,1.77,1.77,0,0,0,0,2.49,1.91,1.91,0,0,0,1.28.52,1.69,1.69,0,0,0,1.21-.53A34.82,34.82,0,0,1,50,35.92Z"/><path d="M68.61,58h-.08a4.42,4.42,0,0,1-3.11-1.39,21.12,21.12,0,0,0-30.84,0A4.42,4.42,0,0,1,31.47,58a4.14,4.14,0,0,1-3.06-1.23,4.27,4.27,0,0,1-.11-5.95,29.68,29.68,0,0,1,43.4,0,4.27,4.27,0,0,1-.11,5.95h0A4.22,4.22,0,0,1,68.61,58ZM50,47.91a22.91,22.91,0,0,1,16.88,7.32,2.35,2.35,0,0,0,1.69.76,2.31,2.31,0,0,0,1.61-.65,2.26,2.26,0,0,0,0-3.16,27.65,27.65,0,0,0-40.46,0,2.26,2.26,0,0,0,.05,3.16,2.29,2.29,0,0,0,1.61.65,2.35,2.35,0,0,0,1.69-.76A22.91,22.91,0,0,1,50,47.91Z"/><path d="M60.42,65.86H60.3a4.07,4.07,0,0,1-2.91-1.36,9.87,9.87,0,0,0-14.78,0,4.07,4.07,0,0,1-2.91,1.36,3.91,3.91,0,0,1-2.93-1.16,4,4,0,0,1-.15-5.56,17.92,17.92,0,0,1,26.76,0,4,4,0,0,1-.14,5.56l0,0A3.94,3.94,0,0,1,60.42,65.86ZM50,59.66a11.4,11.4,0,0,1,8.51,3.83,2.52,2.52,0,0,0,1.83.86,2.48,2.48,0,0,0,1.84-.72h0a2.54,2.54,0,0,0,.09-3.49,16.44,16.44,0,0,0-24.54,0,2.54,2.54,0,0,0,.09,3.49,2.49,2.49,0,0,0,1.84.73,2.52,2.52,0,0,0,1.83-.86A11.4,11.4,0,0,1,50,59.66Z"/></svg>