<svg id="iconos" xmlns="http://www.w3.org/2000/svg" viewBox="0 0 100 100"><path d="M72.5,70h-45a4,4,0,0,1-4-4V38a4,4,0,0,1,4-4h45a4,4,0,0,1,4,4V66A4,4,0,0,1,72.5,70ZM27.5,37a1,1,0,0,0-1,1V66a1,1,0,0,0,1,1h45a1,1,0,0,0,1-1V38a1,1,0,0,0-1-1Z"/><path d="M53.73,69a.47.47,0,0,1-.42-.24l-16-26.3L25.43,62a.5.5,0,0,1-.86-.52L36.86,41.28a.51.51,0,0,1,.85,0l16.45,27A.5.5,0,0,1,54,69,.48.48,0,0,1,53.73,69Z"/><path d="M70,69a.51.51,0,0,1-.42-.23L57.84,50.67,50.26,62.42a.51.51,0,0,1-.69.15.5.5,0,0,1-.15-.7l8-12.39a.5.5,0,0,1,.42-.23h0a.52.52,0,0,1,.42.23L70.38,68.27A.5.5,0,0,1,70,69Z"/><path d="M49.84,50.25a3.54,3.54,0,1,1,3.54-3.54A3.55,3.55,0,0,1,49.84,50.25Zm0-6.08a2.54,2.54,0,1,0,2.54,2.54A2.55,2.55,0,0,0,49.84,44.17Z"/></svg>