<svg id="iconos" xmlns="http://www.w3.org/2000/svg" viewBox="0 0 100 100"><path d="M65.41,71.1H34.59a1.5,1.5,0,0,1-1.5-1.5V48a16.91,16.91,0,1,1,33.82,0V69.6A1.5,1.5,0,0,1,65.41,71.1Zm-29.32-3H63.91V48a13.91,13.91,0,1,0-27.82,0Z"/><path d="M68.49,71.1h-37a1.5,1.5,0,0,1,0-3h37a1.5,1.5,0,0,1,0,3Z"/><path d="M50,77.5a6.7,6.7,0,0,1-6.53-8,.5.5,0,1,1,1,.21,6.12,6.12,0,0,0-.11,1.14,5.66,5.66,0,0,0,11.32,0,6.12,6.12,0,0,0-.11-1.14.5.5,0,1,1,1-.2,6.69,6.69,0,0,1-6.53,8Z"/><path d="M52.62,33.35a.5.5,0,0,1-.5-.5V29.62a2.12,2.12,0,0,0-4.24,0v3.23a.5.5,0,0,1-1,0V29.62a3.12,3.12,0,0,1,6.24,0v3.23A.5.5,0,0,1,52.62,33.35Z"/></svg>