<svg id="iconos" xmlns="http://www.w3.org/2000/svg" viewBox="0 0 100 100"><path d="M81.57,82H36a4.61,4.61,0,0,1-4.6-4.61v-27a4.6,4.6,0,0,1,4.6-4.6H81.57a4.61,4.61,0,0,1,4.61,4.6v27A4.62,4.62,0,0,1,81.57,82ZM36,48.82a1.6,1.6,0,0,0-1.6,1.6v27A1.61,1.61,0,0,0,36,79H81.57a1.61,1.61,0,0,0,1.61-1.61v-27a1.61,1.61,0,0,0-1.61-1.6Z"/><path d="M43.93,64.31H38.48A2.27,2.27,0,0,1,36.22,62V57.85a2.27,2.27,0,0,1,2.26-2.27h5.45a2.27,2.27,0,0,1,2.27,2.27V62A2.27,2.27,0,0,1,43.93,64.31Zm-5.45-7.73a1.27,1.27,0,0,0-1.26,1.27V62a1.27,1.27,0,0,0,1.26,1.27h5.45A1.27,1.27,0,0,0,45.2,62V57.85a1.27,1.27,0,0,0-1.27-1.27Z"/><path d="M79.4,70.29H38.25a2,2,0,0,1,0-4.07H79.4a2,2,0,0,1,0,4.07ZM38.25,67.22a1,1,0,0,0,0,2.07H79.4a1,1,0,0,0,0-2.07Z"/><path d="M69.57,75.22H62.31a2,2,0,0,1,0-4.06h7.26a2,2,0,0,1,0,4.06Zm-7.26-3.06a1,1,0,0,0,0,2.06h7.26a1,1,0,0,0,0-2.06Z"/><path d="M49.7,75.22H38.25a2,2,0,0,1,0-4.06H49.7a2,2,0,0,1,0,4.06ZM38.25,72.16a1,1,0,0,0,0,2.06H49.7a1,1,0,0,0,0-2.06Z"/><path d="M32.05,79.52a4.62,4.62,0,0,1-4-2.28L14.46,53.94a4.61,4.61,0,0,1,1.65-6.31l39.39-23a4.61,4.61,0,0,1,6.3,1.66L73.65,46.56a1.51,1.51,0,0,1-.54,2,1.49,1.49,0,0,1-2-.54L59.21,27.79a1.62,1.62,0,0,0-2.2-.58l-39.39,23a1.61,1.61,0,0,0-.74,1A1.63,1.63,0,0,0,17,52.43L30.66,75.72a1.6,1.6,0,0,0,1.82.74,1.5,1.5,0,0,1,.8,2.89A4.35,4.35,0,0,1,32.05,79.52Z"/><path d="M27,63.69a2,2,0,0,1-1-3.78L32.59,56a.51.51,0,0,1,.69.18.49.49,0,0,1-.18.68l-6.66,3.89a1,1,0,1,0,1,1.78l5.08-3a.49.49,0,0,1,.68.18.51.51,0,0,1-.18.69l-5.08,3A2.08,2.08,0,0,1,27,63.69Z"/><path d="M54.55,47.82a.5.5,0,0,1-.25-.94L63,41.79a1,1,0,0,0-.26-1.88A1,1,0,0,0,62,40L51,46.42a1,1,0,0,0-.52.89.5.5,0,0,1-.49.51h0a.51.51,0,0,1-.5-.5,2.07,2.07,0,0,1,1-1.77l11-6.4A2,2,0,0,1,63,38.94a2,2,0,0,1,1.24.94,2,2,0,0,1-.73,2.78l-8.71,5.09A.59.59,0,0,1,54.55,47.82Z"/><path d="M30.07,69a2.31,2.31,0,0,1-.52-.06A2.05,2.05,0,0,1,28.31,68a2,2,0,0,1-.21-1.54A2,2,0,0,1,29,65.22l3.55-2.08a.5.5,0,1,1,.51.87l-3.55,2.07a1,1,0,0,0-.37,1.41,1,1,0,0,0,1.41.37l2-1.17a.51.51,0,0,1,.69.18.49.49,0,0,1-.18.68l-2,1.18A2,2,0,0,1,30.07,69Z"/><path d="M19.59,60.74l-3.82-6.53L61.39,27.56l3.81,6.53L41.82,47.75a.49.49,0,0,1-.68-.18.51.51,0,0,1,.18-.69L63.83,33.73,61,28.93,17.14,54.57,20,59.37,32.59,52a.51.51,0,0,1,.69.18.49.49,0,0,1-.18.68Z"/></svg>