<svg id="iconos" xmlns="http://www.w3.org/2000/svg" viewBox="0 0 100 100"><path d="M58.76,72h-3V70.31a19,19,0,0,1,4.36-11.85A12.94,12.94,0,1,0,40,58.55a19.1,19.1,0,0,1,4.28,12.14V72h-3V70.69a16.13,16.13,0,0,0-3.59-10.23A16,16,0,0,1,34.1,50.34,15.94,15.94,0,0,1,50.88,34.42,15.94,15.94,0,0,1,62.45,60.35a15.77,15.77,0,0,0-3.69,10Z"/><path d="M57.26,79.5H42.39a2.31,2.31,0,1,1,0-4.61H57.26a2.31,2.31,0,1,1,0,4.61ZM42.39,75.89a1.31,1.31,0,1,0,0,2.61H57.26a1.31,1.31,0,1,0,0-2.61Z"/><path d="M58.26,75.89H41.39a2.31,2.31,0,1,1,0-4.61H58.26a2.31,2.31,0,1,1,0,4.61ZM41.39,72.28a1.31,1.31,0,1,0,0,2.61H58.26a1.31,1.31,0,1,0,0-2.61Z"/><rect x="45.52" y="56.04" width="3" height="15.75"/><rect x="51.57" y="56.04" width="3" height="15.75"/><path d="M53.07,57.54A1.51,1.51,0,0,1,52,57.1l-2-2-2,2a1.55,1.55,0,0,1-2.12,0l-3-3A1.5,1.5,0,0,1,45.05,52l2,2,2-2a1.55,1.55,0,0,1,2.12,0l2,2,2-2a1.5,1.5,0,0,1,2.12,2.12l-3,3A1.49,1.49,0,0,1,53.07,57.54Z"/><path d="M52.21,82.5H47.88a1.94,1.94,0,0,1-2-1.94V79a.51.51,0,0,1,.5-.5h7.22a.5.5,0,0,1,.5.5v1.56A1.94,1.94,0,0,1,52.21,82.5Zm-5.28-3v1.06a1,1,0,0,0,1,.94h4.33a.94.94,0,0,0,.94-.94V79.5Z"/><path d="M62.52,36.35a.52.52,0,0,1-.33-.12.51.51,0,0,1,0-.71L68.69,28a.49.49,0,0,1,.7-.05.51.51,0,0,1,.06.71L62.9,36.18A.52.52,0,0,1,62.52,36.35Z"/><path d="M54.51,32.23h-.12a.51.51,0,0,1-.37-.61l2.35-9.73a.53.53,0,0,1,.61-.37.51.51,0,0,1,.37.61L55,31.85A.49.49,0,0,1,54.51,32.23Z"/><path d="M45.5,32.24a.51.51,0,0,1-.49-.39l-2.36-9.72a.5.5,0,1,1,1-.24L46,31.62a.49.49,0,0,1-.36.6Z"/><path d="M37.49,36.37a.52.52,0,0,1-.38-.17l-6.56-7.57a.5.5,0,0,1,.76-.65l6.56,7.56a.51.51,0,0,1,0,.71A.52.52,0,0,1,37.49,36.37Z"/></svg>