<svg id="iconos" xmlns="http://www.w3.org/2000/svg" viewBox="0 0 100 100"><path d="M32.64,77A6.63,6.63,0,0,1,28,65.67L40.61,53,28,40.34A6.65,6.65,0,0,1,32.65,29h0A6.61,6.61,0,0,1,37.34,31L50,43.61,62.66,31a6.64,6.64,0,0,1,9.39,9.39L59.4,53,72.05,65.66a6.63,6.63,0,0,1,0,9.39h0a6.56,6.56,0,0,1-4.69,2h0a6.6,6.6,0,0,1-4.7-2L50,62.39,37.34,75.06A6.66,6.66,0,0,1,32.64,77Zm0-45h0a3.65,3.65,0,0,0-2.58,6.22L43.79,51.94a1.49,1.49,0,0,1,0,2.12L30.07,67.79a3.63,3.63,0,0,0,0,5.15,3.65,3.65,0,0,0,5.15,0L48.94,59.21a1.55,1.55,0,0,1,2.12,0L64.78,72.93A3.63,3.63,0,0,0,67.36,74h0a3.61,3.61,0,0,0,2.57-1.07h0a3.63,3.63,0,0,0,0-5.15L56.21,54.06a1.51,1.51,0,0,1,0-2.12L69.93,38.22a3.65,3.65,0,0,0,0-5.15,3.74,3.74,0,0,0-5.15,0L51.06,46.79a1.49,1.49,0,0,1-2.12,0L35.22,33.07A3.61,3.61,0,0,0,32.65,32Z"/></svg>