<svg id="iconos" xmlns="http://www.w3.org/2000/svg" viewBox="0 0 100 100"><path d="M41.3,83.5H26.79a4.64,4.64,0,0,1-4.64-4.64V40.32a4.64,4.64,0,0,1,4.64-4.64H41.3A4.65,4.65,0,0,1,46,40.32V78.86A4.65,4.65,0,0,1,41.3,83.5ZM26.79,38.68a1.65,1.65,0,0,0-1.64,1.64V78.86a1.65,1.65,0,0,0,1.64,1.64H41.3A1.65,1.65,0,0,0,43,78.86V40.32a1.65,1.65,0,0,0-1.65-1.64Z"/><path d="M34.05,79.25a1.88,1.88,0,1,1,1.87-1.87A1.88,1.88,0,0,1,34.05,79.25Zm0-2.75a.88.88,0,1,0,.87.88A.87.87,0,0,0,34.05,76.5Z"/><path d="M36,40.32H32.46a.5.5,0,0,1-.5-.5.5.5,0,0,1,.5-.5H36a.5.5,0,0,1,.5.5A.5.5,0,0,1,36,40.32Z"/><circle cx="30.67" cy="39.82" r="0.54"/><path d="M72.14,83.5H41.77v-3H72.14a2.71,2.71,0,0,0,2.71-2.71V26.21a2.71,2.71,0,0,0-2.71-2.71H38.51a2.71,2.71,0,0,0-2.71,2.71v11h-3v-11a5.71,5.71,0,0,1,5.71-5.71H72.14a5.71,5.71,0,0,1,5.71,5.71V77.79A5.71,5.71,0,0,1,72.14,83.5Z"/><path d="M72.64,73H44.45a.5.5,0,0,1-.5-.5.5.5,0,0,1,.5-.5H71.64V28.72H39v8.46a.5.5,0,0,1-1,0V27.72H72.64Z"/><path d="M55.33,79.25a1.88,1.88,0,1,1,1.87-1.87A1.88,1.88,0,0,1,55.33,79.25Zm0-2.75a.88.88,0,1,0,.87.88A.87.87,0,0,0,55.33,76.5Z"/><path d="M57.1,26.54H53.55a.5.5,0,0,1-.5-.5.5.5,0,0,1,.5-.5H57.1a.5.5,0,0,1,.5.5A.5.5,0,0,1,57.1,26.54Z"/></svg>