<svg id="iconos" xmlns="http://www.w3.org/2000/svg" viewBox="0 0 100 100"><path d="M71.89,78.57H28.11A9.62,9.62,0,0,1,18.5,69V36.11a9.62,9.62,0,0,1,9.61-9.61H71.89a9.62,9.62,0,0,1,9.61,9.61V69A9.62,9.62,0,0,1,71.89,78.57ZM28.11,29.5a6.61,6.61,0,0,0-6.61,6.61V69a6.62,6.62,0,0,0,6.61,6.61H71.89A6.62,6.62,0,0,0,78.5,69V36.11a6.61,6.61,0,0,0-6.61-6.61Z"/><circle cx="26.03" cy="34.03" r="1.03"/><circle cx="30" cy="34.03" r="1.03"/><circle cx="33.97" cy="34.03" r="1.03"/><path d="M50,64.8A12.27,12.27,0,1,1,62.27,52.53,12.28,12.28,0,0,1,50,64.8Zm0-23.53A11.27,11.27,0,1,0,61.27,52.53,11.28,11.28,0,0,0,50,41.27Z"/><path d="M50,64.8c-3.08,0-5.5-5.39-5.5-12.27S46.92,40.27,50,40.27s5.5,5.39,5.5,12.26S53.08,64.8,50,64.8Zm0-23.53c-2.17,0-4.5,4.52-4.5,11.26S47.83,63.8,50,63.8s4.5-4.53,4.5-11.27S52.17,41.27,50,41.27Z"/><path d="M61.77,53H38.23a.5.5,0,0,1-.5-.5.51.51,0,0,1,.5-.5H61.77a.51.51,0,0,1,.5.5A.5.5,0,0,1,61.77,53Z"/></svg>