<svg id="iconos" xmlns="http://www.w3.org/2000/svg" viewBox="0 0 100 100"><path d="M43.29,67A7.36,7.36,0,0,1,36,59.45a6.51,6.51,0,0,1,.14-1.26,40.12,40.12,0,0,1,2-6.69c.1-.26.22-.55.34-.83a40.1,40.1,0,0,1,3.06-5.88A40.08,40.08,0,0,1,59,29.63l1.21,2.75A36.42,36.42,0,0,0,49.14,40a36.79,36.79,0,0,0-8,11.84q-.16.38-.3.75a37.46,37.46,0,0,0-1.83,6.19,3.51,3.51,0,0,0-.08.73,4.33,4.33,0,0,0,1.28,3.24A4.26,4.26,0,0,0,43.45,64a3.7,3.7,0,0,0,.8-.09,35.4,35.4,0,0,0,6.9-2.12c.45-.18.89-.37,1.33-.58a35,35,0,0,0,6.22-3.68A36.83,36.83,0,0,0,70.62,42.79L73.37,44a39.62,39.62,0,0,1-8.24,12,40,40,0,0,1-11.39,8c-.48.22-1,.42-1.43.62a38.76,38.76,0,0,1-7.47,2.29A6.54,6.54,0,0,1,43.5,67Z"/><path d="M73.36,44l-2.74-1.23a36.55,36.55,0,0,0,3.15-13.27.25.25,0,0,0-.08-.2.27.27,0,0,0-.2-.08,36.64,36.64,0,0,0-13.27,3.15L59,29.64a39.48,39.48,0,0,1,14.35-3.4,3.27,3.27,0,0,1,3.42,3.41A39.5,39.5,0,0,1,73.36,44Z"/><path d="M71.88,43.88A17,17,0,0,1,59.12,31.12l1-.23a16,16,0,0,0,12,12Z"/><path d="M57.87,49.74a4.61,4.61,0,1,1,3.26-1.34h0A4.63,4.63,0,0,1,57.87,49.74Zm0-8.22a3.62,3.62,0,0,0-2.56,6.17,3.71,3.71,0,0,0,5.11,0,3.62,3.62,0,0,0-2.55-6.17Z"/><path d="M44.52,60.26a1.76,1.76,0,0,1-1.26-.52,1.78,1.78,0,0,1,0-2.51h0a1.77,1.77,0,0,1,2.51,2.51A1.74,1.74,0,0,1,44.52,60.26ZM44,57.94A.76.76,0,0,0,44,59a.77.77,0,0,0,1.1-1.09A.77.77,0,0,0,44,57.94Z"/><path d="M50.08,55.8a2.88,2.88,0,0,1-2-4.92,3,3,0,0,1,4.08,0,2.88,2.88,0,0,1-2,4.92Zm0-4.77a1.9,1.9,0,0,0-1.33.55h0a1.88,1.88,0,0,0,0,2.67,1.94,1.94,0,0,0,2.67,0A1.89,1.89,0,0,0,50.08,51Z"/><path d="M42.08,69.18l-.31,0a9.94,9.94,0,0,1-1.6-.49,8.73,8.73,0,0,1-1.55-.75,10.31,10.31,0,0,1-2-1.55,10.51,10.51,0,0,1-1.33-1.63,9.77,9.77,0,0,1-1-1.93,8.32,8.32,0,0,1-.47-1.58,1.5,1.5,0,0,1,.64-1.56l2.17-1.42A1.5,1.5,0,0,1,39,59.53a3.84,3.84,0,0,0,.25,1.54,4.1,4.1,0,0,0,.8,1.41,3.43,3.43,0,0,0,.66.62,4.38,4.38,0,0,0,2.76.92,1.47,1.47,0,0,1,1.36.76,1.51,1.51,0,0,1-.05,1.55L43.34,68.5A1.51,1.51,0,0,1,42.08,69.18Z"/><path d="M32.37,59.5a1.47,1.47,0,0,1-.36,0,1.51,1.51,0,0,1-1.14-1.54A15.14,15.14,0,0,1,42.4,44.13a1.48,1.48,0,0,1,1.57.58A1.49,1.49,0,0,1,44,46.39a36.55,36.55,0,0,0-2.83,5.44q-.16.38-.3.75a1.53,1.53,0,0,1-1,.92,9.39,9.39,0,0,0-6.13,5.13A1.49,1.49,0,0,1,32.37,59.5Zm6.94-10.8a11.87,11.87,0,0,0-3.25,3.15,12.15,12.15,0,0,1,2.3-1l.06-.15C38.7,50,39,49.35,39.31,48.7Z"/><path d="M45,72.13a1.5,1.5,0,0,1-.62-2.86,9.39,9.39,0,0,0,5.13-6.13,1.53,1.53,0,0,1,.92-1l.72-.29A36.36,36.36,0,0,0,56.61,59a1.5,1.5,0,0,1,2.26,1.62A15.14,15.14,0,0,1,45.08,72.13Zm7.19-7.49a12.15,12.15,0,0,1-1,2.3,11.87,11.87,0,0,0,3.15-3.25c-.65.32-1.31.61-2,.89Z"/><path d="M31.14,72.71h-.08a.5.5,0,0,1-.49-.5,8.74,8.74,0,0,1,6.19-8.47.49.49,0,0,1,.56.2,6,6,0,0,0,.81,1,6.1,6.1,0,0,0,1.21.95.49.49,0,0,1,.22.57,8.78,8.78,0,0,1-2.2,3.69h0A8.74,8.74,0,0,1,31.14,72.71Zm5.57-7.9a7.73,7.73,0,0,0-5.13,6.89,7.74,7.74,0,0,0,5.07-2.27,7.88,7.88,0,0,0,1.84-2.91,6.86,6.86,0,0,1-1.07-.88A6.93,6.93,0,0,1,36.71,64.81Z"/><path d="M25.33,79.25h-.08a1.5,1.5,0,0,1-1.5-1.48,18.6,18.6,0,0,1,.47-4.31A18,18,0,0,1,29,64.91a17.75,17.75,0,0,1,6.19-4,1.48,1.48,0,0,1,1.15,0,1.51,1.51,0,0,1,.79.84,7.79,7.79,0,0,0,.69,1.35l-2.5,1.65c-.11-.17-.21-.33-.31-.51a15,15,0,0,0-7.86,9.92,15.88,15.88,0,0,0-.32,2A15.4,15.4,0,0,0,29,75.82,14.91,14.91,0,0,0,38.77,68l-.15-.09.69-1.13s0,0,0,0h0l.85-1.39a5.62,5.62,0,0,0,1.05.51,1.51,1.51,0,0,1,.89,2,17.91,17.91,0,0,1-12.4,10.92A18,18,0,0,1,25.33,79.25Z"/></svg>