<svg id="iconos" xmlns="http://www.w3.org/2000/svg" viewBox="0 0 100 100"><path d="M61.31,55.58a.5.5,0,0,1-.49-.41l.49-.13-.11-.45A7.12,7.12,0,0,0,58,40.71l-.1-.45-.46.17,0-.08a.54.54,0,0,1,.06-.39.48.48,0,0,1,.31-.23,8.12,8.12,0,0,1,3.61,15.84Z"/><path d="M60.3,71.08a4.34,4.34,0,0,1-4.17-3.14L47.72,31a4.34,4.34,0,0,1,8.43-2l2.27,8a195.87,195.87,0,0,1,4.76,20.91L64.58,66a4.34,4.34,0,0,1-3.32,5h0A3.93,3.93,0,0,1,60.3,71.08ZM52,28.8a1,1,0,0,0-.3,0,1.33,1.33,0,0,0-1,1.53L59,67.19a1.34,1.34,0,0,0,2.59-.67l-1.4-8.17a192.47,192.47,0,0,0-4.68-20.6l0-.12-2.24-7.86A1.34,1.34,0,0,0,52,28.8Z"/><path d="M23.38,69.46a4.82,4.82,0,0,1-4.68-3.74L16.23,54.83a4.8,4.8,0,0,1,3.62-5.75l6.2-1.41A30.53,30.53,0,0,0,40.94,39.4l7.65-7.73,2.13,2.11-7.65,7.73a33.38,33.38,0,0,1-16.36,9.08L20.51,52a1.77,1.77,0,0,0-1.12.8,1.81,1.81,0,0,0-.24,1.36l2.48,10.9a1.77,1.77,0,0,0,.8,1.12,1.81,1.81,0,0,0,1.36.24l9.06-2.06A33.3,33.3,0,0,1,45.93,64l11.89,2-.5,3-11.9-2a30.42,30.42,0,0,0-11.91.32l-9.06,2.06A4.81,4.81,0,0,1,23.38,69.46Z"/><path d="M33,66.35a.49.49,0,0,1-.49-.39l-4-17.45a.5.5,0,0,1,.38-.6.49.49,0,0,1,.6.37l4,17.46a.5.5,0,0,1-.38.6Z"/><path d="M30.24,80.68a2.76,2.76,0,0,1-2.59-1.8l-4-10.83a.5.5,0,0,1,.36-.66l5.51-1.25a.5.5,0,0,1,.58.31l3.74,10.14a2.77,2.77,0,0,1-1.63,3.54l-1,.38A2.93,2.93,0,0,1,30.24,80.68ZM24.79,68.24l3.79,10.29a1.77,1.77,0,0,0,2.26,1l1-.38h0a1.75,1.75,0,0,0,1-2.25l-3.59-9.73Z"/><path d="M17.44,65.25a2.14,2.14,0,0,1-2.09-1.67l-1.25-5.5a2.15,2.15,0,0,1,1.62-2.56L17.81,55a.5.5,0,0,1,.6.38l2,8.7a.5.5,0,0,1-.37.6l-2.1.48A2,2,0,0,1,17.44,65.25Zm.11-9.12-1.61.36a1.17,1.17,0,0,0-.72.51,1.14,1.14,0,0,0-.14.86l1.25,5.5a1.15,1.15,0,0,0,1.37.87l1.61-.37Z"/><path d="M71.19,44.34A.51.51,0,0,1,70.7,44a.5.5,0,0,1,.38-.6l13.36-3a.48.48,0,0,1,.59.37.49.49,0,0,1-.37.6l-13.36,3Z"/><path d="M67.39,37.79a.48.48,0,0,1-.33-.13.49.49,0,0,1,0-.7L76,26.59a.5.5,0,0,1,.76.65l-9,10.37A.49.49,0,0,1,67.39,37.79Z"/><path d="M82.92,57.33a.65.65,0,0,1-.2,0L70.16,51.82a.5.5,0,0,1,.4-.92l12.56,5.47a.5.5,0,0,1,.26.66A.53.53,0,0,1,82.92,57.33Z"/></svg>