<svg id="iconos" xmlns="http://www.w3.org/2000/svg" viewBox="0 0 100 100"><path d="M73,51.43H27a1.5,1.5,0,0,1-1.5-1.5V28A1.5,1.5,0,0,1,27,26.5H73a1.5,1.5,0,0,1,1.5,1.5V49.93A1.5,1.5,0,0,1,73,51.43Zm-44.56-3H71.53V29.5H28.47Z"/><rect x="24.5" y="38.47" width="51.01" height="1" transform="translate(-11.9 25.28) rotate(-25.46)"/><rect x="49.5" y="13.46" width="1" height="51.01" transform="translate(-6.68 67.36) rotate(-64.54)"/><path d="M48.9,79.5H27a1.5,1.5,0,0,1-1.5-1.5V56.07a1.5,1.5,0,0,1,1.5-1.5H48.9a1.5,1.5,0,0,1,1.5,1.5V78A1.5,1.5,0,0,1,48.9,79.5Zm-20.43-3H47.4V57.57H28.47Z"/><rect x="22.43" y="66.54" width="31.01" height="1" transform="translate(-36.29 46.46) rotate(-45)"/><rect x="37.44" y="51.53" width="1" height="31.01" transform="translate(-36.29 46.46) rotate(-45)"/><path d="M73,60.2H53.29a1.5,1.5,0,0,1,0-3H73a1.5,1.5,0,0,1,0,3Z"/><path d="M73,66.05H53.29a1.5,1.5,0,0,1,0-3H73a1.5,1.5,0,0,1,0,3Z"/><path d="M73,71.9H53.29a1.5,1.5,0,1,1,0-3H73a1.5,1.5,0,0,1,0,3Z"/><path d="M73,77.75H53.29a1.5,1.5,0,1,1,0-3H73a1.5,1.5,0,0,1,0,3Z"/></svg>