<svg id="iconos" xmlns="http://www.w3.org/2000/svg" viewBox="0 0 100 100"><path d="M64.85,64.52H36.69a1.51,1.51,0,0,1-1.48-1.24L30.42,36a1.5,1.5,0,0,1,1.48-1.76H73.08a3.42,3.42,0,0,1,3.23,4.55L68.07,62.23A3.42,3.42,0,0,1,64.85,64.52Zm-26.9-3h26.9a.42.42,0,0,0,.39-.28l8.23-23.5a.39.39,0,0,0,0-.38.41.41,0,0,0-.34-.17H33.69Z"/><path d="M64.37,72.11H39.63a3.42,3.42,0,0,1-3.37-2.83L29.83,32.6a1.48,1.48,0,0,0-1.47-1.24H25a1.5,1.5,0,0,1,0-3h3.36a4.49,4.49,0,0,1,4.43,3.72l6.43,36.69a.42.42,0,0,0,.41.34H64.37a1.5,1.5,0,0,1,0,3Z"/><path d="M43.62,77.64a4.27,4.27,0,1,1,4.27-4.26A4.27,4.27,0,0,1,43.62,77.64Zm0-5.53a1.27,1.27,0,1,0,1.27,1.27A1.27,1.27,0,0,0,43.62,72.11Z"/><path d="M59.11,77.64a4.27,4.27,0,1,1,4.26-4.26A4.27,4.27,0,0,1,59.11,77.64Zm0-5.53a1.27,1.27,0,1,0,1.26,1.27A1.27,1.27,0,0,0,59.11,72.11Z"/><path d="M70.75,49.85H34.29a.5.5,0,0,1-.5-.5.51.51,0,0,1,.5-.5H70.75a.5.5,0,0,1,.5.5A.5.5,0,0,1,70.75,49.85Z"/><path d="M42.65,63.52a.5.5,0,0,1-.5-.5V35.69a.5.5,0,0,1,.5-.5.5.5,0,0,1,.5.5V63A.51.51,0,0,1,42.65,63.52Z"/><path d="M53.51,63.52A.5.5,0,0,1,53,63V35.69a.5.5,0,0,1,1,0V63A.5.5,0,0,1,53.51,63.52Z"/><path d="M64.37,63.52a.51.51,0,0,1-.5-.5V35.69a.5.5,0,0,1,.5-.5.5.5,0,0,1,.5.5V63A.5.5,0,0,1,64.37,63.52Z"/></svg>