<svg id="iconos" xmlns="http://www.w3.org/2000/svg" viewBox="0 0 100 100"><path d="M64.08,82H53.44a25.59,25.59,0,0,1-6.16-.76l-7-1.74H28.5A4.51,4.51,0,0,1,24,75V46a4.51,4.51,0,0,1,4.5-4.5H39.69l2.84-4.29C43.54,35.64,44,35,44,33.43v-5A4.38,4.38,0,0,1,48.28,24a6.5,6.5,0,0,1,4.63,1.9,6.4,6.4,0,0,1,1.9,4.58v3.85a15.8,15.8,0,0,1-1.6,6.91l-.08.2H70.08A5.93,5.93,0,0,1,76,47.39v.54a5.91,5.91,0,0,1-3.21,5.26A5.9,5.9,0,0,1,74,56.77v.53a5.91,5.91,0,0,1-3.21,5.26A5.9,5.9,0,0,1,72,66.14v.54a5.91,5.91,0,0,1-3.21,5.26A5.9,5.9,0,0,1,70,75.52v.53A5.93,5.93,0,0,1,64.08,82ZM48.33,27h0A1.37,1.37,0,0,0,47,28.41v5c0,2.47-.81,3.7-1.93,5.4l-3.28,5a1.5,1.5,0,0,1-1.25.67h-12A1.5,1.5,0,0,0,27,46V75a1.5,1.5,0,0,0,1.5,1.5h12a1.42,1.42,0,0,1,.36,0L48,78.3a22.06,22.06,0,0,0,5.43.67H64.08A2.92,2.92,0,0,0,67,76.05v-.53a2.92,2.92,0,0,0-2.92-2.92,1.5,1.5,0,0,1,0-3h2A2.92,2.92,0,0,0,69,66.68v-.54a2.92,2.92,0,0,0-2.92-2.92,1.5,1.5,0,0,1,0-3h2A2.92,2.92,0,0,0,71,57.3v-.53a2.92,2.92,0,0,0-2.92-2.92,1.5,1.5,0,0,1,0-3h2A2.92,2.92,0,0,0,73,47.93v-.54a2.92,2.92,0,0,0-2.92-2.92H50.86a1.5,1.5,0,0,1-1.38-2.09l1-2.28a13,13,0,0,0,1.36-5.74V30.51A3.48,3.48,0,0,0,48.33,27Z"/><path d="M40.5,78.47A.5.5,0,0,1,40,78V43a.5.5,0,0,1,1,0V78A.5.5,0,0,1,40.5,78.47Z"/><path d="M68.08,53.85H60.5a1.5,1.5,0,0,1,0-3h7.58a1.5,1.5,0,0,1,0,3Z"/><path d="M66.08,63.21H60.5a1.5,1.5,0,0,1,0-3h5.58a1.5,1.5,0,0,1,0,3Z"/><path d="M64.08,72.57H60.5a1.5,1.5,0,0,1,0-3h3.58a1.5,1.5,0,0,1,0,3Z"/></svg>