<svg id="Capa_1" data-name="Capa 1" xmlns="http://www.w3.org/2000/svg" viewBox="0 0 24 24"><defs><style>.cls-1{fill:#20273f;}.cls-2{fill:none;}</style></defs><path class="cls-1" d="M14.75,8.84a.55.55,0,0,0,0-.77.54.54,0,0,0-.78,0L9,13a2.22,2.22,0,1,0,3.15,3.13l5.54-5.62a3.81,3.81,0,0,0,0-5.38,3.91,3.91,0,0,0-5.38,0L6.75,10.74A5.4,5.4,0,0,0,10.57,20a5.35,5.35,0,0,0,3.82-1.58l2.23-2.23a.55.55,0,1,0-.78-.78L13.61,17.6a4.3,4.3,0,1,1-6.08-6.08l5.59-5.59a2.77,2.77,0,0,1,3.82,0,2.69,2.69,0,0,1,.79,1.91,2.65,2.65,0,0,1-.8,1.91l-5.54,5.63a1.16,1.16,0,0,1-.8.34,1,1,0,0,1-.8-.34,1.12,1.12,0,0,1,0-1.58Z"/><rect class="cls-2" width="24" height="24"/></svg>