<svg id="Capa_1" data-name="Capa 1" xmlns="http://www.w3.org/2000/svg" viewBox="0 0 24 24"><defs><style>.cls-1{fill:#20273f;}.cls-2{fill:none;}</style></defs><path class="cls-1" d="M20.09,9.21H18.7V7.82a.54.54,0,0,0-.55-.55.55.55,0,0,0-.55.55V9.21H16.21a.55.55,0,0,0-.55.55.55.55,0,0,0,.55.55H17.6V11.7a.55.55,0,0,0,.55.55.55.55,0,0,0,.55-.55V10.31h1.39a.55.55,0,0,0,.55-.55A.54.54,0,0,0,20.09,9.21Z"/><path class="cls-1" d="M16.44,15.28a6.66,6.66,0,0,0-1-.65.17.17,0,0,0-.24.07.18.18,0,0,0,.07.24,7.45,7.45,0,0,1,.93.61A1.93,1.93,0,0,1,17,17.74a2.71,2.71,0,0,1-2.65,1.64H8.65A2.74,2.74,0,0,1,6,17.73a1.83,1.83,0,0,1,.67-2.11A7.63,7.63,0,0,1,11.48,14a8.48,8.48,0,0,1,2.31.32.17.17,0,0,0,.21-.12.16.16,0,0,0-.12-.21,8.39,8.39,0,0,0-2.4-.34,8,8,0,0,0-5.06,1.71,2.21,2.21,0,0,0-.77,2.5,3.11,3.11,0,0,0,3,1.88h5.66a3.07,3.07,0,0,0,3-1.88A2.26,2.26,0,0,0,16.44,15.28Z"/><path class="cls-1" d="M11.47,9.89A3.75,3.75,0,1,0,7.72,6.14,3.75,3.75,0,0,0,11.47,9.89Zm0-6.4A2.65,2.65,0,1,1,8.82,6.14,2.65,2.65,0,0,1,11.47,3.49Z"/><path class="cls-1" d="M11.38,11.44A9.53,9.53,0,0,0,4.6,14.25a4.2,4.2,0,0,0-.91,4.64,4.3,4.3,0,0,0,4,2.71H15a4.34,4.34,0,0,0,3-7.47A9.56,9.56,0,0,0,11.38,11.44Zm6.65,7a3.2,3.2,0,0,1-3,2c-2.35,0-4.94,0-7.31,0a3.22,3.22,0,0,1-3-2A3.11,3.11,0,0,1,5.38,15a8.46,8.46,0,0,1,11.88-.11A3.21,3.21,0,0,1,18,18.48Z"/><rect class="cls-2" width="24" height="24"/></svg>