<svg id="Capa_1" data-name="Capa 1" xmlns="http://www.w3.org/2000/svg" viewBox="0 0 24 24"><defs><style>.cls-1{fill:#20273f;}.cls-2{fill:none;}</style></defs><path class="cls-1" d="M18.66,6.56a.17.17,0,0,0-.08.24,3.09,3.09,0,0,1,.29,1.31v7.75a3,3,0,0,1-3,3H8.09a3,3,0,0,1-3-3V8.11a3,3,0,0,1,3-3h7.76A3,3,0,0,1,17,5.32a.18.18,0,0,0,.22-.09A.17.17,0,0,0,17.16,5a3.27,3.27,0,0,0-1.31-.27H8.09A3.38,3.38,0,0,0,4.72,8.11v7.75a3.38,3.38,0,0,0,3.37,3.38h7.76a3.38,3.38,0,0,0,3.37-3.38V8.11a3.32,3.32,0,0,0-.33-1.46A.17.17,0,0,0,18.66,6.56Z"/><path class="cls-1" d="M16.55,2.4H7.45A5,5,0,0,0,2.4,7.45v9.1A5,5,0,0,0,7.45,21.6h9.1a5,5,0,0,0,5.05-5.05V7.45A5,5,0,0,0,16.55,2.4ZM20.5,16.55a4,4,0,0,1-3.95,3.95H7.45A4,4,0,0,1,3.5,16.55V7.45a4,4,0,0,1,4-3.95h9.1a4,4,0,0,1,3.95,4Z"/><path class="cls-1" d="M12,15.93a.55.55,0,0,0,.55-.55V12.54h2.84a.55.55,0,0,0,.55-.55.54.54,0,0,0-.55-.55H12.55V8.59a.55.55,0,0,0-1.1,0v2.85H8.61a.54.54,0,0,0-.55.55.55.55,0,0,0,.55.55h2.84v2.84A.55.55,0,0,0,12,15.93Z"/><rect class="cls-2" width="24" height="24"/></svg>