<svg id="Capa_1" data-name="Capa 1" xmlns="http://www.w3.org/2000/svg" viewBox="0 0 24 24"><defs><style>.cls-1{fill:#20273f;}.cls-2{fill:none;}</style></defs><path class="cls-1" d="M3.52,8.33h1.8a2.72,2.72,0,0,0,5.33,0h9.83A.55.55,0,0,0,21,7.78a.55.55,0,0,0-.55-.55H10.66a2.73,2.73,0,0,0-5.35,0H3.52A.55.55,0,0,0,3,7.78.55.55,0,0,0,3.52,8.33ZM8,6.14A1.63,1.63,0,1,1,6.35,7.77,1.63,1.63,0,0,1,8,6.14Z"/><path class="cls-1" d="M20.48,15.7H18.69a2.73,2.73,0,0,0-5.35,0H3.52a.55.55,0,0,0-.55.55.55.55,0,0,0,.55.55h9.83a2.72,2.72,0,0,0,5.33,0h1.8a.55.55,0,0,0,.55-.55A.55.55,0,0,0,20.48,15.7ZM16,17.86a1.63,1.63,0,1,1,1.63-1.63A1.63,1.63,0,0,1,16,17.86Z"/><path class="cls-1" d="M17.47,11.85a.18.18,0,0,0-.18.17.18.18,0,0,0,.18.18h3a.17.17,0,0,0,.17-.18.17.17,0,0,0-.17-.17Z"/><path class="cls-1" d="M3.52,11.85a.17.17,0,0,0-.17.17.17.17,0,0,0,.17.18h10.6a.17.17,0,0,0,.17-.18.17.17,0,0,0-.17-.17Z"/><rect class="cls-2" width="24" height="24"/></svg>