<svg id="Capa_1" data-name="Capa 1" xmlns="http://www.w3.org/2000/svg" viewBox="0 0 24 24"><defs><style>.cls-1{fill:#20273f;}.cls-2{fill:none;}</style></defs><path class="cls-1" d="M21.56,16.56a.54.54,0,0,0,0-.28.14.14,0,0,0,0-.06.46.46,0,0,0-.12-.24h0l-2.2-2.24a.55.55,0,0,0-.78.78l1.28,1.29h-1a4.83,4.83,0,0,1-3.43-1.41L9.44,8.52a5.9,5.9,0,0,0-4.2-1.74H3a.55.55,0,1,0,0,1.1H5.24A4.8,4.8,0,0,1,8.67,9.3l5.89,5.87a5.89,5.89,0,0,0,4.2,1.73h1l-1.36,1.41a.54.54,0,0,0,0,.77.51.51,0,0,0,.38.16.54.54,0,0,0,.39-.17l2.27-2.33a1.4,1.4,0,0,0,.1-.16s0,0,0,0Z"/><path class="cls-1" d="M4.76,13.94H3a.18.18,0,0,0-.18.18.17.17,0,0,0,.18.17H4.76a6.68,6.68,0,0,0,4.76-2L9.86,12a.15.15,0,0,0,.05-.13.18.18,0,0,0-.05-.13l-.34-.33a6.69,6.69,0,0,0-4.76-2H3a.18.18,0,0,0-.18.18A.18.18,0,0,0,3,9.78H4.76a6.39,6.39,0,0,1,4.52,1.86l.22.22-.22.22A6.39,6.39,0,0,1,4.76,13.94Z"/><path class="cls-1" d="M10.48,12.6,8.67,14.42a4.85,4.85,0,0,1-3.43,1.41H3a.55.55,0,0,0-.55.55.54.54,0,0,0,.55.55H5.24a5.89,5.89,0,0,0,4.2-1.73l1.82-1.82a.53.53,0,0,0,0-.77A.55.55,0,0,0,10.48,12.6Z"/><path class="cls-1" d="M19.62,6.81h-.83a6,6,0,0,0-4.24,1.77L13.18,10a.55.55,0,0,0,0,.78.54.54,0,0,0,.38.15.53.53,0,0,0,.39-.16l1.37-1.39a4.93,4.93,0,0,1,3.46-1.44h.95l-1.28,1.3a.55.55,0,0,0,.78.77l2.2-2.24h0a.6.6,0,0,0,.12-.24s0,0,0-.07a.54.54,0,0,0,0-.25v0h0A.5.5,0,0,0,21.42,7l-2.26-2a.56.56,0,0,0-.78,0,.55.55,0,0,0,0,.78Z"/><path class="cls-1" d="M11.74,9.77a.19.19,0,0,0,.15-.08s2.28-3.2,4.47-3.5a.17.17,0,0,0,.15-.2.17.17,0,0,0-.19-.15C14,6.17,11.7,9.36,11.6,9.49a.18.18,0,0,0,0,.25A.19.19,0,0,0,11.74,9.77Z"/><path class="cls-1" d="M16.36,17.52c-2.19-.3-4.45-3.47-4.47-3.5a.18.18,0,0,0-.25,0,.16.16,0,0,0,0,.24c.1.14,2.37,3.32,4.72,3.65h0a.16.16,0,0,0,.17-.15A.17.17,0,0,0,16.36,17.52Z"/><rect class="cls-2" width="24" height="24"/></svg>