<svg id="Capa_1" data-name="Capa 1" xmlns="http://www.w3.org/2000/svg" viewBox="0 0 24 24"><defs><style>.cls-1{fill:#20273f;}.cls-2{fill:none;}</style></defs><path class="cls-1" d="M17.46,3.48a.56.56,0,0,0-.76.19.55.55,0,0,0,.19.75,4.43,4.43,0,0,1,2,3.83,4.42,4.42,0,0,1-2,3.82.55.55,0,0,0-.19.75.57.57,0,0,0,.47.27.6.6,0,0,0,.29-.08A5.51,5.51,0,0,0,20,8.25,5.53,5.53,0,0,0,17.46,3.48Z"/><path class="cls-1" d="M15.19,9.65a.56.56,0,0,0-.18.76.54.54,0,0,0,.47.26.48.48,0,0,0,.28-.08A2.71,2.71,0,0,0,17,8.25,2.72,2.72,0,0,0,15.76,5.9a.54.54,0,0,0-.75.18.55.55,0,0,0,.19.76,1.61,1.61,0,0,1,.71,1.41A1.59,1.59,0,0,1,15.19,9.65Z"/><path class="cls-1" d="M6.83,13.09a.57.57,0,0,0,.47-.27.55.55,0,0,0-.19-.75,4.42,4.42,0,0,1-2-3.82,4.43,4.43,0,0,1,2-3.83.55.55,0,0,0,.19-.75.56.56,0,0,0-.76-.19A5.53,5.53,0,0,0,4,8.25,5.51,5.51,0,0,0,6.54,13,.6.6,0,0,0,6.83,13.09Z"/><path class="cls-1" d="M8.24,10.59a.48.48,0,0,0,.28.08A.54.54,0,0,0,9,10.41a.56.56,0,0,0-.18-.76,1.59,1.59,0,0,1-.72-1.4A1.61,1.61,0,0,1,8.8,6.84.55.55,0,0,0,9,6.08a.54.54,0,0,0-.75-.18A2.72,2.72,0,0,0,7,8.25,2.71,2.71,0,0,0,8.24,10.59Z"/><path class="cls-1" d="M16.3,19.87A7.38,7.38,0,0,1,12.11,18a.17.17,0,0,0-.21,0s-2.74,1.85-4.17,1.85h0c-.09,0-.18.08-.18.17a.18.18,0,0,0,.2.18c1.38,0,3.72-1.48,4.26-1.84a7.46,7.46,0,0,0,4.31,1.84.18.18,0,0,0,.17-.17A.18.18,0,0,0,16.3,19.87Z"/><path class="cls-1" d="M12,16.75A5.34,5.34,0,0,0,15,18a.18.18,0,0,0,.18-.18.18.18,0,0,0-.18-.17,5.13,5.13,0,0,1-2.91-1.28.17.17,0,0,0-.21,0A8,8,0,0,1,9,17.68H9a.17.17,0,0,0-.18.17A.19.19,0,0,0,9,18,7.58,7.58,0,0,0,12,16.75Z"/><path class="cls-1" d="M14.77,13.19c-.71-1.34-1.43-2.72-2.11-4.08a1.13,1.13,0,0,0,.47-.9,1.24,1.24,0,0,0-2.47,0,1.14,1.14,0,0,0,.53.94c-.62,1.29-1.27,2.58-1.91,3.86C8.07,15.42,6.92,17.68,6,19.84a.57.57,0,0,0,.51.76.56.56,0,0,0,.51-.34c.87-2.12,2-4.37,3.21-6.75.56-1.12,1.13-2.25,1.68-3.37.61,1.19,1.24,2.39,1.85,3.56C15,16,16.17,18.21,17.07,20.27a.54.54,0,0,0,.72.28.55.55,0,0,0,.29-.72C17.16,17.74,16,15.53,14.77,13.19Z"/><rect class="cls-2" width="24" height="24"/></svg>