<svg id="Capa_1" data-name="Capa 1" xmlns="http://www.w3.org/2000/svg" viewBox="0 0 24 24"><defs><style>.cls-1{fill:#20273f;}.cls-2{fill:none;}</style></defs><path class="cls-1" d="M8.26,3.56H6A2.53,2.53,0,0,0,3.51,6.09V8.31A2.52,2.52,0,0,0,6,10.83H8.26a2.52,2.52,0,0,0,2.52-2.52V6.09A2.52,2.52,0,0,0,8.26,3.56ZM9.68,8.31A1.43,1.43,0,0,1,8.26,9.73H6A1.43,1.43,0,0,1,4.61,8.31V6.09A1.43,1.43,0,0,1,6,4.66H8.26A1.43,1.43,0,0,1,9.68,6.09Z"/><path class="cls-1" d="M7.71,5.47H6.59A1.17,1.17,0,0,0,5.42,6.64V7.76A1.17,1.17,0,0,0,6.59,8.93H7.71A1.18,1.18,0,0,0,8.88,7.76V6.64A1.17,1.17,0,0,0,7.71,5.47Zm.82,2.29a.82.82,0,0,1-.82.82H6.59a.82.82,0,0,1-.82-.82V6.64a.82.82,0,0,1,.82-.83H7.71a.83.83,0,0,1,.82.83Z"/><path class="cls-1" d="M17.41,5.47H16.29a1.17,1.17,0,0,0-1.17,1.17V7.76a1.18,1.18,0,0,0,1.17,1.17h1.12a1.17,1.17,0,0,0,1.17-1.17V6.64A1.17,1.17,0,0,0,17.41,5.47Zm.82,2.29a.82.82,0,0,1-.82.82H16.29a.82.82,0,0,1-.82-.82V6.64a.83.83,0,0,1,.82-.83h1.12a.82.82,0,0,1,.82.83Z"/><path class="cls-1" d="M7.71,15.07H6.59a1.17,1.17,0,0,0-1.17,1.17v1.12a1.17,1.17,0,0,0,1.17,1.17H7.71a1.17,1.17,0,0,0,1.17-1.17V16.24A1.18,1.18,0,0,0,7.71,15.07Zm.82,2.29a.83.83,0,0,1-.82.83H6.59a.82.82,0,0,1-.82-.83V16.24a.82.82,0,0,1,.82-.82H7.71a.82.82,0,0,1,.82.82Z"/><path class="cls-1" d="M17.41,15.07H16.29a1.18,1.18,0,0,0-1.17,1.17v1.12a1.17,1.17,0,0,0,1.17,1.17h1.12a1.17,1.17,0,0,0,1.17-1.17V16.24A1.17,1.17,0,0,0,17.41,15.07Zm.82,2.29a.82.82,0,0,1-.82.83H16.29a.83.83,0,0,1-.82-.83V16.24a.82.82,0,0,1,.82-.82h1.12a.82.82,0,0,1,.82.82Z"/><path class="cls-1" d="M18,3.56H15.74a2.52,2.52,0,0,0-2.52,2.53V8.31a2.52,2.52,0,0,0,2.52,2.52H18a2.52,2.52,0,0,0,2.53-2.52V6.09A2.53,2.53,0,0,0,18,3.56Zm1.43,4.75A1.43,1.43,0,0,1,18,9.73H15.74a1.43,1.43,0,0,1-1.42-1.42V6.09a1.43,1.43,0,0,1,1.42-1.43H18a1.43,1.43,0,0,1,1.43,1.43Z"/><path class="cls-1" d="M8.26,13.17H6a2.52,2.52,0,0,0-2.53,2.52v2.22A2.53,2.53,0,0,0,6,20.44H8.26a2.52,2.52,0,0,0,2.52-2.53V15.69A2.52,2.52,0,0,0,8.26,13.17Zm1.42,4.74a1.43,1.43,0,0,1-1.42,1.43H6a1.43,1.43,0,0,1-1.43-1.43V15.69A1.43,1.43,0,0,1,6,14.27H8.26a1.43,1.43,0,0,1,1.42,1.42Z"/><path class="cls-1" d="M18,13.17H15.74a2.52,2.52,0,0,0-2.52,2.52v2.22a2.52,2.52,0,0,0,2.52,2.53H18a2.53,2.53,0,0,0,2.53-2.53V15.69A2.52,2.52,0,0,0,18,13.17Zm1.43,4.74A1.43,1.43,0,0,1,18,19.34H15.74a1.43,1.43,0,0,1-1.42-1.43V15.69a1.43,1.43,0,0,1,1.42-1.42H18a1.43,1.43,0,0,1,1.43,1.42Z"/><rect class="cls-2" width="24" height="24"/></svg>