<svg id="Capa_1" data-name="Capa 1" xmlns="http://www.w3.org/2000/svg" viewBox="0 0 24 24"><defs><style>.cls-1{fill:#20273f;}.cls-2{fill:none;}</style></defs><path class="cls-1" d="M14.6,9.77a.57.57,0,0,0,.33-.11l4-3.13L18.81,8a.55.55,0,1,0,1.09.12l.32-2.73v0a.53.53,0,0,0,0-.25l0-.06a.43.43,0,0,0-.2-.2h0a.35.35,0,0,0-.17-.06L17,4.37a.58.58,0,0,0-.63.47.55.55,0,0,0,.47.62l1.43.2-4,3.13a.55.55,0,0,0,.34,1Z"/><path class="cls-1" d="M20.21,18.66a0,0,0,0,1,0,0l-.32-2.73a.55.55,0,1,0-1.09.12L19,17.47l-4-3.13a.55.55,0,0,0-.67.87l4,3.13-1.43.2a.55.55,0,0,0-.47.62.56.56,0,0,0,.55.47H17l2.72-.39a.39.39,0,0,0,.17-.06h0a.43.43,0,0,0,.2-.2l0-.06A.53.53,0,0,0,20.21,18.66Z"/><path class="cls-1" d="M5.7,5.66l1.43-.2a.55.55,0,0,0,.47-.62A.58.58,0,0,0,7,4.37l-2.72.39a.35.35,0,0,0-.17.06h0a.43.43,0,0,0-.2.2l0,.06a.53.53,0,0,0,0,.25v0L4.1,8.09A.55.55,0,1,0,5.19,8L5,6.53l4,3.13a.57.57,0,0,0,.33.11.55.55,0,0,0,.34-1Z"/><path class="cls-1" d="M9.07,14.34,5,17.47,5.19,16a.55.55,0,1,0-1.09-.12l-.32,2.73a0,0,0,0,1,0,0,.53.53,0,0,0,0,.25l0,.06a.43.43,0,0,0,.2.2h0a.39.39,0,0,0,.17.06L7,19.63h.08a.56.56,0,0,0,.55-.47.55.55,0,0,0-.47-.62l-1.43-.2,4-3.13a.55.55,0,1,0-.67-.87Z"/><rect class="cls-2" width="24" height="24"/></svg>