<svg id="Capa_1" data-name="Capa 1" xmlns="http://www.w3.org/2000/svg" viewBox="0 0 24 24"><defs><style>.cls-1{fill:#20273f;}.cls-2{fill:none;}</style></defs><path class="cls-1" d="M19,19A9.87,9.87,0,0,0,19,5V5h0A9.87,9.87,0,0,0,5,5H5V5A9.87,9.87,0,0,0,5,19v0H5a9.87,9.87,0,0,0,14,0h0Zm-.42-1.17L15.87,15.1a4.88,4.88,0,0,0,0-6.2l2.72-2.71a8.74,8.74,0,0,1,0,11.62ZM8.12,12A3.88,3.88,0,1,1,12,15.88,3.88,3.88,0,0,1,8.12,12Zm9.69-6.59L15.1,8.13a4.88,4.88,0,0,0-6.2,0L6.19,5.41a8.74,8.74,0,0,1,11.62,0Zm-12.4.78L8.13,8.9a4.88,4.88,0,0,0,0,6.2L5.41,17.81a8.74,8.74,0,0,1,0-11.62Zm.78,12.4L8.9,15.87a4.88,4.88,0,0,0,6.2,0l2.71,2.72a8.74,8.74,0,0,1-11.62,0Z"/><path class="cls-1" d="M8.25,5.25,9.59,7A.17.17,0,0,0,9.73,7a.14.14,0,0,0,.1,0,.17.17,0,0,0,0-.24L8.52,5a.17.17,0,0,0-.24,0A.18.18,0,0,0,8.25,5.25Z"/><path class="cls-1" d="M14.2,7A.16.16,0,0,0,14.33,7l1.34-1.7a.18.18,0,0,0,0-.25.17.17,0,0,0-.24,0l-1.34,1.7a.17.17,0,0,0,0,.24A.15.15,0,0,0,14.2,7Z"/><path class="cls-1" d="M12,6.38a.17.17,0,0,0,.17-.18V4.1a.17.17,0,1,0-.34,0V6.2A.17.17,0,0,0,12,6.38Z"/><path class="cls-1" d="M9.59,17.13l-1.34,1.7a.16.16,0,0,0,0,.24.15.15,0,0,0,.11,0,.16.16,0,0,0,.13-.06l1.34-1.7a.18.18,0,0,0,0-.25A.17.17,0,0,0,9.59,17.13Z"/><path class="cls-1" d="M15.67,18.83l-1.34-1.7a.17.17,0,0,0-.24,0,.18.18,0,0,0,0,.25l1.34,1.7a.17.17,0,0,0,.14.06.14.14,0,0,0,.1,0A.16.16,0,0,0,15.67,18.83Z"/><path class="cls-1" d="M12,17.7a.17.17,0,0,0-.17.17V20a.17.17,0,0,0,.34,0V17.87A.17.17,0,0,0,12,17.7Z"/><rect class="cls-2" width="24" height="24"/></svg>