<svg id="Capa_1" data-name="Capa 1" xmlns="http://www.w3.org/2000/svg" viewBox="0 0 24 24"><defs><style>.cls-1{fill:#20273f;}.cls-2{fill:none;}</style></defs><path class="cls-1" d="M19.66,12.12V3.54a.29.29,0,0,0,0-.09.14.14,0,0,0,0-.07.55.55,0,0,0-.55-.55,5,5,0,0,0-1.94.35,4,4,0,0,1-1.57.29A3.94,3.94,0,0,1,14,3.18a5.06,5.06,0,0,0-1.94-.35,5.06,5.06,0,0,0-1.94.35,3.94,3.94,0,0,1-1.57.29A3.88,3.88,0,0,1,7,3.18a5.1,5.1,0,0,0-1.94-.35.55.55,0,0,0-.55.55.57.57,0,0,0,0,.18.58.58,0,0,0,0,.14v8.58h0v9.52a.55.55,0,0,0,.55.55.55.55,0,0,0,.55-.55V12.86a3.63,3.63,0,0,1,1,.25,4.91,4.91,0,0,0,1.94.35,4.83,4.83,0,0,0,1.94-.35,4,4,0,0,1,1.57-.28,4,4,0,0,1,1.57.28,4.87,4.87,0,0,0,1.94.35,4.87,4.87,0,0,0,1.94-.35,4,4,0,0,1,1.57-.28.55.55,0,0,0,.55-.55.24.24,0,0,0,0-.09S19.66,12.14,19.66,12.12ZM8.59,4.57a5,5,0,0,0,1.94-.35,3.81,3.81,0,0,1,1.57-.29,3.77,3.77,0,0,1,1.57.29,5.06,5.06,0,0,0,1.94.35,5.06,5.06,0,0,0,1.94-.35,3.45,3.45,0,0,1,1-.26V6.21a4.84,4.84,0,0,0-1.27.3,4.15,4.15,0,0,1-1.69.31,4,4,0,0,1-1.37-.2.19.19,0,0,0-.22.12.17.17,0,0,0,.12.22,4.58,4.58,0,0,0,1.47.21,4.57,4.57,0,0,0,1.81-.33,4.3,4.3,0,0,1,1.15-.28V9.21a4.84,4.84,0,0,0-1.27.3,4.15,4.15,0,0,1-1.69.31,4.24,4.24,0,0,1-1.7-.31,4.57,4.57,0,0,0-1.81-.33,4.57,4.57,0,0,0-1.81.33,4.24,4.24,0,0,1-1.7.31A4.22,4.22,0,0,1,6.9,9.51a4.66,4.66,0,0,0-1.26-.3V6.56a4.22,4.22,0,0,1,1.14.28,4.65,4.65,0,0,0,1.81.33,4.67,4.67,0,0,0,1.82-.33,4.15,4.15,0,0,1,1.69-.31.17.17,0,0,0,.17-.17.17.17,0,0,0-.17-.18,4.57,4.57,0,0,0-1.81.33,4.24,4.24,0,0,1-1.7.31A4.22,4.22,0,0,1,6.9,6.51a4.66,4.66,0,0,0-1.26-.3V4a3.62,3.62,0,0,1,1,.26A5.1,5.1,0,0,0,8.59,4.57Zm8.59,7.51a4,4,0,0,1-1.57.28A4,4,0,0,1,14,12.08a4.87,4.87,0,0,0-1.94-.35,4.87,4.87,0,0,0-1.94.35,4,4,0,0,1-1.57.28A3.91,3.91,0,0,1,7,12.08a5.15,5.15,0,0,0-1.39-.33V9.56a4.22,4.22,0,0,1,1.14.28,4.65,4.65,0,0,0,1.81.33,4.67,4.67,0,0,0,1.82-.33,4.15,4.15,0,0,1,1.69-.31,4.15,4.15,0,0,1,1.69.31,4.67,4.67,0,0,0,1.82.33,4.57,4.57,0,0,0,1.81-.33,4.3,4.3,0,0,1,1.15-.28v2.19A5.07,5.07,0,0,0,17.18,12.08Z"/><rect class="cls-2" width="24" height="24"/></svg>