<svg id="Capa_1" data-name="Capa 1" xmlns="http://www.w3.org/2000/svg" viewBox="0 0 24 24"><defs><style>.cls-1{fill:#20273f;}.cls-2{fill:none;}</style></defs><path class="cls-1" d="M19.86,9.11h-.55a2.85,2.85,0,0,0-2.83-2.6H5.26A2.86,2.86,0,0,0,2.4,9.36v5.28a2.86,2.86,0,0,0,2.86,2.85H16.48a2.85,2.85,0,0,0,2.83-2.6h.55a1.74,1.74,0,0,0,1.74-1.74v-2.3A1.74,1.74,0,0,0,19.86,9.11Zm-1.62,5.53a1.76,1.76,0,0,1-1.76,1.75H5.26A1.76,1.76,0,0,1,3.5,14.64V9.36A1.76,1.76,0,0,1,5.26,7.61H16.48a1.76,1.76,0,0,1,1.76,1.75v5.28Zm2.26-1.49a.64.64,0,0,1-.64.64h-.52V10.21h.52a.64.64,0,0,1,.64.64Z"/><rect class="cls-2" width="24" height="24"/></svg>