<svg id="Capa_1" data-name="Capa 1" xmlns="http://www.w3.org/2000/svg" viewBox="0 0 24 24"><defs><style>.cls-1{fill:#20273f;}.cls-2{fill:none;}</style></defs><path class="cls-1" d="M19.92,9.33H19.3A2.75,2.75,0,0,0,16.59,7H5.15A2.75,2.75,0,0,0,2.4,9.71v4.58A2.75,2.75,0,0,0,5.15,17H16.59a2.75,2.75,0,0,0,2.71-2.37h.62A1.68,1.68,0,0,0,21.6,13V11A1.68,1.68,0,0,0,19.92,9.33Zm-1.68,5a1.65,1.65,0,0,1-1.65,1.65H5.15A1.65,1.65,0,0,1,3.5,14.29V9.71A1.65,1.65,0,0,1,5.15,8.06H16.59a1.65,1.65,0,0,1,1.65,1.65v4.58ZM20.5,13a.59.59,0,0,1-.58.59h-.58V10.42h.58a.59.59,0,0,1,.58.59Z"/><path class="cls-1" d="M11.17,9.33a.55.55,0,0,0-.55.55v4.37a.55.55,0,0,0,.55.55.55.55,0,0,0,.55-.55V9.88A.54.54,0,0,0,11.17,9.33Z"/><path class="cls-1" d="M7.69,9.33a.55.55,0,0,0-.55.55v4.37a.55.55,0,0,0,.55.55.55.55,0,0,0,.55-.55V9.88A.54.54,0,0,0,7.69,9.33Z"/><path class="cls-1" d="M14.57,9.33a.54.54,0,0,0-.55.55v4.37a.55.55,0,0,0,.55.55.55.55,0,0,0,.55-.55V9.88A.55.55,0,0,0,14.57,9.33Z"/><rect class="cls-2" width="24" height="24"/></svg>