<svg id="Capa_1" data-name="Capa 1" xmlns="http://www.w3.org/2000/svg" viewBox="0 0 24 24"><defs><style>.cls-1{fill:#20273f;}.cls-2{fill:none;}</style></defs><path class="cls-1" d="M15.69,7.76a3.69,3.69,0,1,1-7.38,0,.55.55,0,1,0-1.1,0,4.79,4.79,0,0,0,9.58,0,.55.55,0,0,0-1.1,0Z"/><path class="cls-1" d="M16.26,3H7.74A4.78,4.78,0,0,0,3,7.74v8.52A4.78,4.78,0,0,0,7.74,21h8.52A4.78,4.78,0,0,0,21,16.26V7.74A4.78,4.78,0,0,0,16.26,3Zm3.67,13.29a3.68,3.68,0,0,1-3.67,3.67H7.74a3.68,3.68,0,0,1-3.67-3.67V7.74A3.68,3.68,0,0,1,7.74,4.07h8.52a3.68,3.68,0,0,1,3.67,3.67Z"/><path class="cls-1" d="M18.64,6.79a3,3,0,0,1,.3,1.31v7.8a3.05,3.05,0,0,1-3,3H8.1a3.05,3.05,0,0,1-3-3V8.1a3.05,3.05,0,0,1,3-3h7.8a3,3,0,0,1,1.18.24A.17.17,0,0,0,17.22,5a3.35,3.35,0,0,0-1.32-.27H8.1A3.39,3.39,0,0,0,4.71,8.1v7.8A3.39,3.39,0,0,0,8.1,19.29h7.8a3.39,3.39,0,0,0,3.39-3.39V8.1A3.27,3.27,0,0,0,19,6.63a.18.18,0,0,0-.23-.08A.18.18,0,0,0,18.64,6.79Z"/><rect class="cls-2" width="24" height="24"/></svg>