<svg id="Capa_1" data-name="Capa 1" xmlns="http://www.w3.org/2000/svg" viewBox="0 0 24 24"><defs><style>.cls-1{fill:#20273f;}.cls-2{fill:none;}</style></defs><path class="cls-1" d="M16.71,11.22a5.5,5.5,0,0,0-5.49-5.5.55.55,0,1,0,0,1.1,4.4,4.4,0,0,1,4.39,4.4.55.55,0,0,0,.55.55A.55.55,0,0,0,16.71,11.22Z"/><path class="cls-1" d="M5.8,11.34a.18.18,0,0,0-.17.17,5,5,0,0,0,.31,1.76.16.16,0,0,0,.16.11h.06a.18.18,0,0,0,.11-.22A4.61,4.61,0,0,1,6,11.51.18.18,0,0,0,5.8,11.34Z"/><path class="cls-1" d="M10.75,16.28A4.72,4.72,0,0,1,7,14.45a.17.17,0,0,0-.24,0,.18.18,0,0,0,0,.25,5.06,5.06,0,0,0,4,2,.16.16,0,0,0,.17-.17A.17.17,0,0,0,10.75,16.28Z"/><path class="cls-1" d="M20.75,20l-3.41-3.42a8.15,8.15,0,1,0-.78.78L20,20.75a.51.51,0,0,0,.38.16.55.55,0,0,0,.39-.93ZM4.19,11.22a7,7,0,1,1,7,7A7,7,0,0,1,4.19,11.22Z"/><rect class="cls-2" width="24" height="24"/></svg>