<svg id="Capa_1" data-name="Capa 1" xmlns="http://www.w3.org/2000/svg" viewBox="0 0 24 24"><defs><style>.cls-1{fill:#20273f;}.cls-2{fill:none;}</style></defs><path class="cls-1" d="M17.08,3.38v-.8A.55.55,0,0,0,16.53,2a.54.54,0,0,0-.55.55v.78H8V2.58A.54.54,0,0,0,7.47,2a.55.55,0,0,0-.55.55v.8A4.69,4.69,0,0,0,2.4,8.05v9.24A4.69,4.69,0,0,0,7.08,22h9.84a4.69,4.69,0,0,0,4.68-4.68V8.05A4.69,4.69,0,0,0,17.08,3.38ZM6.92,4.48V6.27a.55.55,0,0,0,.55.55A.55.55,0,0,0,8,6.27V4.46h8V6.27a.55.55,0,0,0,.55.55.55.55,0,0,0,.55-.55V4.48A3.58,3.58,0,0,1,20.5,8.05V8.3H3.5V8.05A3.58,3.58,0,0,1,6.92,4.48Zm10,16.39H7.08A3.59,3.59,0,0,1,3.5,17.29V9.4h17v7.89A3.59,3.59,0,0,1,16.92,20.87Z"/><path class="cls-1" d="M8,11.11H7a1,1,0,0,0-1,1v1a1,1,0,0,0,1,1H8a1,1,0,0,0,1-1v-1A1,1,0,0,0,8,11.11Zm.68,2a.68.68,0,0,1-.68.68H7a.68.68,0,0,1-.67-.68v-1A.67.67,0,0,1,7,11.46H8a.67.67,0,0,1,.68.68Z"/><path class="cls-1" d="M12.48,11.11h-1a1,1,0,0,0-1,1v1a1,1,0,0,0,1,1h1a1,1,0,0,0,1-1v-1A1,1,0,0,0,12.48,11.11Zm.68,2a.69.69,0,0,1-.68.68h-1a.69.69,0,0,1-.68-.68v-1a.68.68,0,0,1,.68-.68h1a.68.68,0,0,1,.68.68Z"/><path class="cls-1" d="M17,11.11h-1a1,1,0,0,0-1,1v1a1,1,0,0,0,1,1h1a1,1,0,0,0,1-1v-1A1,1,0,0,0,17,11.11Zm.68,2a.69.69,0,0,1-.68.68h-1a.68.68,0,0,1-.68-.68v-1a.67.67,0,0,1,.68-.68h1a.68.68,0,0,1,.68.68Z"/><path class="cls-1" d="M8,15.14H7a1,1,0,0,0-1,1v1a1,1,0,0,0,1,1H8a1,1,0,0,0,1-1v-1A1,1,0,0,0,8,15.14Zm.68,2a.68.68,0,0,1-.68.68H7a.68.68,0,0,1-.67-.68v-1A.67.67,0,0,1,7,15.49H8a.67.67,0,0,1,.68.68Z"/><path class="cls-1" d="M12.48,15.14h-1a1,1,0,0,0-1,1v1a1,1,0,0,0,1,1h1a1,1,0,0,0,1-1v-1A1,1,0,0,0,12.48,15.14Zm.68,2a.69.69,0,0,1-.68.68h-1a.69.69,0,0,1-.68-.68v-1a.68.68,0,0,1,.68-.68h1a.68.68,0,0,1,.68.68Z"/><path class="cls-1" d="M17,15.14h-1a1,1,0,0,0-1,1v1a1,1,0,0,0,1,1h1a1,1,0,0,0,1-1v-1A1,1,0,0,0,17,15.14Zm.68,2a.69.69,0,0,1-.68.68h-1a.68.68,0,0,1-.68-.68v-1a.67.67,0,0,1,.68-.68h1a.68.68,0,0,1,.68.68Z"/><rect class="cls-2" width="24" height="24"/></svg>