<svg id="Capa_1" data-name="Capa 1" xmlns="http://www.w3.org/2000/svg" viewBox="0 0 24 24"><defs><style>.cls-1{fill:#20273f;}.cls-2{fill:none;}</style></defs><path class="cls-1" d="M17.13,9.34V7.53a5.13,5.13,0,1,0-10.26,0V9.34a3.74,3.74,0,0,0-2.29,3.45v5.07A3.74,3.74,0,0,0,8.32,21.6h7.36a3.74,3.74,0,0,0,3.74-3.74V12.79A3.74,3.74,0,0,0,17.13,9.34ZM8,7.53a4,4,0,0,1,8.06,0V9.08c-.12,0-.23,0-.35,0H8.32c-.12,0-.23,0-.35,0ZM18.32,17.86a2.64,2.64,0,0,1-2.64,2.64H8.32a2.64,2.64,0,0,1-2.64-2.64V12.79a2.64,2.64,0,0,1,2.64-2.64h7.36a2.64,2.64,0,0,1,2.64,2.64Z"/><path class="cls-1" d="M17.12,12.8A.18.18,0,0,0,17,13v4.71a1.74,1.74,0,0,1-1.74,1.74H8.79a1.74,1.74,0,0,1-1.74-1.74V13a1.74,1.74,0,0,1,1.74-1.74h6.42a.18.18,0,0,0,.17-.17.18.18,0,0,0-.17-.18H8.79A2.1,2.1,0,0,0,6.7,13v4.71a2.1,2.1,0,0,0,2.09,2.09h6.42a2.1,2.1,0,0,0,2.09-2.09V13A.18.18,0,0,0,17.12,12.8Z"/><path class="cls-1" d="M11.45,14.68V16a.55.55,0,0,0,1.1,0V14.68a.55.55,0,0,0-1.1,0Z"/><rect class="cls-2" width="24" height="24"/></svg>