<svg id="Capa_1" data-name="Capa 1" xmlns="http://www.w3.org/2000/svg" viewBox="0 0 24 24"><defs><style>.cls-1{fill:#20273f;}.cls-2{fill:none;}</style></defs><path class="cls-1" d="M17,12.79a.17.17,0,0,0-.17.17v4.66a1.73,1.73,0,0,1-1.73,1.72H8.74A1.72,1.72,0,0,1,7,17.62V13a1.73,1.73,0,0,1,1.72-1.72h6.34a.17.17,0,0,0,.18-.17.18.18,0,0,0-.18-.18H8.74A2.07,2.07,0,0,0,6.67,13v4.66a2.07,2.07,0,0,0,2.07,2.07h6.34a2.08,2.08,0,0,0,2.08-2.07V13A.18.18,0,0,0,17,12.79Z"/><path class="cls-1" d="M15.64,9.08H8.36c-.12,0-.23,0-.34,0V7.58a4,4,0,0,1,7.81-1.09.55.55,0,0,0,.68.38.56.56,0,0,0,.38-.68,5.08,5.08,0,0,0-10,1.39V9.37a3.71,3.71,0,0,0-2.27,3.41v5a3.72,3.72,0,0,0,3.71,3.71h7.28a3.72,3.72,0,0,0,3.71-3.71v-5A3.71,3.71,0,0,0,15.64,9.08Zm2.61,8.72a2.61,2.61,0,0,1-2.61,2.61H8.36A2.61,2.61,0,0,1,5.75,17.8v-5a2.61,2.61,0,0,1,2.61-2.61h7.28a2.61,2.61,0,0,1,2.61,2.61Z"/><path class="cls-1" d="M11.45,13.65v3.79a.55.55,0,0,0,1.1,0V13.65a.55.55,0,1,0-1.1,0Z"/><rect class="cls-2" width="24" height="24"/></svg>