<svg id="Capa_1" data-name="Capa 1" xmlns="http://www.w3.org/2000/svg" viewBox="0 0 24 24"><defs><style>.cls-1{fill:#20273f;}.cls-2{fill:none;}</style></defs><path class="cls-1" d="M3.14,10.3l8.61,4.34a.55.55,0,0,0,.5,0l8.61-4.34a.56.56,0,0,0,.3-.49.57.57,0,0,0-.31-.5L12.24,5.17a.57.57,0,0,0-.48,0L3.15,9.31a.57.57,0,0,0-.31.5A.56.56,0,0,0,3.14,10.3Zm8.86-4,7.36,3.54L12,13.53,4.64,9.82Z"/><path class="cls-1" d="M20.53,11.82,12,16.12l-8.53-4.3a.19.19,0,0,0-.24.08.19.19,0,0,0,.08.24l8.61,4.33a.17.17,0,0,0,.16,0l8.61-4.33a.19.19,0,0,0,.08-.24A.18.18,0,0,0,20.53,11.82Z"/><path class="cls-1" d="M20.36,13.5,12,17.71,3.64,13.5a.55.55,0,0,0-.74.25.54.54,0,0,0,.24.73l8.61,4.34a.55.55,0,0,0,.5,0l8.61-4.34a.54.54,0,0,0,.24-.73A.55.55,0,0,0,20.36,13.5Z"/><rect class="cls-2" width="24" height="24"/></svg>