<svg id="Capa_1" data-name="Capa 1" xmlns="http://www.w3.org/2000/svg" viewBox="0 0 24 24"><defs><style>.cls-1{fill:#20273f;}.cls-2{fill:none;}</style></defs><path class="cls-1" d="M21.6,9.65V9a3,3,0,0,0-3-3H13l-.27-.56a2.94,2.94,0,0,0-.72-1,3,3,0,0,0-2-.75H5.43a3,3,0,0,0-3,3V17.2a3,3,0,0,0,3,3H18.57a3,3,0,0,0,3-3V9.65Zm-3-2.5A1.86,1.86,0,0,1,20.5,9V9.1H15.64a2,2,0,0,1-1.58-.8h4.73A.17.17,0,0,0,19,8.13.17.17,0,0,0,18.79,8H13.88l-.39-.8Zm1.86,10a1.93,1.93,0,0,1-1.93,1.93H5.43A1.93,1.93,0,0,1,3.5,17.2V6.8A1.93,1.93,0,0,1,5.43,4.87H10a1.9,1.9,0,0,1,1.26.48A1.72,1.72,0,0,1,11.7,6l1.36,2.81a3,3,0,0,0,2.58,1.41H20.5Z"/><path class="cls-1" d="M12,9.48H5.21A.17.17,0,0,0,5,9.65a.17.17,0,0,0,.17.18H12a.17.17,0,0,0,.17-.18A.17.17,0,0,0,12,9.48Z"/><rect class="cls-2" width="24" height="24"/></svg>