<svg id="Capa_1" data-name="Capa 1" xmlns="http://www.w3.org/2000/svg" viewBox="0 0 24 24"><defs><style>.cls-1{fill:#20273f;}.cls-2{fill:none;}</style></defs><path class="cls-1" d="M6.46,17.3a1,1,0,0,0,0,1.37,1,1,0,0,0,1.37,0A1,1,0,1,0,6.46,17.3Z"/><path class="cls-1" d="M17.16,17.3a1,1,0,0,0,0,1.37,1,1,0,0,0,1.36,0,1,1,0,1,0-1.36-1.37Z"/><path class="cls-1" d="M19.49,7.79a.57.57,0,0,0-.43-.19H6.17c-.08-.33-.16-.67-.23-1A2.58,2.58,0,0,0,3.48,4.5H2.92a.55.55,0,0,0-.53.56A.57.57,0,0,0,3,5.61h.53A1.48,1.48,0,0,1,4.86,6.84c.51,2.27,1.21,4.51,1.84,6.41A3.8,3.8,0,0,0,10.14,16h1c1.19,0,1.79,0,3-.06l.9,0A4.23,4.23,0,0,0,18.67,13a29.81,29.81,0,0,0,.74-3.51c.06-.36.12-.75.2-1.21A.61.61,0,0,0,19.49,7.79Zm-1.08.91q0,.3-.09.57c-.06.39-.12.75-.18,1.11H16.29a.17.17,0,0,0-.18.17.18.18,0,0,0,.18.18h1.78c-.11.55-.24,1.14-.45,1.91a1.08,1.08,0,0,1-.08.19H7.72c-.22-.66-.45-1.37-.67-2.1h7.37a.17.17,0,0,0,.17-.18.16.16,0,0,0-.17-.17H6.94c-.16-.55-.33-1.11-.48-1.68ZM15,14.8l-.91,0c-1.49.05-2.05.07-3.93.06a2.69,2.69,0,0,1-2.29-1.71h9.51A3.05,3.05,0,0,1,15,14.8Z"/><rect class="cls-2" width="24" height="24"/></svg>