<svg id="Capa_1" data-name="Capa 1" xmlns="http://www.w3.org/2000/svg" viewBox="0 0 24 24"><defs><style>.cls-1{fill:#20273f;}.cls-2{fill:none;}</style></defs><path class="cls-1" d="M18.19,5.8a.8.8,0,0,0,0-.15A3.55,3.55,0,0,0,14.63,2.4H9.37A3.55,3.55,0,0,0,5.84,5.65a.8.8,0,0,0,0,.15.43.43,0,0,0,0,0s0,.07,0,.11V18A3.56,3.56,0,0,0,9.37,21.6h5.26A3.56,3.56,0,0,0,18.19,18V6s0-.07,0-.11A.43.43,0,0,0,18.19,5.8ZM6.91,6.35H17.09v10H6.91ZM9.37,3.5h5.26A2.44,2.44,0,0,1,17,5.25H7A2.44,2.44,0,0,1,9.37,3.5Zm5.26,17H9.37A2.46,2.46,0,0,1,6.91,18v-.61H17.09V18A2.46,2.46,0,0,1,14.63,20.5Z"/><circle class="cls-1" cx="12.01" cy="18.94" r="0.76"/><path class="cls-1" d="M11.37,4.54h1.34a.18.18,0,0,0,.17-.17.18.18,0,0,0-.17-.18H11.37a.18.18,0,0,0-.18.18A.18.18,0,0,0,11.37,4.54Z"/><rect class="cls-2" width="24" height="24"/></svg>