<svg id="Capa_1" data-name="Capa 1" xmlns="http://www.w3.org/2000/svg" viewBox="0 0 24 24"><defs><style>.cls-1{fill:#20273f;}.cls-2{fill:none;}</style></defs><path class="cls-1" d="M15.41,4.66H8.59A3.93,3.93,0,0,0,4.66,8.59v6.82a3.93,3.93,0,0,0,3.93,3.93h6.82a3.93,3.93,0,0,0,3.93-3.93V8.59A3.93,3.93,0,0,0,15.41,4.66Zm2.83,10.75a2.83,2.83,0,0,1-2.83,2.83H8.59a2.83,2.83,0,0,1-2.83-2.83V8.59A2.83,2.83,0,0,1,8.59,5.76h6.82a2.83,2.83,0,0,1,2.83,2.83Z"/><path class="cls-1" d="M16.68,8.08a.19.19,0,0,0-.08.24,2,2,0,0,1,.21.9v5.46a2.09,2.09,0,0,1-2.08,2.08H9.27a2.08,2.08,0,0,1-2.08-2.08V9.22A2.08,2.08,0,0,1,9.27,7.14h5.46a2.05,2.05,0,0,1,.81.16.18.18,0,0,0,.23-.09.19.19,0,0,0-.1-.23,2.36,2.36,0,0,0-.94-.19H9.27A2.43,2.43,0,0,0,6.84,9.22v5.46a2.43,2.43,0,0,0,2.43,2.43h5.46a2.43,2.43,0,0,0,2.43-2.43V9.22a2.38,2.38,0,0,0-.24-1.05A.18.18,0,0,0,16.68,8.08Z"/><path class="cls-1" d="M14.59,9.37l-2.81,3.51L10.3,11.57a.53.53,0,0,0-.77,0,.54.54,0,0,0,0,.78l1.91,1.7a.55.55,0,0,0,.37.14h0a.56.56,0,0,0,.39-.21l3.17-4a.55.55,0,1,0-.86-.69Z"/><rect class="cls-2" width="24" height="24"/></svg>