<svg id="Capa_1" data-name="Capa 1" xmlns="http://www.w3.org/2000/svg" viewBox="0 0 24 24"><defs><style>.cls-1{fill:#20273f;}.cls-2{fill:none;}</style></defs><path class="cls-1" d="M16.28,8.81a.16.16,0,0,0,0,.24,5.18,5.18,0,1,1-1.52-1.43A.18.18,0,0,0,15,7.56a.18.18,0,0,0-.06-.24,5.56,5.56,0,1,0,1.62,1.53A.16.16,0,0,0,16.28,8.81Z"/><path class="cls-1" d="M12,8.64A3.39,3.39,0,1,0,15.39,12,3.39,3.39,0,0,0,12,8.64Zm0,5.68A2.29,2.29,0,1,1,14.29,12,2.3,2.3,0,0,1,12,14.32Z"/><path class="cls-1" d="M20.28,14l-.48-.82A2.45,2.45,0,0,1,19.49,12v0a2.45,2.45,0,0,1,.31-1.18l.48-.82a2.78,2.78,0,0,0-2.4-4.16H17a2.35,2.35,0,0,1-1.23-.35,2.29,2.29,0,0,1-.86-.86l-.46-.79a2.78,2.78,0,0,0-4.8,0l-.46.79a2.4,2.4,0,0,1-.9.89,2.36,2.36,0,0,1-1.19.32H6.12A2.78,2.78,0,0,0,3.72,10l.48.82a2.44,2.44,0,0,1,0,2.38L3.72,14a2.78,2.78,0,0,0,2.4,4.16h.93a2.35,2.35,0,0,1,1.23.35,2.29,2.29,0,0,1,.86.86l.46.79a2.78,2.78,0,0,0,4.8,0l.46-.79a2.4,2.4,0,0,1,.9-.89A2.36,2.36,0,0,1,17,18.17h.93A2.78,2.78,0,0,0,20.28,14Zm-1,2.22a1.64,1.64,0,0,1-1.44.84H17a3.62,3.62,0,0,0-3,1.76l-.45.79a1.68,1.68,0,0,1-2.9,0l-.45-.79a3.58,3.58,0,0,0-3-1.76H6.12a1.64,1.64,0,0,1-1.44-.84,1.62,1.62,0,0,1,0-1.67l.47-.82a3.52,3.52,0,0,0,0-3.48l-.47-.82a1.62,1.62,0,0,1,0-1.67,1.64,1.64,0,0,1,1.44-.84h.93a3.43,3.43,0,0,0,1.78-.5A3.34,3.34,0,0,0,10.1,5.17l.45-.79a1.68,1.68,0,0,1,2.9,0l.45.79a3.53,3.53,0,0,0,1.31,1.29A3.44,3.44,0,0,0,17,6.93h.93a1.64,1.64,0,0,1,1.44.84,1.62,1.62,0,0,1,0,1.67l-.47.82A3.47,3.47,0,0,0,18.39,12v0a3.47,3.47,0,0,0,.46,1.73l.47.82A1.62,1.62,0,0,1,19.32,16.23Z"/><rect class="cls-2" width="24" height="24"/></svg>