<svg id="Capa_1" data-name="Capa 1" xmlns="http://www.w3.org/2000/svg" viewBox="0 0 24 24"><defs><style>.cls-1{fill:#20273f;}.cls-2{fill:none;}</style></defs><path class="cls-1" d="M20.45,11.45H17.32a5.24,5.24,0,0,0-1.17-2.82l2.21-2.21a.55.55,0,1,0-.78-.78L15.37,7.85a5.32,5.32,0,0,0-2.82-1.17V3.55a.55.55,0,0,0-1.1,0V6.68A5.43,5.43,0,0,0,8.63,7.85L6.42,5.64a.55.55,0,1,0-.78.78L7.85,8.63a5.34,5.34,0,0,0-1.16,2.82H3.55a.55.55,0,0,0,0,1.1H6.69a5.34,5.34,0,0,0,1.16,2.82L5.64,17.58a.55.55,0,0,0,.78.78l2.21-2.21a5.43,5.43,0,0,0,2.82,1.17v3.13a.55.55,0,1,0,1.1,0V17.32a5.32,5.32,0,0,0,2.82-1.17l2.21,2.21a.55.55,0,0,0,.78-.78l-2.21-2.21a5.24,5.24,0,0,0,1.17-2.82h3.13a.55.55,0,1,0,0-1.1Zm-7.9-2a2.64,2.64,0,0,1,0,5.18ZM7.73,12a4.28,4.28,0,0,1,3.72-4.22v8.44A4.28,4.28,0,0,1,7.73,12Zm4.82,4.22V15a3,3,0,0,0,0-5.9V7.78a4.25,4.25,0,0,1,0,8.44Z"/><rect class="cls-2" width="24" height="24"/></svg>