<svg id="Capa_1" data-name="Capa 1" xmlns="http://www.w3.org/2000/svg" viewBox="0 0 24 24"><defs><style>.cls-1{fill:#20273f;}.cls-2{fill:none;}</style></defs><path class="cls-1" d="M12.1,6.32a3.75,3.75,0,1,0,3.75,3.75A3.76,3.76,0,0,0,12.1,6.32Zm0,6.4a2.65,2.65,0,1,1,2.65-2.65A2.65,2.65,0,0,1,12.1,12.72Z"/><path class="cls-1" d="M16.55,2.4H7.45A5,5,0,0,0,2.4,7.45v9.1a5,5,0,0,0,1.92,3.94s0,0,0,.05l.14.09.33.22c.16.09.31.18.48.26l.32.14a4.56,4.56,0,0,0,.6.18l.28.08a5.87,5.87,0,0,0,.94.09h9.1a5.87,5.87,0,0,0,.94-.09l.28-.07c.2-.06.4-.11.6-.19l.32-.14a5.42,5.42,0,0,0,.48-.26l.33-.22.14-.09s0,0,0-.05a5,5,0,0,0,1.92-3.94V7.45A5,5,0,0,0,16.55,2.4ZM7.45,20.5a4.17,4.17,0,0,1-.71-.07l-.18,0A3.09,3.09,0,0,1,6,20.22l-.14,0a3.74,3.74,0,0,1-.52-.28A3.34,3.34,0,0,1,6,19a8.49,8.49,0,0,1,11.88-.11,3.41,3.41,0,0,1,.74,1.05,3.74,3.74,0,0,1-.52.28l-.14,0a3.27,3.27,0,0,1-.53.17l-.19,0a4.17,4.17,0,0,1-.71.07ZM20.5,16.55a3.93,3.93,0,0,1-1,2.61,4.18,4.18,0,0,0-.83-1.11l-.13-.11a3.35,3.35,0,0,0,.72-2.06V8.12a3.3,3.3,0,0,0-.42-1.63.17.17,0,0,0-.24-.07.18.18,0,0,0-.06.24,3.07,3.07,0,0,1,.37,1.46v7.76a3,3,0,0,1-.63,1.83,9.54,9.54,0,0,0-12.53,0,3,3,0,0,1-.64-1.84V8.12a3,3,0,0,1,3-3h7.76a3,3,0,0,1,1.26.27.17.17,0,0,0,.14-.32,3.36,3.36,0,0,0-1.4-.3H8.12A3.37,3.37,0,0,0,4.75,8.12v7.76A3.42,3.42,0,0,0,5.48,18l-.24.21a4.29,4.29,0,0,0-.73,1,3.93,3.93,0,0,1-1-2.61V7.45a4,4,0,0,1,4-3.95h9.1a4,4,0,0,1,3.95,4Z"/><rect class="cls-2" width="24" height="24"/></svg>