<svg id="Capa_1" data-name="Capa 1" xmlns="http://www.w3.org/2000/svg" viewBox="0 0 24 24"><defs><style>.cls-1{fill:#20273f;}.cls-2{fill:none;}</style></defs><path class="cls-1" d="M21.27,17.71,13.6,4.44a1.84,1.84,0,0,0-3.2,0L2.73,17.71a1.86,1.86,0,0,0,1.61,2.78H19.66a1.86,1.86,0,0,0,1.61-2.78Zm-1,1.3a.72.72,0,0,1-.65.38H4.34a.76.76,0,0,1-.65-1.13L11.35,5a.78.78,0,0,1,1.3,0l7.66,13.27A.72.72,0,0,1,20.31,19Z"/><path class="cls-1" d="M15.72,11.5a.18.18,0,0,0-.24-.07.17.17,0,0,0-.07.24L19,17.79a.47.47,0,0,1,0,.43.43.43,0,0,1-.38.22H5.43a.43.43,0,0,1-.38-.22.47.47,0,0,1,0-.43L11.63,6.41a.44.44,0,0,1,.74,0l2,3.49a.18.18,0,0,0,.24.07.18.18,0,0,0,.06-.24l-2-3.5a.77.77,0,0,0-1.34,0L4.75,17.62a.78.78,0,0,0,.68,1.17H18.57a.78.78,0,0,0,.68-1.17Z"/><path class="cls-1" d="M12.55,10.36a.55.55,0,0,0-1.1,0v4.07a.55.55,0,0,0,1.1,0Z"/><path class="cls-1" d="M12,15.47a.55.55,0,0,0-.55.55v.58a.55.55,0,0,0,1.1,0V16A.55.55,0,0,0,12,15.47Z"/><rect class="cls-2" width="24" height="24"/></svg>