<svg id="Capa_1" data-name="Capa 1" xmlns="http://www.w3.org/2000/svg" viewBox="0 0 24 24"><defs><style>.cls-1{fill:#20273f;}.cls-2{fill:none;}</style></defs><path class="cls-1" d="M15.45,8.44a.18.18,0,0,0-.18.18v6.76a1.44,1.44,0,0,1-1.43,1.44H5.14a1.44,1.44,0,0,1-1.43-1.44V8.62A1.44,1.44,0,0,1,5.14,7.18h8.7A.18.18,0,0,0,14,7a.18.18,0,0,0-.18-.18H5.14A1.79,1.79,0,0,0,3.36,8.62v6.76a1.79,1.79,0,0,0,1.78,1.79h8.7a1.79,1.79,0,0,0,1.78-1.79V8.62A.17.17,0,0,0,15.45,8.44Z"/><path class="cls-1" d="M21.71,6.93a2,2,0,0,0-2,0L17.89,8a3.64,3.64,0,0,0-3.63-3.45H4.73A3.66,3.66,0,0,0,1.07,8.18v7.64a3.66,3.66,0,0,0,3.66,3.66h9.53a3.65,3.65,0,0,0,3.65-3.6L19.6,17a2.1,2.1,0,0,0,1.1.32,2,2,0,0,0,1-.25,2.54,2.54,0,0,0,1.25-2.27V9.18A2.54,2.54,0,0,0,21.71,6.93Zm-4.89,8.89a2.56,2.56,0,0,1-2.56,2.56H4.73a2.56,2.56,0,0,1-2.56-2.56V8.18A2.56,2.56,0,0,1,4.73,5.62h9.53a2.56,2.56,0,0,1,2.56,2.56v7.64Zm5-1.06a1.48,1.48,0,0,1-.68,1.31.94.94,0,0,1-1,0l-2.27-1.45V9.24l2.31-1.35a.93.93,0,0,1,.94,0,1.48,1.48,0,0,1,.66,1.3Z"/><rect class="cls-2" width="24" height="24"/></svg>