<svg id="Capa_1" data-name="Capa 1" xmlns="http://www.w3.org/2000/svg" viewBox="0 0 24 24"><defs><style>.cls-1{fill:#20273f;}.cls-2{fill:none;}</style></defs><path class="cls-1" d="M11.91,8.13A4.9,4.9,0,1,0,16.8,13,4.9,4.9,0,0,0,11.91,8.13Zm0,8.69A3.8,3.8,0,1,1,15.7,13,3.8,3.8,0,0,1,11.91,16.82Z"/><path class="cls-1" d="M14.43,12.17A2.66,2.66,0,0,1,9.7,14.51a2.65,2.65,0,0,1-.4-2,2.66,2.66,0,0,1,3.12-2.11,2.59,2.59,0,0,1,1,.4.18.18,0,0,0,.25,0,.19.19,0,0,0-.05-.25A3,3,0,1,0,11.34,16a2.78,2.78,0,0,0,.58.05,3,3,0,0,0,2.84-4,.17.17,0,0,0-.22-.11A.18.18,0,0,0,14.43,12.17Z"/><path class="cls-1" d="M17.18,8.69a.76.76,0,0,0,1.07,1.07.76.76,0,0,0-1.07-1.07Z"/><path class="cls-1" d="M17.75,5.64h-2L15.3,5a2.8,2.8,0,0,0-2.36-1.28H10.88A2.8,2.8,0,0,0,8.52,5l-.43.67H6.25A3.84,3.84,0,0,0,2.4,9.48v7a3.85,3.85,0,0,0,3.85,3.85h11.5a3.85,3.85,0,0,0,3.85-3.85v-7A3.84,3.84,0,0,0,17.75,5.64ZM20.5,16.46a2.75,2.75,0,0,1-2.75,2.75H6.25A2.75,2.75,0,0,1,3.5,16.46v-7A2.75,2.75,0,0,1,6.25,6.74H8.39a.54.54,0,0,0,.46-.26l.59-.91a1.7,1.7,0,0,1,1.44-.78h2.06a1.72,1.72,0,0,1,1.44.78l.59.91a.54.54,0,0,0,.46.26h2.32A2.75,2.75,0,0,1,20.5,9.48Z"/><rect class="cls-2" width="24" height="24"/></svg>