<svg id="Capa_1" data-name="Capa 1" xmlns="http://www.w3.org/2000/svg" viewBox="0 0 24 24"><defs><style>.cls-1{fill:#20273f;}.cls-2{fill:none;}</style></defs><path class="cls-1" d="M8.17,18.19h7.66a3.35,3.35,0,0,0,3.34-3.34V7.2A.18.18,0,0,0,19,7a.17.17,0,0,0-.17.18v7.65a3,3,0,0,1-3,3H8.17a3,3,0,0,1-3-3V7.2a3,3,0,0,1,3-3h7.66A.18.18,0,0,0,16,4a.18.18,0,0,0-.17-.18H8.17A3.35,3.35,0,0,0,4.83,7.2v7.65A3.35,3.35,0,0,0,8.17,18.19Z"/><path class="cls-1" d="M20.94,12.71a.55.55,0,0,0-.55.55v2.29a3.86,3.86,0,0,1-3.86,3.86H7.47a3.86,3.86,0,0,1-3.86-3.86V13.26a.55.55,0,0,0-.55-.55.55.55,0,0,0-.55.55v2.29a5,5,0,0,0,5,5h9.06a5,5,0,0,0,5-5V13.26A.55.55,0,0,0,20.94,12.71Z"/><path class="cls-1" d="M15.27,12.38l-2.72,2V6.56a.55.55,0,0,0-1.1,0V14.4l-2.72-2a.55.55,0,1,0-.66.88l3.6,2.68h0A.5.5,0,0,0,12,16h0a.54.54,0,0,0,.22,0h0l0,0,.06,0,3.6-2.68a.55.55,0,1,0-.66-.88Z"/><rect class="cls-2" width="24" height="24"/></svg>