<svg id="Capa_1" data-name="Capa 1" xmlns="http://www.w3.org/2000/svg" viewBox="0 0 24 24"><defs><style>.cls-1{fill:#20273f;}.cls-2{fill:none;}</style></defs><path class="cls-1" d="M16.09,2.57H8a3.1,3.1,0,0,0-3.1,3.1V20.88a.56.56,0,0,0,.29.49.58.58,0,0,0,.57,0l6.36-4.24,6.2,4.24a.56.56,0,0,0,.31.09.58.58,0,0,0,.26-.06.55.55,0,0,0,.29-.49V5.67A3.1,3.1,0,0,0,16.09,2.57Zm2,15.41L16,16.6a.18.18,0,0,0-.25,0,.19.19,0,0,0,.05.25l2.25,1.51v1.44L12.44,16a.53.53,0,0,0-.61,0L6,19.85V18.26l5.57-3.52a1.14,1.14,0,0,1,1.09,0l1.64,1.11a.18.18,0,0,0,.24,0,.16.16,0,0,0,0-.24l-1.65-1.12a1.51,1.51,0,0,0-1.46,0L6,17.85V5.67a2,2,0,0,1,2-2h8.08a2,2,0,0,1,2,2Z"/><path class="cls-1" d="M15.06,6.68h-6a.55.55,0,0,0,0,1.1h6a.55.55,0,1,0,0-1.1Z"/><rect class="cls-2" width="24" height="24"/></svg>