<svg id="Capa_1" data-name="Capa 1" xmlns="http://www.w3.org/2000/svg" viewBox="0 0 24 24"><defs><style>.cls-1{fill:#20273f;}.cls-2{fill:none;}</style></defs><path class="cls-1" d="M16.09,2.59H7.91a4,4,0,0,0-4,4V17.42a4,4,0,0,0,4,4h8.18a4,4,0,0,0,4-4V6.58A4,4,0,0,0,16.09,2.59ZM19,17.42a2.89,2.89,0,0,1-2.89,2.89H7.91A2.89,2.89,0,0,1,5,17.42V6.58A2.89,2.89,0,0,1,7.91,3.69h8.18A2.89,2.89,0,0,1,19,6.58Z"/><path class="cls-1" d="M17.77,6.58a.17.17,0,0,0-.17.17v10.5a1.91,1.91,0,0,1-2,1.76H8.42a1.91,1.91,0,0,1-2-1.76V6.75A1.91,1.91,0,0,1,8.42,5h7.16a.18.18,0,0,0,.17-.18.18.18,0,0,0-.17-.17H8.42A2.26,2.26,0,0,0,6.05,6.75v10.5a2.26,2.26,0,0,0,2.37,2.11h7.16A2.26,2.26,0,0,0,18,17.25V6.75A.17.17,0,0,0,17.77,6.58Z"/><path class="cls-1" d="M8.52,7A.55.55,0,0,0,8,7.54a.54.54,0,0,0,.55.55h7.14a.55.55,0,0,0,.55-.55A.55.55,0,0,0,15.66,7Z"/><path class="cls-1" d="M16.21,10.71a.55.55,0,0,0-.55-.55H8.52a.55.55,0,0,0,0,1.1h7.14A.55.55,0,0,0,16.21,10.71Z"/><path class="cls-1" d="M8.52,13.33a.55.55,0,0,0,0,1.1H12a.55.55,0,0,0,0-1.1Z"/><rect class="cls-2" width="24" height="24"/></svg>