<svg id="Capa_1" data-name="Capa 1" xmlns="http://www.w3.org/2000/svg" viewBox="0 0 24 24"><defs><style>.cls-1{fill:#20273f;}.cls-2{fill:none;}</style></defs><path class="cls-1" d="M8.16,5.07h4.4a.18.18,0,0,0,.17-.18.18.18,0,0,0-.17-.17H8.16A3.38,3.38,0,0,0,4.78,8.09v7.76a3.38,3.38,0,0,0,3.38,3.37h7.75a3.38,3.38,0,0,0,3.38-3.37V11a.18.18,0,0,0-.17-.17.18.18,0,0,0-.18.17v4.86a3,3,0,0,1-3,3H8.16a3,3,0,0,1-3-3V8.09A3,3,0,0,1,8.16,5.07Z"/><path class="cls-1" d="M20.78,10.31a.55.55,0,0,0-.54.55c0,1.73,0,3.47-.09,5.19a4.86,4.86,0,0,1-4.35,4.36c-2.69.12-5.42.12-8.11,0a4.87,4.87,0,0,1-4.35-4.36c-.13-2.69-.13-5.41,0-8.1A4.86,4.86,0,0,1,7.69,3.59c1.79-.08,3.61-.11,5.41-.08A.55.55,0,0,0,13.65,3a.54.54,0,0,0-.54-.56c-1.82,0-3.66,0-5.48.09A5.92,5.92,0,0,0,2.24,7.89c-.13,2.73-.13,5.49,0,8.22a5.92,5.92,0,0,0,5.4,5.39c1.36.07,2.73.1,4.1.1s2.75,0,4.12-.1a5.92,5.92,0,0,0,5.39-5.39c.08-1.75.11-3.52.09-5.26A.58.58,0,0,0,20.78,10.31Z"/><path class="cls-1" d="M10.68,9.89l-.63,2.68a1.38,1.38,0,0,0,.37,1.28,1.36,1.36,0,0,0,1,.41,1.17,1.17,0,0,0,.32,0l2.68-.62a.46.46,0,0,0,.26-.15l6.63-6.63a2.07,2.07,0,0,0,.56-1.75A3.06,3.06,0,0,0,21,3.32a3,3,0,0,0-1.76-.88A2.05,2.05,0,0,0,17.45,3L10.82,9.62A.59.59,0,0,0,10.68,9.89Zm8.39-6.36a1.9,1.9,0,0,1,1.11.57,1.93,1.93,0,0,1,.57,1.1,1,1,0,0,1-.25.85L20,6.59l-2.35-2.2.62-.62A1,1,0,0,1,19.07,3.53Zm-7.36,6.76,5.13-5.12,2.34,2.19L14,12.56l-2.52.59a.27.27,0,0,1-.26-.07.31.31,0,0,1-.08-.27Z"/><rect class="cls-2" width="24" height="24"/></svg>