<svg id="Capa_1" data-name="Capa 1" xmlns="http://www.w3.org/2000/svg" viewBox="0 0 24 24"><defs><style>.cls-1{fill:#20273f;}.cls-2{fill:none;}</style></defs><path class="cls-1" d="M19.4,9.65a.55.55,0,0,0-.49-.33l-4.76-.08,2-5.35a.56.56,0,0,0-.06-.5.54.54,0,0,0-.45-.24H10.85a.56.56,0,0,0-.51.33L6.45,12.29a.53.53,0,0,0,0,.52.54.54,0,0,0,.46.25h4L9.19,20.17a.56.56,0,0,0,.28.62.57.57,0,0,0,.25.06.54.54,0,0,0,.42-.19l9.17-10.43A.52.52,0,0,0,19.4,9.65Zm-8.61,8.6,1.38-5.61a.54.54,0,0,0-.1-.47.55.55,0,0,0-.43-.21H7.8l3.41-7.71h3.66l-2,5.33a.56.56,0,0,0,.06.5.54.54,0,0,0,.45.24l4.35.08Z"/><path class="cls-1" d="M7.7,4.71a.18.18,0,0,0-.23.09L4.7,11.33a.17.17,0,0,0,.09.23h.07a.18.18,0,0,0,.16-.1L7.79,4.94A.17.17,0,0,0,7.7,4.71Z"/><path class="cls-1" d="M19,13.23,14,19a.18.18,0,0,0,0,.25.19.19,0,0,0,.12,0,.16.16,0,0,0,.13-.06l5-5.77a.18.18,0,0,0,0-.25A.18.18,0,0,0,19,13.23Z"/><rect class="cls-2" width="24" height="24"/></svg>