<svg id="Capa_1" data-name="Capa 1" xmlns="http://www.w3.org/2000/svg" viewBox="0 0 24 24"><defs><style>.cls-1{fill:#20273f;}.cls-2{fill:none;}</style></defs><path class="cls-1" d="M14.54,9.71a.55.55,0,0,0-.55.55v4a.55.55,0,0,0,.55.55.55.55,0,0,0,.55-.55v-4A.54.54,0,0,0,14.54,9.71Z"/><path class="cls-1" d="M12.68,6.62a.18.18,0,0,0-.17.18V17.47a.18.18,0,0,0,.17.17.18.18,0,0,0,.18-.17V6.8A.18.18,0,0,0,12.68,6.62Z"/><path class="cls-1" d="M16.4,6.62a.18.18,0,0,0-.17.18V17.47a.18.18,0,0,0,.17.17.18.18,0,0,0,.18-.17V6.8A.18.18,0,0,0,16.4,6.62Z"/><path class="cls-1" d="M21.05,10.31a.55.55,0,0,0,.55-.55V8.51a3.85,3.85,0,0,0-3.85-3.85H6.25A3.85,3.85,0,0,0,2.4,8.51V9.76a.55.55,0,0,0,.55.55,1.93,1.93,0,0,1,0,3.85.54.54,0,0,0-.55.55v.78a3.85,3.85,0,0,0,3.85,3.85h11.5a3.85,3.85,0,0,0,3.85-3.85v-.78a.54.54,0,0,0-.55-.55,1.93,1.93,0,0,1,0-3.85Zm-.55,4.9v.28a2.75,2.75,0,0,1-2.75,2.75H15.09V15.83a.55.55,0,0,0-.55-.55.55.55,0,0,0-.55.55v2.41H6.25A2.75,2.75,0,0,1,3.5,15.49v-.28a3,3,0,0,0,0-6V8.51A2.75,2.75,0,0,1,6.25,5.76H14v2.6a.55.55,0,0,0,.55.55.55.55,0,0,0,.55-.55V5.76h2.66A2.75,2.75,0,0,1,20.5,8.51v.75a3,3,0,0,0,0,6Z"/><rect class="cls-2" width="24" height="24"/></svg>