<svg id="Capa_1" data-name="Capa 1" xmlns="http://www.w3.org/2000/svg" viewBox="0 0 24 24"><defs><style>.cls-1{fill:#20273f;}.cls-2{fill:none;}</style></defs><path class="cls-1" d="M16,3.53H8A4.49,4.49,0,0,0,3.55,8a.55.55,0,0,0,.55.55A.55.55,0,0,0,4.65,8,3.39,3.39,0,0,1,8,4.63H16A3.39,3.39,0,0,1,19.35,8v8A3.39,3.39,0,0,1,16,19.37H8A3.39,3.39,0,0,1,4.65,16a.55.55,0,0,0-.55-.55.55.55,0,0,0-.55.55A4.49,4.49,0,0,0,8,20.47H16A4.49,4.49,0,0,0,20.45,16V8A4.49,4.49,0,0,0,16,3.53Z"/><path class="cls-1" d="M15.38,18H8.62A2.62,2.62,0,0,1,6,15.39a.17.17,0,0,0-.18-.17.17.17,0,0,0-.17.17,3,3,0,0,0,3,3h6.76a3,3,0,0,0,3-3V8.61a3,3,0,0,0-3-3H8.62a3,3,0,0,0-3,3,.17.17,0,0,0,.17.17A.17.17,0,0,0,6,8.61,2.62,2.62,0,0,1,8.62,6h6.76A2.62,2.62,0,0,1,18,8.61v6.78A2.62,2.62,0,0,1,15.38,18Z"/><path class="cls-1" d="M5.32,12a.55.55,0,0,0,.55.55h6.8L11,14.86a.55.55,0,0,0,.11.77.52.52,0,0,0,.33.11.56.56,0,0,0,.44-.22l2.33-3.14a.55.55,0,0,0,.14-.32s0,0,0-.06a.51.51,0,0,0,0-.17s0-.05,0-.08,0,0,0-.05h0L11.84,8.51a.55.55,0,0,0-.88.66l1.69,2.28H5.87A.55.55,0,0,0,5.32,12Z"/><rect class="cls-2" width="24" height="24"/></svg>