<svg id="Capa_1" data-name="Capa 1" xmlns="http://www.w3.org/2000/svg" viewBox="0 0 24 24"><defs><style>.cls-1{fill:none;}.cls-2{fill:#20273f;}</style></defs><rect class="cls-1" width="24" height="24"/><path class="cls-2" d="M21,3a1,1,0,0,0-1-.24L3.42,7.91a1,1,0,0,0-.69.91,1,1,0,0,0,.64.95l7.89,3,3,7.9a1,1,0,0,0,.91.63h0a1,1,0,0,0,.91-.7L21.23,4A1,1,0,0,0,21,3ZM17.9,4.57l-4,1.69a.17.17,0,0,0,.14.32L19.9,4.09,14.18,17.3l-1.85-4.82,3.16-2.86a.55.55,0,0,0,0-.77.54.54,0,0,0-.78,0l-3.19,2.88-5-1.89,4-1.72a.17.17,0,1,0-.14-.32L6.1,9.62l-2-.76ZM15.19,19.94l-.83-2.18L19.48,5.93Z"/><rect class="cls-1" width="24" height="24"/></svg>