<svg id="Capa_1" data-name="Capa 1" xmlns="http://www.w3.org/2000/svg" viewBox="0 0 24 24"><defs><style>.cls-1{fill:#20273f;}.cls-2{fill:none;}</style></defs><path class="cls-1" d="M17.75,4.64H6.25A3.86,3.86,0,0,0,2.4,8.5v7a3.86,3.86,0,0,0,3.85,3.86h11.5A3.86,3.86,0,0,0,21.6,15.5v-7A3.86,3.86,0,0,0,17.75,4.64ZM20.5,15.5a2.76,2.76,0,0,1-2.75,2.76H6.25A2.76,2.76,0,0,1,3.5,15.5v-7A2.76,2.76,0,0,1,6.25,5.74h11.5A2.76,2.76,0,0,1,20.5,8.5Z"/><path class="cls-1" d="M19.33,8.7a.18.18,0,0,0-.18.18v6.24a2,2,0,0,1-2,2H6.86a2,2,0,0,1-2-2V8.88a2,2,0,0,1,2-2H17.14a.17.17,0,0,0,.17-.18.16.16,0,0,0-.17-.17H6.86A2.36,2.36,0,0,0,4.5,8.88v6.24a2.36,2.36,0,0,0,2.36,2.36H17.14a2.36,2.36,0,0,0,2.36-2.36V8.88A.18.18,0,0,0,19.33,8.7Z"/><path class="cls-1" d="M15,8.69a1.52,1.52,0,0,0-1.1.66l-2,3a.4.4,0,0,1-.51.14l-1.76-.88a1.49,1.49,0,0,0-1.73.28l-1.95,2a.55.55,0,0,0,0,.78.56.56,0,0,0,.78,0l2-2a.38.38,0,0,1,.46-.08l1.76.88A1.5,1.5,0,0,0,12.81,13l2-3a.39.39,0,0,1,.3-.17.41.41,0,0,1,.32.11l1.81,1.83A.55.55,0,0,0,18,11L16.22,9.13A1.5,1.5,0,0,0,15,8.69Z"/><rect class="cls-2" width="24" height="24"/></svg>