<svg id="Capa_1" data-name="Capa 1" xmlns="http://www.w3.org/2000/svg" viewBox="0 0 24 24"><defs><style>.cls-1{fill:#20273f;}.cls-2{fill:none;}</style></defs><path class="cls-1" d="M21.9,11.33a1.76,1.76,0,0,0,.45-1.83,1.78,1.78,0,0,0-1.43-1.21l-4.71-.68a.68.68,0,0,1-.51-.37L13.59,3a1.77,1.77,0,0,0-3.18,0L8.3,7.24a.68.68,0,0,1-.51.37l-4.71.68A1.78,1.78,0,0,0,1.65,9.5a1.76,1.76,0,0,0,.45,1.83l3.4,3.32a.7.7,0,0,1,.2.6l-.81,4.69a1.78,1.78,0,0,0,.71,1.74,1.76,1.76,0,0,0,1.87.13l4.21-2.21a.66.66,0,0,1,.64,0l4.21,2.21a1.73,1.73,0,0,0,.83.21,1.82,1.82,0,0,0,1-.34,1.78,1.78,0,0,0,.71-1.74l-.81-4.69a.7.7,0,0,1,.2-.6Zm-4.68,4.1.8,4.69a.66.66,0,0,1-.27.67.67.67,0,0,1-.71.05l-4.21-2.22a1.82,1.82,0,0,0-1.66,0L7,20.84a.67.67,0,0,1-.71-.05A.66.66,0,0,1,6,20.12l.8-4.69a1.77,1.77,0,0,0-.51-1.57L2.86,10.54a.68.68,0,0,1,.38-1.16L8,8.7a1.8,1.8,0,0,0,1.34-1l2.1-4.27a.7.7,0,0,1,1.22,0h0l2.1,4.27a1.8,1.8,0,0,0,1.34,1l4.71.68a.68.68,0,0,1,.38,1.16l-3.41,3.32A1.77,1.77,0,0,0,17.22,15.43Z"/><path class="cls-1" d="M19.1,10.35a.53.53,0,0,0-.43-.37l-3.45-.5a.18.18,0,0,0-.2.15.19.19,0,0,0,.15.2l3.44.5a.18.18,0,0,1,.16.13.17.17,0,0,1-.05.2l-2.49,2.43a1.93,1.93,0,0,0-.55,1.71l.58,3.43a.17.17,0,0,1-.07.19.2.2,0,0,1-.21,0L12.9,16.82a1.91,1.91,0,0,0-1.8,0L8,18.44a.2.2,0,0,1-.21,0,.17.17,0,0,1-.07-.19l.58-3.43a1.93,1.93,0,0,0-.55-1.71L5.28,10.66a.17.17,0,0,1,0-.2.18.18,0,0,1,.16-.13l3.44-.5a2,2,0,0,0,1.46-1.06l1.53-3.12a.21.21,0,0,1,.36,0l1.53,3.12a.19.19,0,0,0,.24.08A.18.18,0,0,0,14,8.61L12.49,5.49a.55.55,0,0,0-1,0L10,8.61a1.58,1.58,0,0,1-1.19.87L5.34,10a.55.55,0,0,0-.31.93l2.49,2.43A1.56,1.56,0,0,1,8,14.74l-.59,3.43a.57.57,0,0,0,.22.54.56.56,0,0,0,.57,0l3.08-1.62a1.55,1.55,0,0,1,1.48,0l3.08,1.62a.54.54,0,0,0,.25.06.6.6,0,0,0,.32-.1.57.57,0,0,0,.22-.54L16,14.74a1.56,1.56,0,0,1,.46-1.4L19,10.91A.53.53,0,0,0,19.1,10.35Z"/><rect class="cls-2" width="24" height="24"/></svg>