<svg id="Capa_1" data-name="Capa 1" xmlns="http://www.w3.org/2000/svg" viewBox="0 0 24 24"><defs><style>.cls-1{fill:#20273f;}.cls-2{fill:none;}</style></defs><path class="cls-1" d="M15.48,7.35a1,1,0,1,0,1.37,0A1,1,0,0,0,15.48,7.35Z"/><path class="cls-1" d="M20.16,5.69A1.79,1.79,0,0,0,18.49,4L13.7,3.64a4.29,4.29,0,0,0-3.26,1.2L4.88,10.29a4.24,4.24,0,0,0-1.28,3,4.19,4.19,0,0,0,1.21,3l2.76,2.82a4.24,4.24,0,0,0,3,1.28h0a4.22,4.22,0,0,0,3-1.21l5.56-5.45a4.2,4.2,0,0,0,1.27-3.23Zm-1.81,7.24-5.56,5.44a3.13,3.13,0,0,1-4.43,0L5.6,15.5a3.06,3.06,0,0,1-.9-2.22,3.13,3.13,0,0,1,1-2.21l5.56-5.44a3.13,3.13,0,0,1,2.19-.9h.22l4.79.33a.69.69,0,0,1,.65.67l.23,4.8A3.12,3.12,0,0,1,18.35,12.93Z"/><path class="cls-1" d="M18.16,7.62a.18.18,0,0,0-.16.19l.12,2.52a2.43,2.43,0,0,1-.72,1.84l-5.1,5a2.41,2.41,0,0,1-3.41,0L7,15.11A2.41,2.41,0,0,1,7,11.7l5.1-5a2.39,2.39,0,0,1,1.85-.68l2.57.18a.19.19,0,0,0,.19-.17.18.18,0,0,0-.17-.18L14,5.71a2.78,2.78,0,0,0-2.13.78l-5.09,5a2.76,2.76,0,0,0,0,3.91l1.94,2a2.76,2.76,0,0,0,3.91,0l5.09-4.95a2.82,2.82,0,0,0,.83-2.11l-.12-2.53A.19.19,0,0,0,18.16,7.62Z"/><rect class="cls-2" width="24" height="24"/></svg>