<svg id="Capa_1" data-name="Capa 1" xmlns="http://www.w3.org/2000/svg" viewBox="0 0 24 24"><defs><style>.cls-1{fill:#20273f;}.cls-2{fill:none;}</style></defs><path class="cls-1" d="M17.83,7.86a.17.17,0,1,0-.28.2A6.69,6.69,0,0,1,18.78,12a6.77,6.77,0,1,1-3.23-5.78.17.17,0,0,0,.24,0,.17.17,0,0,0,0-.24A7,7,0,0,0,12,4.83,7.13,7.13,0,1,0,19.13,12,7.06,7.06,0,0,0,17.83,7.86Z"/><path class="cls-1" d="M12,2.37A9.63,9.63,0,1,0,21.63,12,9.64,9.64,0,0,0,12,2.37Zm0,18.16A8.53,8.53,0,1,1,20.53,12,8.54,8.54,0,0,1,12,20.53Z"/><path class="cls-1" d="M9.85,9.47h0a.44.44,0,0,0-.19.12h0a.44.44,0,0,0-.12.19v0l-2,5.91a.55.55,0,0,0,.13.57.57.57,0,0,0,.39.16.51.51,0,0,0,.17,0l5.94-1.95h0a.76.76,0,0,0,.19-.12h0a.47.47,0,0,0,.12-.2h0l2-5.94a.55.55,0,0,0-.13-.57.56.56,0,0,0-.56-.13ZM10.26,11l2.7,2.7L8.91,15Zm3.48,1.92L11,10.23l4.05-1.35Z"/><rect class="cls-2" width="24" height="24"/></svg>