<svg id="Capa_1" data-name="Capa 1" xmlns="http://www.w3.org/2000/svg" viewBox="0 0 24 24"><defs><style>.cls-1{fill:#20273f;}.cls-2{fill:none;}</style></defs><path class="cls-1" d="M16.18,3.41A5.33,5.33,0,0,0,12,5,5.31,5.31,0,0,0,2.9,8.27a5.27,5.27,0,0,0,1.22,3.85s0,0,0,0l6.66,7.89a1.56,1.56,0,0,0,2.38,0l6.66-7.89,0,0A5.27,5.27,0,0,0,21.1,8.27h0A5.36,5.36,0,0,0,16.18,3.41Zm2.83,8,0,0-6.63,7.85a.46.46,0,0,1-.7,0L5,11.49l0,0A4.14,4.14,0,0,1,4,8.36,4.24,4.24,0,0,1,7.9,4.51a4.18,4.18,0,0,1,3.66,1.67.58.58,0,0,0,.88,0A4.18,4.18,0,0,1,16.1,4.51,4.24,4.24,0,0,1,20,8.36,4.14,4.14,0,0,1,19,11.45Z"/><path class="cls-1" d="M18.66,8.22a3.06,3.06,0,0,1-.72,2.53v0l-6,7L6,10.77v0A3.1,3.1,0,0,1,7.89,5.64a3.11,3.11,0,0,1,2.6.86h0l.83.85a.89.89,0,0,0,.63.27h0a.89.89,0,0,0,.63-.27l.81-.84v0A3.11,3.11,0,0,1,16,5.64a3,3,0,0,1,1.57.69.18.18,0,0,0,.25,0,.17.17,0,0,0,0-.24,3.35,3.35,0,0,0-1.74-.77,3.47,3.47,0,0,0-2.89,1h0c-.09.09-.49.5-.82.86a.55.55,0,0,1-.38.16h0a.55.55,0,0,1-.38-.16c-.34-.36-.74-.77-.81-.83l0,0a3.46,3.46,0,0,0-5,4.72v0l6,7a.37.37,0,0,0,.56,0l6-7v0A3.45,3.45,0,0,0,19,8.17a.18.18,0,1,0-.35.05Z"/><rect class="cls-2" width="24" height="24"/></svg>