<svg id="Capa_1" data-name="Capa 1" xmlns="http://www.w3.org/2000/svg" viewBox="0 0 24 24"><defs><style>.cls-1{fill:#20273f;}.cls-2{fill:none;}</style></defs><path class="cls-1" d="M20.38,3.36H3.62a.55.55,0,0,0-.55.55v.45a5.47,5.47,0,0,0,1.74,4L9,12.29v4.59a2.91,2.91,0,0,0,1.76,2.67l2.21,1a1.39,1.39,0,0,0,.57.12A1.43,1.43,0,0,0,15,19.21V12.29l4.21-3.93a5.47,5.47,0,0,0,1.74-4V3.91A.55.55,0,0,0,20.38,3.36Zm-.55,1.1a4.21,4.21,0,0,1-.54,2H4.71a4.21,4.21,0,0,1-.54-2Zm-5.78,7.19a.54.54,0,0,0-.17.4v7.16a.29.29,0,0,1-.15.27.31.31,0,0,1-.3,0l-2.22-1a1.81,1.81,0,0,1-1.09-1.66V12.05a.54.54,0,0,0-.17-.4L7.09,9h6.2a.17.17,0,0,0,.17-.17.18.18,0,0,0-.17-.18H6.71L5.56,7.56l0,0H18.47l0,0L17.29,8.63h-1.8a.18.18,0,0,0-.17.18.17.17,0,0,0,.17.17h1.42Z"/><rect class="cls-2" width="24" height="24"/></svg>