<svg id="Capa_1" data-name="Capa 1" xmlns="http://www.w3.org/2000/svg" viewBox="0 0 24 24"><defs><style>.cls-1{fill:#20273f;}.cls-2{fill:none;}</style></defs><path class="cls-1" d="M16.53,7.17H7.47a.55.55,0,0,0-.55.55.55.55,0,0,0,.55.55h9.06a.55.55,0,0,0,.55-.55A.55.55,0,0,0,16.53,7.17Z"/><path class="cls-1" d="M15,16.36a.18.18,0,0,0-.17.17v3H9.18v-3a.76.76,0,0,1,.77-.76h4.1a.18.18,0,0,0,.18-.18.17.17,0,0,0-.18-.17H10a1.12,1.12,0,0,0-1.12,1.11v3.16a.18.18,0,0,0,.18.18h6a.18.18,0,0,0,.18-.18V16.53A.18.18,0,0,0,15,16.36Z"/><path class="cls-1" d="M20.41,6C19.39,5,19,4.61,18,3.59A4,4,0,0,0,15.11,2.4H7.45A5,5,0,0,0,2.4,7.45v9.1A5,5,0,0,0,7.45,21.6h9.1a5,5,0,0,0,5.05-5.05V8.89A4,4,0,0,0,20.41,6ZM8,20.47V16.25a1.45,1.45,0,0,1,1.44-1.44h5.08A1.45,1.45,0,0,1,16,16.25v4.22ZM20.5,16.55a4,4,0,0,1-3.42,3.9v-4.2a2.54,2.54,0,0,0-2.54-2.54H9.46a2.54,2.54,0,0,0-2.54,2.54v4.2a4,4,0,0,1-3.42-3.9V7.45a4,4,0,0,1,4-3.95h7.66a2.92,2.92,0,0,1,2.07.86c1,1,1.43,1.45,2.45,2.46a2.89,2.89,0,0,1,.87,2.07Z"/><path class="cls-1" d="M12,10.22H7.47a.55.55,0,0,0-.55.55.55.55,0,0,0,.55.55H12a.55.55,0,0,0,.55-.55A.55.55,0,0,0,12,10.22Z"/><rect class="cls-2" width="24" height="24"/></svg>