<svg id="Capa_1" data-name="Capa 1" xmlns="http://www.w3.org/2000/svg" viewBox="0 0 24 24"><defs><style>.cls-1{fill:#20273f;}.cls-2{fill:none;}</style></defs><path class="cls-1" d="M9.07,10.55A2.33,2.33,0,1,0,6.74,8.22,2.33,2.33,0,0,0,9.07,10.55ZM9.07,7A1.23,1.23,0,1,1,7.84,8.22,1.23,1.23,0,0,1,9.07,7Z"/><path class="cls-1" d="M21.6,13.27V7.45A5.06,5.06,0,0,0,16.55,2.4H7.45A5,5,0,0,0,2.4,7.45v9.1A5,5,0,0,0,7.45,21.6h9.1a5.06,5.06,0,0,0,5.05-5.05V13.28ZM7.45,3.5h9.1a4,4,0,0,1,3.95,4v4.49L18.1,9.52A1.91,1.91,0,0,0,16.55,9a1.86,1.86,0,0,0-1.41.85l-2.93,4.4a.82.82,0,0,1-1.05.28L8.61,13.22a1.93,1.93,0,0,0-2.23.37L3.5,16.49v-9A4,4,0,0,1,7.45,3.5Zm9.1,17H7.45A3.91,3.91,0,0,1,4.4,19l3.2-3.42a.58.58,0,0,1,.68-.11l3.43,1.71a.94.94,0,0,0,1.19-.31l3.61-4.76a.55.55,0,0,1,.43-.26.58.58,0,0,1,.48.17.18.18,0,0,0,.25,0,.2.2,0,0,0,0-.25.95.95,0,0,0-1.45.14l-3.6,4.75a.6.6,0,0,1-.76.21L8.44,15.18a.94.94,0,0,0-1.09.18L4.17,18.75a3.78,3.78,0,0,1-.44-.93l3.43-3.46a.84.84,0,0,1,1-.15l2.55,1.27a1.91,1.91,0,0,0,2.46-.65l2.92-4.4a.84.84,0,0,1,.61-.37.82.82,0,0,1,.66.24l3.18,3.2v1.14l-1.76-1.76a.16.16,0,0,0-.24,0,.18.18,0,0,0,0,.25l2,2v1.42A4,4,0,0,1,16.55,20.5Z"/><rect class="cls-2" width="24" height="24"/></svg>