<svg id="Capa_1" data-name="Capa 1" xmlns="http://www.w3.org/2000/svg" viewBox="0 0 24 24"><defs><style>.cls-1{fill:#20273f;}.cls-2{fill:none;}</style></defs><path class="cls-1" d="M6.37,9.38a.75.75,0,0,0-.12,1.06A.75.75,0,1,0,7.43,9.5.75.75,0,0,0,6.37,9.38Z"/><path class="cls-1" d="M18.24,6.82h-.69V5.41A2.41,2.41,0,0,0,15.14,3H9A2.41,2.41,0,0,0,6.59,5.41V6.82H5.76a3.3,3.3,0,0,0-3.29,3.29v5a3.29,3.29,0,0,0,3.17,3.29h1v.53A2.1,2.1,0,0,0,8.68,21h6.78a2.09,2.09,0,0,0,2.09-2.09v-.53h.84a3.28,3.28,0,0,0,3.14-3.29v-5A3.3,3.3,0,0,0,18.24,6.82ZM7.69,5.41A1.31,1.31,0,0,1,9,4.1h6.14a1.31,1.31,0,0,1,1.31,1.31V6.82H7.69Zm8.76,13.5a1,1,0,0,1-1,1H8.68a1,1,0,0,1-1-1V13.12h8.76Zm4-3.82a2.18,2.18,0,0,1-2.07,2.19h-.81V13.12h.92a.54.54,0,0,0,.55-.55.55.55,0,0,0-.55-.55H5.58a.55.55,0,0,0-.55.55.55.55,0,0,0,.55.55h1v4.16H5.66a2.18,2.18,0,0,1-2.09-2.19v-5A2.19,2.19,0,0,1,5.76,7.92H18.24a2.19,2.19,0,0,1,2.19,2.19Z"/><path class="cls-1" d="M15.25,14.69H9.11a.18.18,0,0,0-.18.18.18.18,0,0,0,.18.17h6.14a.18.18,0,0,0,.18-.17A.18.18,0,0,0,15.25,14.69Z"/><path class="cls-1" d="M15.25,5.64H9.11a.18.18,0,0,0-.18.17A.18.18,0,0,0,9.11,6h6.14a.18.18,0,0,0,.18-.18A.18.18,0,0,0,15.25,5.64Z"/><path class="cls-1" d="M15.25,16.33H9.11a.18.18,0,0,0-.18.18.17.17,0,0,0,.18.17h6.14a.17.17,0,0,0,.18-.17A.18.18,0,0,0,15.25,16.33Z"/><path class="cls-1" d="M12.07,18.1h-3a.18.18,0,0,0-.18.17.18.18,0,0,0,.18.18h3a.18.18,0,0,0,.18-.18A.18.18,0,0,0,12.07,18.1Z"/><rect class="cls-2" width="24" height="24"/></svg>