<svg id="Capa_1" data-name="Capa 1" xmlns="http://www.w3.org/2000/svg" viewBox="0 0 24 24"><defs><style>.cls-1{fill:none;}.cls-2{fill:#20273f;}</style></defs><rect class="cls-1" width="24" height="24"/><path class="cls-2" d="M19.58,7.51l-5.2-3.92a4,4,0,0,0-4.76,0L4.42,7.51a4,4,0,0,0-1.57,3.16V17A4.24,4.24,0,0,0,7.08,21.2h9.84A4.24,4.24,0,0,0,21.15,17V10.67A4,4,0,0,0,19.58,7.51ZM10.4,20.1V16.38a1.6,1.6,0,0,1,3.2,0V20.1ZM20.05,17a3.14,3.14,0,0,1-3.13,3.14H14.7v-.81h1.64a2.54,2.54,0,0,0,2.54-2.54V11.08a.18.18,0,0,0-.17-.18.18.18,0,0,0-.18.18v5.67a2.19,2.19,0,0,1-2.19,2.19H14.7V16.38a2.7,2.7,0,0,0-5.4,0v2.56H7.66a2.19,2.19,0,0,1-2.19-2.19V11.08A2,2,0,0,1,6.25,9.5l4.57-3.43a2,2,0,0,1,2.36,0L17.75,9.5A.17.17,0,1,0,18,9.23L13.39,5.79a2.31,2.31,0,0,0-2.78,0L6,9.23a2.3,2.3,0,0,0-.92,1.85v5.67a2.54,2.54,0,0,0,2.54,2.54H9.3v.81H7.08A3.14,3.14,0,0,1,4,17V10.67A2.86,2.86,0,0,1,5.08,8.39l5.2-3.92a2.88,2.88,0,0,1,3.44,0l5.2,3.92a2.86,2.86,0,0,1,1.13,2.28Z"/></svg>