<svg id="Capa_1" data-name="Capa 1" xmlns="http://www.w3.org/2000/svg" viewBox="0 0 24 24"><defs><style>.cls-1{fill:#20273f;}.cls-2{fill:none;}</style></defs><path class="cls-1" d="M20.41,16.67A9.61,9.61,0,0,0,12,2.37h0A9.64,9.64,0,0,0,2.37,12h0v0a9.55,9.55,0,0,0,1.22,4.67s0,.06.06.1a9.6,9.6,0,0,0,16.7,0S20.4,16.71,20.41,16.67ZM14.8,20l-.37.13A9.51,9.51,0,0,0,15.89,17h1.55A7.61,7.61,0,0,1,14.8,20ZM6.56,17H8.11a9.51,9.51,0,0,0,1.46,3.15L9.2,20A7.61,7.61,0,0,1,6.56,17ZM3.5,12.52H5.08a11.59,11.59,0,0,0,.65,3.4H4.44A8.33,8.33,0,0,1,3.5,12.52Zm.9-4.36H5.7a11.78,11.78,0,0,0-.62,3.26H3.5A8.38,8.38,0,0,1,4.4,8.16ZM9.2,4l.37-.13A9.6,9.6,0,0,0,8.09,7.06H6.52A7.66,7.66,0,0,1,9.2,4Zm11.3,7.46H18.91a11.73,11.73,0,0,0-.26-2.05.16.16,0,0,0-.2-.13.17.17,0,0,0-.14.21,11.66,11.66,0,0,1,.25,2h-2a19.27,19.27,0,0,0-.35-3.26H19.6A8.38,8.38,0,0,1,20.5,11.42Zm-9.08-7.8V7.06H9.23C9.78,5.25,10.59,4,11.42,3.62Zm0,4.54v3.26H8.57A17.58,17.58,0,0,1,9,8.16Zm0,4.36v3.4H9a17.24,17.24,0,0,1-.4-3.4Zm0,4.5v3.36C10.61,20,9.8,18.79,9.26,17Zm1.1,3.38V17h2.22C14.19,18.82,13.36,20,12.52,20.4Zm0-4.48v-3.4h2.91a17.24,17.24,0,0,1-.4,3.4Zm2.91-4.5H12.52V8.16h2.53A17.58,17.58,0,0,1,15.43,11.42ZM12.52,7.06V3.6c.85.37,1.69,1.61,2.25,3.46Zm-4.7,1.1a19.27,19.27,0,0,0-.35,3.26h-2a11.37,11.37,0,0,1,.64-3.26ZM5.43,12.52h2a19.77,19.77,0,0,0,.37,3.4H6.09A11.47,11.47,0,0,1,5.43,12.52Zm10.73,3.4a19.77,19.77,0,0,0,.37-3.4h2a11.47,11.47,0,0,1-.66,3.4Zm2.76-3.4H20.5a8.33,8.33,0,0,1-.94,3.4H18.27A11.59,11.59,0,0,0,18.92,12.52Zm0-5.46h-3a9.6,9.6,0,0,0-1.48-3.23l.4.13a7.17,7.17,0,0,1,2,1.93.19.19,0,0,0,.25.05.2.2,0,0,0,0-.25,7.88,7.88,0,0,0-1-1.19A8.84,8.84,0,0,1,18.94,7.06ZM8,4.49A9,9,0,0,0,6.14,7.06H5.06A8.73,8.73,0,0,1,8,4.49ZM5.12,17H6.18A8.84,8.84,0,0,0,8,19.51,8.6,8.6,0,0,1,5.12,17ZM16,19.51A8.84,8.84,0,0,0,17.82,17h1.06A8.6,8.6,0,0,1,16,19.51Z"/><rect class="cls-2" width="24" height="24"/></svg>