<svg id="Capa_1" data-name="Capa 1" xmlns="http://www.w3.org/2000/svg" viewBox="0 0 24 24"><defs><style>.cls-1{fill:#20273f;}.cls-2{fill:none;}</style></defs><path class="cls-1" d="M14.08,6.8a2.82,2.82,0,0,0-2,.66,2.8,2.8,0,0,0-2-.66,2.83,2.83,0,0,0-2,4.65l3.18,3.76a1,1,0,0,0,.78.36,1,1,0,0,0,.79-.36L16,11.45a2.83,2.83,0,0,0-2-4.65Zm1.51,2.67a1.72,1.72,0,0,1-.4,1.27l-3.13,3.69-3.12-3.7a1.68,1.68,0,0,1-.4-1.26A1.73,1.73,0,0,1,10.13,7.9h.12a1.74,1.74,0,0,1,1.38.68.56.56,0,0,0,.87,0A1.71,1.71,0,0,1,14,7.9a1.73,1.73,0,0,1,1.59,1.57Z"/><path class="cls-1" d="M17.75,3.55H6.25A3.85,3.85,0,0,0,2.4,7.4v7a3.85,3.85,0,0,0,3.85,3.85H9.61L11.09,20a1.32,1.32,0,0,0,1,.47h0a1.34,1.34,0,0,0,1-.53l1.27-1.69h3.34a3.85,3.85,0,0,0,3.85-3.85v-7A3.85,3.85,0,0,0,17.75,3.55ZM20.5,14.38a2.75,2.75,0,0,1-2.75,2.75H14.13a.53.53,0,0,0-.43.22l-1.44,1.91a.24.24,0,0,1-.16.09.22.22,0,0,1-.17-.08l-1.64-1.94a.55.55,0,0,0-.42-.2H6.25A2.75,2.75,0,0,1,3.5,14.38v-7A2.75,2.75,0,0,1,6.25,4.65h11.5A2.75,2.75,0,0,1,20.5,7.4Z"/><rect class="cls-2" width="24" height="24"/><rect class="cls-2" width="24" height="24"/><rect class="cls-2" width="24" height="24"/></svg>