<svg id="Capa_1" data-name="Capa 1" xmlns="http://www.w3.org/2000/svg" viewBox="0 0 24 24"><defs><style>.cls-1{fill:#20273f;}.cls-2{fill:none;}</style></defs><path class="cls-1" d="M18,6A3.88,3.88,0,0,0,12.6,6l-2.3,2.3a.54.54,0,0,0,.77.77l2.3-2.3a2.78,2.78,0,0,1,3.83,0,2.72,2.72,0,0,1,0,3.83l-2.3,2.3a.53.53,0,0,0,0,.77.52.52,0,0,0,.39.17.52.52,0,0,0,.38-.17L18,11.4A3.78,3.78,0,0,0,18,6Z"/><path class="cls-1" d="M12.93,14.9l-2.3,2.3a2.78,2.78,0,0,1-3.83,0,2.72,2.72,0,0,1,0-3.83l2.3-2.3a.54.54,0,0,0-.77-.77L6,12.6A3.8,3.8,0,1,0,11.4,18l2.3-2.3a.54.54,0,0,0-.77-.77Z"/><path class="cls-1" d="M15,9a.54.54,0,0,0-.78,0L8.76,14.46a.55.55,0,0,0,.78.78L15,9.76A.54.54,0,0,0,15,9Z"/><path class="cls-1" d="M12.33,9.26,9.21,12.38a.16.16,0,0,0,0,.24.16.16,0,0,0,.12.06.18.18,0,0,0,.13-.06l3.12-3.11a.18.18,0,0,0,0-.25A.2.2,0,0,0,12.33,9.26Z"/><path class="cls-1" d="M14.6,11.53l-3.12,3.11a.18.18,0,0,0,0,.25.13.13,0,0,0,.12,0,.15.15,0,0,0,.12,0l3.12-3.11a.18.18,0,0,0,0-.25A.16.16,0,0,0,14.6,11.53Z"/><rect class="cls-2" width="24" height="24"/></svg>