<svg id="Capa_1" data-name="Capa 1" xmlns="http://www.w3.org/2000/svg" viewBox="0 0 24 24"><defs><style>.cls-1{fill:#20273f;}.cls-2{fill:none;}</style></defs><path class="cls-1" d="M18.37,5.86a6.85,6.85,0,0,0-6.37-2A.55.55,0,0,0,12.27,5a5.72,5.72,0,0,1,5.32,1.68A5.71,5.71,0,0,1,19.27,12a.56.56,0,0,0,.4.67h.14a.54.54,0,0,0,.53-.41A6.85,6.85,0,0,0,18.37,5.86Z"/><path class="cls-1" d="M16,12h.13a.56.56,0,0,0,.54-.42,3.27,3.27,0,0,0-1-3.07,3.29,3.29,0,0,0-3.08-1,.55.55,0,0,0,.27,1.07,2.33,2.33,0,0,1,2.69,2.69A.57.57,0,0,0,16,12Z"/><path class="cls-1" d="M16.71,15.29l-2.07-.42a2.16,2.16,0,0,0-2.08.72l-1.74,2.05a10.7,10.7,0,0,1-4.57-4.71l2.21-2.21A2.18,2.18,0,0,0,9,8.6L8.38,6.43A2.15,2.15,0,0,0,6.31,4.86H4.05a.56.56,0,0,0-.55.52A17.87,17.87,0,0,0,5,12.93a.68.68,0,0,0,.12.26,11.89,11.89,0,0,0,5.56,5.63h0a16.31,16.31,0,0,0,7.11,1.45.56.56,0,0,0,.55-.53c0-.76,0-1.57,0-2.38A2.14,2.14,0,0,0,16.71,15.29ZM4.59,6H6.31a1.07,1.07,0,0,1,1,.77L8,8.91a1.06,1.06,0,0,1-.27,1L5.76,11.86A16.89,16.89,0,0,1,4.59,6ZM17.32,19.17a15.29,15.29,0,0,1-5.46-1.05L13.4,16.3a1,1,0,0,1,1-.35l2.07.42a1,1,0,0,1,.84,1C17.34,17.88,17.34,18.5,17.32,19.17Z"/><path class="cls-1" d="M7.23,12.64a.18.18,0,0,0-.06.24A11.42,11.42,0,0,0,11,16.76a.16.16,0,0,0,.09,0,.18.18,0,0,0,.15-.08.17.17,0,0,0,0-.24A11.13,11.13,0,0,1,7.47,12.7.18.18,0,0,0,7.23,12.64Z"/><rect class="cls-2" width="24" height="24"/></svg>