<svg id="Capa_1" data-name="Capa 1" xmlns="http://www.w3.org/2000/svg" viewBox="0 0 24 24"><defs><style>.cls-1{fill:#20273f;}.cls-2{fill:none;}</style></defs><path class="cls-1" d="M19.81,4.35a.55.55,0,0,0-.77-.1L15,7.38l.16-1.44a.55.55,0,0,0-.48-.61.56.56,0,0,0-.61.49l-.31,2.72s0,0,0,0a.53.53,0,0,0,0,.25l0,.06a.46.46,0,0,0,.19.2h0a.49.49,0,0,0,.17.06L17,9.54H17a.56.56,0,0,0,.55-.47.55.55,0,0,0-.47-.62l-1.43-.2,4-3.13A.54.54,0,0,0,19.81,4.35Z"/><path class="cls-1" d="M17.29,14.87l-2.07-.42a2.15,2.15,0,0,0-2.07.72l-1.74,2a10.78,10.78,0,0,1-4.58-4.71L9,10.3a2.12,2.12,0,0,0,.55-2.11L9,6A2.17,2.17,0,0,0,6.9,4.44H4.64A.54.54,0,0,0,4.09,5a17.6,17.6,0,0,0,1.52,7.55.58.58,0,0,0,.13.26A11.85,11.85,0,0,0,11.3,18.4h0a16.34,16.34,0,0,0,7.11,1.45.54.54,0,0,0,.55-.52c0-.91.05-1.74,0-2.39A2.14,2.14,0,0,0,17.29,14.87ZM5.18,5.54H6.9a1.07,1.07,0,0,1,1,.77l.62,2.18a1,1,0,0,1-.27,1L6.35,11.44A16.66,16.66,0,0,1,5.18,5.54ZM17.9,18.75a15.52,15.52,0,0,1-5.46-1L14,15.88a1,1,0,0,1,1-.35l2.07.42a1,1,0,0,1,.85,1C17.92,17.47,17.92,18.08,17.9,18.75Z"/><path class="cls-1" d="M8,12.28a.18.18,0,0,0-.24-.06.18.18,0,0,0-.06.24,11.36,11.36,0,0,0,3.79,3.88.16.16,0,0,0,.09,0,.19.19,0,0,0,.15-.08.18.18,0,0,0-.06-.24A11,11,0,0,1,8,12.28Z"/><rect class="cls-2" width="24" height="24"/></svg>