<svg id="Capa_1" data-name="Capa 1" xmlns="http://www.w3.org/2000/svg" viewBox="0 0 24 24"><defs><style>.cls-1{fill:#20273f;}.cls-2{fill:none;}</style></defs><path class="cls-1" d="M19.47,16.8a2.13,2.13,0,0,0-1.72-2.08l-2.08-.42A2.14,2.14,0,0,0,13.6,15l-1.74,2.05a10.7,10.7,0,0,1-4.57-4.71l2.2-2.21A2.13,2.13,0,0,0,10,8L9.42,5.86A2.16,2.16,0,0,0,7.35,4.29H5.09a.56.56,0,0,0-.55.52,17.52,17.52,0,0,0,1.53,7.55.42.42,0,0,0,.12.25,11.82,11.82,0,0,0,5.56,5.64h0a16.37,16.37,0,0,0,7.11,1.45.54.54,0,0,0,.55-.53C19.47,18.28,19.48,17.45,19.47,16.8ZM5.63,5.39H7.35a1.06,1.06,0,0,1,1,.77L9,8.34a1,1,0,0,1-.26,1L6.8,11.29A16.66,16.66,0,0,1,5.63,5.39ZM18.35,18.6a15.34,15.34,0,0,1-5.46-1.05l1.55-1.82a1,1,0,0,1,1-.35l2.08.42a1,1,0,0,1,.84,1C18.38,17.31,18.37,17.93,18.35,18.6Z"/><path class="cls-1" d="M8.43,12A.18.18,0,0,0,8.19,12a.18.18,0,0,0-.07.24,11.39,11.39,0,0,0,3.79,3.89l.09,0a.17.17,0,0,0,.09-.32A11,11,0,0,1,8.43,12Z"/><rect class="cls-2" width="24" height="24"/></svg>