<svg id="Capa_1" data-name="Capa 1" xmlns="http://www.w3.org/2000/svg" viewBox="0 0 24 24"><defs><style>.cls-1{fill:#20273f;}.cls-2{fill:none;}</style></defs><path class="cls-1" d="M17.51,6.78h-.65a5,5,0,0,0-9.72,0H6.49a3.72,3.72,0,0,0-3.72,3.71v6.72a3.72,3.72,0,0,0,3.72,3.71h11a3.72,3.72,0,0,0,3.72-3.71V10.49A3.72,3.72,0,0,0,17.51,6.78ZM12,4.18a4,4,0,0,1,3.72,2.6H8.28A4,4,0,0,1,12,4.18Zm4,4v.69H8V8.15c0-.09,0-.18,0-.27H16A2.48,2.48,0,0,1,16,8.15Zm4.15,9.06a2.62,2.62,0,0,1-2.62,2.61h-11a2.62,2.62,0,0,1-2.62-2.61V10.49A2.62,2.62,0,0,1,6.49,7.88H7c0,.09,0,.18,0,.27v.69a2.07,2.07,0,0,0-2,2.07v5.88A2.07,2.07,0,0,0,7,18.86H17a2.07,2.07,0,0,0,2.07-2.07V12.68a.18.18,0,0,0-.17-.18.18.18,0,0,0-.18.18v4.11A1.72,1.72,0,0,1,17,18.51H7a1.72,1.72,0,0,1-1.72-1.72V10.91A1.72,1.72,0,0,1,6.92,9.19v1.13a.55.55,0,0,0,.55.55A.54.54,0,0,0,8,10.33V9.19h8v1.13a.55.55,0,0,0,.55.55h0a.54.54,0,0,0,.55-.54V9.19a1.72,1.72,0,0,1,1.65,1.72.18.18,0,0,0,.18.17.18.18,0,0,0,.17-.17,2.07,2.07,0,0,0-2-2.07V8.15c0-.09,0-.18,0-.27h.46a2.62,2.62,0,0,1,2.62,2.61Z"/><rect class="cls-2" width="24" height="24"/></svg>