<svg id="Capa_1" data-name="Capa 1" xmlns="http://www.w3.org/2000/svg" viewBox="0 0 24 24"><defs><style>.cls-1{fill:#20273f;}.cls-2{fill:none;}</style></defs><path class="cls-1" d="M21.48,7.94a3.63,3.63,0,0,0-3.31-3.18,121.13,121.13,0,0,0-12.35,0A3.63,3.63,0,0,0,2.52,8a49.91,49.91,0,0,0,0,8.11,3.63,3.63,0,0,0,3.31,3.18c2.05.1,4.11.16,6.17.16s4.12-.06,6.17-.16h0a3.63,3.63,0,0,0,3.3-3.19A49.91,49.91,0,0,0,21.48,7.94Zm-1.1,8a2.55,2.55,0,0,1-2.27,2.18,118.59,118.59,0,0,1-12.22,0A2.56,2.56,0,0,1,3.62,16,47.6,47.6,0,0,1,3.62,8,2.55,2.55,0,0,1,5.89,5.86q3-.17,6.11-.16t6.11.16A2.55,2.55,0,0,1,20.38,8,47.6,47.6,0,0,1,20.38,16Z"/><path class="cls-1" d="M14.42,8.14A3.82,3.82,0,0,0,12,9a3.82,3.82,0,0,0-2.42-.88A3.86,3.86,0,1,0,12,15a3.79,3.79,0,0,0,2.42.88A3.86,3.86,0,0,0,18.28,12h0A3.86,3.86,0,0,0,14.42,8.14ZM11.66,12A2.74,2.74,0,0,1,12,10.7a2.66,2.66,0,0,1,0,2.6A2.8,2.8,0,0,1,11.66,12ZM6.82,12a2.75,2.75,0,0,1,4.43-2.19A3.85,3.85,0,0,0,10.56,12a3.79,3.79,0,0,0,.69,2.19A2.75,2.75,0,0,1,6.82,12Zm7.6,2.76a2.73,2.73,0,0,1-1.66-.57A3.84,3.84,0,0,0,13.44,12h0a3.86,3.86,0,0,0-.68-2.19,2.73,2.73,0,0,1,1.66-.57,2.76,2.76,0,1,1,0,5.52Z"/><path class="cls-1" d="M19.6,8a.19.19,0,0,0-.23-.1.17.17,0,0,0-.09.23,2.37,2.37,0,0,1,.14.57,40.52,40.52,0,0,1,0,6.61,2.42,2.42,0,0,1-2.2,2.07,100.79,100.79,0,0,1-10.43,0,2.43,2.43,0,0,1-2.21-2.06,40.52,40.52,0,0,1,0-6.61A2.43,2.43,0,0,1,6.79,6.63c3.46-.17,7-.17,10.42,0a2.42,2.42,0,0,1,.79.2.18.18,0,0,0,.23-.08.17.17,0,0,0-.08-.23,2.31,2.31,0,0,0-.92-.23,96,96,0,0,0-10.46,0A2.78,2.78,0,0,0,4.23,8.67a41.26,41.26,0,0,0,0,6.67,2.78,2.78,0,0,0,2.54,2.37c1.73.09,3.48.14,5.23.14s3.5-.05,5.23-.14a2.78,2.78,0,0,0,2.54-2.38,41.26,41.26,0,0,0,0-6.67A2.36,2.36,0,0,0,19.6,8Z"/><rect class="cls-2" width="24" height="24"/></svg>