<svg id="Capa_1" data-name="Capa 1" xmlns="http://www.w3.org/2000/svg" viewBox="0 0 24 24"><defs><style>.cls-1{fill:#20273f;}.cls-2{fill:none;}</style></defs><path class="cls-1" d="M12,4.72a7.28,7.28,0,0,0-6.9,9.6.17.17,0,0,0,.33-.11A6.87,6.87,0,0,1,5.07,12,6.92,6.92,0,1,1,9.7,18.54a.17.17,0,1,0-.11.33A7.28,7.28,0,1,0,12,4.72Z"/><path class="cls-1" d="M7.91,10.79h8.34a.55.55,0,0,0,0-1.1H7.91a.55.55,0,0,0,0,1.1Z"/><path class="cls-1" d="M12.63,13.48a.55.55,0,0,0-.55-.55H7.91a.55.55,0,0,0-.55.55.55.55,0,0,0,.55.55h4.17A.55.55,0,0,0,12.63,13.48Z"/><path class="cls-1" d="M18.65,5.07A9.47,9.47,0,0,0,11.4,2.42a9.6,9.6,0,0,0-8,13.75l-.64,3.26a1.5,1.5,0,0,0,.45,1.4,1.48,1.48,0,0,0,1.42.35l2.82-.75A9.59,9.59,0,0,0,12,21.6h.33A9.61,9.61,0,0,0,18.65,5.07ZM12.29,20.5a8.53,8.53,0,0,1-4.54-1.14.54.54,0,0,0-.27-.07.48.48,0,0,0-.18,0l-3,.8a.41.41,0,0,1-.39-.1.39.39,0,0,1-.12-.38l.67-3.38a.53.53,0,0,0,0-.41A8.5,8.5,0,1,1,20.5,12.18,8.61,8.61,0,0,1,12.29,20.5Z"/><rect class="cls-2" width="24" height="24"/></svg>