<svg id="Capa_1" data-name="Capa 1" xmlns="http://www.w3.org/2000/svg" viewBox="0 0 24 24"><defs><style>.cls-1{fill:#20273f;}.cls-2{fill:none;}</style></defs><path class="cls-1" d="M3,8h18.1a.54.54,0,0,0,.55-.55.55.55,0,0,0-.55-.55H3a.55.55,0,0,0-.55.55A.54.54,0,0,0,3,8Z"/><path class="cls-1" d="M21.05,11.45H3a.55.55,0,1,0,0,1.1h18.1a.55.55,0,1,0,0-1.1Z"/><path class="cls-1" d="M21.05,16H3a.54.54,0,0,0-.55.55.55.55,0,0,0,.55.55h18.1a.55.55,0,0,0,.55-.55A.54.54,0,0,0,21.05,16Z"/><rect class="cls-2" width="24" height="24"/></svg>