<svg id="Capa_1" data-name="Capa 1" xmlns="http://www.w3.org/2000/svg" viewBox="0 0 24 24"><defs><style>.cls-1{fill:#20273f;}.cls-2{fill:none;}</style></defs><path class="cls-1" d="M12,17.06a5,5,0,0,0,5-5V7.38a5,5,0,0,0-10,0v4.68A5,5,0,0,0,12,17.06Zm3.9-9.68v4.68a3.91,3.91,0,0,1-2.32,3.56,1.7,1.7,0,0,0,.13-.64V5.88a.18.18,0,0,0-.18-.18.17.17,0,0,0-.17.18V15a1.37,1.37,0,0,1-.28.81,3.52,3.52,0,0,1-2.16,0,1.37,1.37,0,0,1-.28-.81V4.46a1.32,1.32,0,0,1,.28-.8,3.33,3.33,0,0,1,2.16,0,1.32,1.32,0,0,1,.28.8.17.17,0,0,0,.17.18.18.18,0,0,0,.18-.18,1.65,1.65,0,0,0-.13-.63A3.88,3.88,0,0,1,15.9,7.38Zm-7.8,0a3.88,3.88,0,0,1,2.32-3.55,1.65,1.65,0,0,0-.13.63V15a1.7,1.7,0,0,0,.13.64A3.91,3.91,0,0,1,8.1,12.06Z"/><path class="cls-1" d="M19.32,12a.55.55,0,0,0-1.1,0A6.22,6.22,0,0,1,5.78,12a.55.55,0,0,0-1.1,0,7.34,7.34,0,0,0,6.77,7.3v1.19H7.55a.55.55,0,0,0-.55.55.55.55,0,0,0,.55.55h9.06a.55.55,0,0,0,.55-.55.55.55,0,0,0-.55-.55H12.55V19.33A7.34,7.34,0,0,0,19.32,12Z"/><rect class="cls-2" width="24" height="24"/></svg>