<svg id="Capa_1" data-name="Capa 1" xmlns="http://www.w3.org/2000/svg" viewBox="0 0 24 24"><defs><style>.cls-1{fill:#20273f;}.cls-2{fill:none;}</style></defs><path class="cls-1" d="M12,17.1a5,5,0,0,0,5-5v-.85a.55.55,0,0,0-1.1,0v.85A3.9,3.9,0,0,1,11,15.86a.55.55,0,0,0-.68.38.56.56,0,0,0,.38.68A5,5,0,0,0,12,17.1Z"/><path class="cls-1" d="M18.76,11.52a.55.55,0,0,0-.55.55,6.22,6.22,0,0,1-8.8,5.66.54.54,0,0,0-.73.27.55.55,0,0,0,.27.73,7.43,7.43,0,0,0,2.49.63v1.19H7.55a.55.55,0,0,0,0,1.1H16.6a.55.55,0,1,0,0-1.1H12.54V19.36a7.32,7.32,0,0,0,6.77-7.29A.54.54,0,0,0,18.76,11.52Z"/><path class="cls-1" d="M19.53,4.51a.56.56,0,0,0-.78,0L16.87,6.34A5,5,0,0,0,7,7.41V12.1A4.92,4.92,0,0,0,8,15l-.87.85a6.23,6.23,0,0,1-1.34-3.82.54.54,0,0,0-.55-.55.55.55,0,0,0-.55.55,7.33,7.33,0,0,0,1.64,4.6l-2,2a.56.56,0,0,0,.38.95.54.54,0,0,0,.39-.16L19.52,5.29A.56.56,0,0,0,19.53,4.51Zm-3.65,2.8-2.07,2V5.79a.18.18,0,0,0-.17-.18.18.18,0,0,0-.18.18V9.68l-2.71,2.65V4.5a1.37,1.37,0,0,1,.31-.86A4.08,4.08,0,0,1,12,3.52a3.78,3.78,0,0,1,1.23.22,1.32,1.32,0,0,1,.24.76.17.17,0,0,0,.18.17.17.17,0,0,0,.17-.17,1.8,1.8,0,0,0-.1-.57A3.89,3.89,0,0,1,15.88,7.31ZM8.1,12.1V7.41A3.91,3.91,0,0,1,10.55,3.8a1.79,1.79,0,0,0-.15.7v8.17l-1.63,1.6A3.89,3.89,0,0,1,8.1,12.1Z"/><rect class="cls-2" width="24" height="24"/></svg>