<svg id="Capa_1" data-name="Capa 1" xmlns="http://www.w3.org/2000/svg" viewBox="0 0 24 24"><defs><style>.cls-1{fill:#20273f;}.cls-2{fill:none;}</style></defs><path class="cls-1" d="M17.63,3.57H6.13A3.86,3.86,0,0,0,2.28,7.42v7a3.86,3.86,0,0,0,3.85,3.85h11.5a3.85,3.85,0,0,0,3.85-3.85v-7A3.85,3.85,0,0,0,17.63,3.57ZM6.13,4.67h11.5a2.74,2.74,0,0,1,2.54,1.69H16.41a.18.18,0,0,0-.18.18.18.18,0,0,0,.18.17h3.87a2.77,2.77,0,0,1,.1.71v7a1.5,1.5,0,0,1,0,.22H3.4c0-.07,0-.14,0-.22v-7a2.77,2.77,0,0,1,.1-.71H14.15a.18.18,0,0,0,.17-.17.18.18,0,0,0-.17-.18H3.59A2.77,2.77,0,0,1,6.13,4.67Zm11.5,12.48H6.13A2.76,2.76,0,0,1,3.44,15H20.32A2.76,2.76,0,0,1,17.63,17.15Z"/><path class="cls-1" d="M16.05,19.33H7.71a.55.55,0,1,0,0,1.1h8.34a.55.55,0,0,0,0-1.1Z"/><rect class="cls-2" width="24" height="24"/></svg>