<svg id="Capa_1" data-name="Capa 1" xmlns="http://www.w3.org/2000/svg" viewBox="0 0 24 24"><defs><style>.cls-1{fill:#20273f;}.cls-2{fill:none;}</style></defs><path class="cls-1" d="M20.63,16.91A13.74,13.74,0,0,1,18,8.81V8.58A6,6,0,1,0,6,8.58v.23a13.74,13.74,0,0,1-2.66,8.1.53.53,0,0,0-.06.46.51.51,0,0,0,.3.34,17.71,17.71,0,0,0,5.28,1,3.06,3.06,0,0,0,6.08,0,17,17,0,0,0,5.43-1,.58.58,0,0,0,.3-.35A.56.56,0,0,0,20.63,16.91ZM7.13,8.58a4.87,4.87,0,0,1,9.74,0v.23a13.61,13.61,0,0,0,.9,5,32,32,0,0,1-5.77.45,32.39,32.39,0,0,1-5.77-.45,13.61,13.61,0,0,0,.9-5Zm4.8,11.71A2,2,0,0,1,10,18.78c.61,0,1.28,0,2,0s1.28,0,1.85,0A2,2,0,0,1,11.93,20.29ZM12,17.72a26.81,26.81,0,0,1-7.33-.81l.5-.85a37.16,37.16,0,0,0,6.83.56c.78,0,1.54,0,2.27-.05a.18.18,0,0,0,.17-.19.17.17,0,0,0-.18-.16c-.73,0-1.49.05-2.26.05a36.18,36.18,0,0,1-6.66-.54c.16-.29.31-.58.45-.88a32.12,32.12,0,0,0,6.21.52,33.11,33.11,0,0,0,6.22-.51c.13.29.28.58.44.87-.67.12-1.37.23-2.13.32a.17.17,0,0,0-.16.19.18.18,0,0,0,.18.16h0c.81-.08,1.56-.2,2.26-.34.16.29.33.58.51.86A26.52,26.52,0,0,1,12,17.72Z"/><rect class="cls-2" width="24" height="24"/></svg>