<svg id="Capa_1" data-name="Capa 1" xmlns="http://www.w3.org/2000/svg" viewBox="0 0 24 24"><defs><style>.cls-1{fill:#20273f;}.cls-2{fill:none;}</style></defs><path class="cls-1" d="M12.51,11.87a.17.17,0,0,0,.12-.21,4.6,4.6,0,0,0-2.57-3,.17.17,0,0,0-.23.09A.18.18,0,0,0,9.91,9a4.26,4.26,0,0,1,2.39,2.78.17.17,0,0,0,.17.13Z"/><path class="cls-1" d="M8.21,8.61a.17.17,0,0,0,.18-.17.18.18,0,0,0-.18-.18,4.58,4.58,0,0,0,0,9.15.17.17,0,0,0,.18-.17.18.18,0,0,0-.18-.18,4.23,4.23,0,0,1,0-8.45Z"/><path class="cls-1" d="M19,9.68a5.14,5.14,0,0,0,.09-.87,4.61,4.61,0,0,0-8.47-2.52,6.78,6.78,0,0,0-2.34-.41,7,7,0,1,0,0,13.92h9.29A5.16,5.16,0,0,0,19,9.68ZM14.45,5.3A3.51,3.51,0,0,1,18,8.81a3.71,3.71,0,0,1-.07.67c-.12,0-.23,0-.35,0a5.18,5.18,0,0,0-2.83.85A7,7,0,0,0,11.6,6.74,3.52,3.52,0,0,1,14.45,5.3Zm3.09,13.4H8.25a5.87,5.87,0,1,1,5.57-7.65,5.14,5.14,0,0,0-1.46,3.58.55.55,0,0,0,.55.55.55.55,0,0,0,.55-.55,4.08,4.08,0,1,1,4.08,4.07Z"/><rect class="cls-2" width="24" height="24"/></svg>