<svg id="Capa_1" data-name="Capa 1" xmlns="http://www.w3.org/2000/svg" viewBox="0 0 24 24"><defs><style>.cls-1{fill:#20273f;}.cls-2{fill:none;}</style></defs><path class="cls-1" d="M19.61,4.7a.56.56,0,0,0-.78,0l-2,2A9.57,9.57,0,0,0,2.89,11.92a.69.69,0,0,0,0,.35A9.69,9.69,0,0,0,6.3,17L4.7,18.52a.55.55,0,0,0,0,.78.54.54,0,0,0,.39.16.58.58,0,0,0,.39-.15L19.6,5.48A.56.56,0,0,0,19.61,4.7ZM4,12.1a8.49,8.49,0,0,1,8-5.64,8.35,8.35,0,0,1,4,1L14.27,9.16A3.73,3.73,0,0,0,9,14.33L7.11,16.16A8.56,8.56,0,0,1,4,12.1Zm6.83,0A1.17,1.17,0,0,1,12,11a1,1,0,0,1,.36.06l-1.47,1.44A1,1,0,0,1,10.83,12.12Zm1.8-1.37a1.49,1.49,0,0,0-.63-.14,1.52,1.52,0,0,0-1.52,1.51,1.56,1.56,0,0,0,.14.61l-.85.83a2.69,2.69,0,0,1-.42-1.44A2.65,2.65,0,0,1,12,9.47a2.57,2.57,0,0,1,1.48.46Z"/><path class="cls-1" d="M14.65,12.12A2.66,2.66,0,0,1,12,14.78a.55.55,0,0,0-.55.55.55.55,0,0,0,.55.55,3.76,3.76,0,0,0,3.75-3.76.55.55,0,1,0-1.1,0Z"/><path class="cls-1" d="M21.11,11.92a9.76,9.76,0,0,0-2.23-3.65.55.55,0,0,0-.78,0,.56.56,0,0,0,0,.78A8.36,8.36,0,0,1,20,12.1,8.5,8.5,0,0,1,9.3,17.29a.55.55,0,0,0-.35,1,9.6,9.6,0,0,0,12.16-6.06A.69.69,0,0,0,21.11,11.92Z"/><rect class="cls-2" width="24" height="24"/></svg>