<svg id="Capa_1" data-name="Capa 1" xmlns="http://www.w3.org/2000/svg" viewBox="0 0 24 24"><defs><style>.cls-1{fill:#20273f;}.cls-2{fill:none;}</style></defs><path class="cls-1" d="M18,7.64a.19.19,0,0,0-.05.25,7.2,7.2,0,1,1-2.12-2A.17.17,0,0,0,16,5.83.18.18,0,0,0,16,5.59,7.57,7.57,0,1,0,19.58,12,7.5,7.5,0,0,0,18.2,7.69.18.18,0,0,0,18,7.64Z"/><path class="cls-1" d="M21.89,13.12A4.06,4.06,0,0,1,21.61,12a4,4,0,0,1,.29-1.18,3.29,3.29,0,0,0,.25-2.12,3.35,3.35,0,0,0-1.46-1.58,4.11,4.11,0,0,1-.92-.77,4.12,4.12,0,0,1-.44-1.09,3.33,3.33,0,0,0-1.06-1.9A3.28,3.28,0,0,0,16.2,3,3.93,3.93,0,0,1,15,2.86a3.8,3.8,0,0,1-1.05-.65A3.29,3.29,0,0,0,12,1.32a3.35,3.35,0,0,0-2,.92,3.9,3.9,0,0,1-1,.62A3.71,3.71,0,0,1,7.83,3a3.32,3.32,0,0,0-2.11.41,3.37,3.37,0,0,0-1,1.87,3.78,3.78,0,0,1-.46,1.12,3.57,3.57,0,0,1-.88.74A3.5,3.5,0,0,0,1.84,8.7a3.4,3.4,0,0,0,.27,2.18A4.06,4.06,0,0,1,2.39,12a4,4,0,0,1-.29,1.18,3.29,3.29,0,0,0-.25,2.12,3.35,3.35,0,0,0,1.46,1.58,4.11,4.11,0,0,1,.92.77,4.12,4.12,0,0,1,.44,1.09,3.33,3.33,0,0,0,1.06,1.9,3.22,3.22,0,0,0,2.07.41A3.93,3.93,0,0,1,9,21.14a3.8,3.8,0,0,1,1.05.65,3.29,3.29,0,0,0,1.92.89,3.35,3.35,0,0,0,2-.92,3.9,3.9,0,0,1,1-.62,3.71,3.71,0,0,1,1.2-.09,3.32,3.32,0,0,0,2.11-.41,3.37,3.37,0,0,0,1-1.87,3.78,3.78,0,0,1,.46-1.12,3.57,3.57,0,0,1,.88-.74,3.5,3.5,0,0,0,1.5-1.61A3.4,3.4,0,0,0,21.89,13.12ZM21.11,15c-.13.39-.59.71-1.07,1a4.43,4.43,0,0,0-1.15,1,4.78,4.78,0,0,0-.62,1.45,2.56,2.56,0,0,1-.64,1.3,2.49,2.49,0,0,1-1.44.2,4.81,4.81,0,0,0-1.56.14,4.71,4.71,0,0,0-1.32.8,2.54,2.54,0,0,1-1.31.69,2.49,2.49,0,0,1-1.25-.67,4.94,4.94,0,0,0-1.38-.82,4,4,0,0,0-1.19-.15h-.4a2.56,2.56,0,0,1-1.41-.2,2.59,2.59,0,0,1-.65-1.32A4.61,4.61,0,0,0,5.12,17a4.66,4.66,0,0,0-1.18-1c-.48-.33-.93-.64-1-1a2.54,2.54,0,0,1,.25-1.42A4.85,4.85,0,0,0,3.49,12a4.57,4.57,0,0,0-.35-1.48A2.63,2.63,0,0,1,2.89,9C3,8.65,3.48,8.33,4,8A4.43,4.43,0,0,0,5.11,7a4.78,4.78,0,0,0,.62-1.45,2.56,2.56,0,0,1,.64-1.3,2.51,2.51,0,0,1,1.44-.2,4.79,4.79,0,0,0,1.56-.14,4.71,4.71,0,0,0,1.32-.8A2.54,2.54,0,0,1,12,2.42a2.49,2.49,0,0,1,1.25.67,4.94,4.94,0,0,0,1.38.82,5,5,0,0,0,1.59.14,2.56,2.56,0,0,1,1.41.2,2.59,2.59,0,0,1,.65,1.32A4.61,4.61,0,0,0,18.88,7a4.66,4.66,0,0,0,1.18,1c.48.33.93.64,1.05,1a2.54,2.54,0,0,1-.25,1.42A4.85,4.85,0,0,0,20.51,12a4.57,4.57,0,0,0,.35,1.48A2.63,2.63,0,0,1,21.11,15Z"/><path class="cls-1" d="M10.07,10.07a1.07,1.07,0,1,0-1.51,0A1.06,1.06,0,0,0,10.07,10.07Z"/><path class="cls-1" d="M14,14a1.07,1.07,0,1,0,1.51,0A1.06,1.06,0,0,0,14,14Z"/><path class="cls-1" d="M15.91,8.36a.56.56,0,0,0-.78,0l-6.8,6.8a.56.56,0,0,0,0,.78.56.56,0,0,0,.78,0l6.8-6.8A.56.56,0,0,0,15.91,8.36Z"/><rect class="cls-2" width="24" height="24"/></svg>