<svg id="Capa_1" data-name="Capa 1" xmlns="http://www.w3.org/2000/svg" viewBox="0 0 24 24"><defs><style>.cls-1{fill:#20273f;}.cls-2{fill:none;}</style></defs><path class="cls-1" d="M13.44,7.19a2.33,2.33,0,1,0,3.3,0A2.32,2.32,0,0,0,13.44,7.19ZM16,9.7a1.23,1.23,0,1,1-.87-2.1A1.22,1.22,0,0,1,16,8,1.23,1.23,0,0,1,16,9.7Z"/><path class="cls-1" d="M21.24,8.19l-.22-3a2.46,2.46,0,0,0-2.27-2.23l-3-.17a6.93,6.93,0,0,0-5.24,1.93L8.46,6.77,6.9,6.2A3.37,3.37,0,0,0,3.37,7L2.14,8.21A.51.51,0,0,0,2,8.6.51.51,0,0,0,2.14,9L4.19,11,2.82,12.41a.56.56,0,0,0-.16.46.57.57,0,0,0,.27.4l5,2.89,2.89,4.95a.52.52,0,0,0,.4.27h.07a.55.55,0,0,0,.39-.16L13,19.86l1.93,1.93a.55.55,0,0,0,.39.16.59.59,0,0,0,.39-.16L17,20.55A3.37,3.37,0,0,0,17.73,17l-.51-1.38,2.1-2.09A6.84,6.84,0,0,0,21.24,8.19Zm-14.72-1,1.08.4L6,9.25,4.33,7.61A2.26,2.26,0,0,1,6.52,7.23ZM3.3,8.6l.76-.76L5.73,9.5,5,10.26Zm8.07,11.34L8.93,15.77h0L9.69,15l2.44,4.17Zm4,.68-1.54-1.54.76-.76,1.54,1.54Zm1.36-3.22a2.23,2.23,0,0,1-.38,2.19l-1.52-1.52,1.57-1.57Zm-4.31,1.53L9.94,14.76,10.7,14a.55.55,0,0,0-.78-.78L9.16,14l-1.49-.85a.16.16,0,0,0-.23.06.18.18,0,0,0,.06.24l1.41.81L8.16,15l0,0-4-2.35.77-.76,1.61.92a.11.11,0,0,0,.08,0,.17.17,0,0,0,.09-.32l-1.53-.88,6.2-6.2a5.69,5.69,0,0,1,4.4-1.61l3,.17a1.35,1.35,0,0,1,1.23,1.21l.22,3a5.73,5.73,0,0,1-1.6,4.5Z"/><rect class="cls-2" width="24" height="24"/></svg>