<svg id="Capa_1" data-name="Capa 1" xmlns="http://www.w3.org/2000/svg" viewBox="0 0 24 24"><defs><style>.cls-1{fill:#20273f;}.cls-2{fill:none;}</style></defs><path class="cls-1" d="M17.75,4.66H6.25A3.85,3.85,0,0,0,2.4,8.51v7a3.85,3.85,0,0,0,3.85,3.85h11.5a3.85,3.85,0,0,0,3.85-3.85v-7A3.85,3.85,0,0,0,17.75,4.66ZM6.25,5.76h11.5A2.75,2.75,0,0,1,20.5,8.51v.27H3.5V8.51A2.75,2.75,0,0,1,6.25,5.76Zm11.5,12.48H6.25A2.75,2.75,0,0,1,3.5,15.49V9.88h17v5.61A2.75,2.75,0,0,1,17.75,18.24Z"/><path class="cls-1" d="M7.09,11.45h-1a1.4,1.4,0,0,0-1.4,1.4v1a1.41,1.41,0,0,0,1.4,1.41h1A1.41,1.41,0,0,0,8.5,13.81v-1A1.41,1.41,0,0,0,7.09,11.45Zm.31,2.36a.31.31,0,0,1-.31.31h-1a.31.31,0,0,1-.3-.31v-1a.31.31,0,0,1,.3-.3h1a.31.31,0,0,1,.31.3Z"/><path class="cls-1" d="M18.79,11.77H10.87a.55.55,0,1,0,0,1.09h7.92a.55.55,0,1,0,0-1.09Z"/><path class="cls-1" d="M14.83,13.69h-4a.55.55,0,0,0-.55.55.55.55,0,0,0,.55.55h4a.55.55,0,0,0,.55-.55A.55.55,0,0,0,14.83,13.69Z"/><rect class="cls-2" width="24" height="24"/></svg>