<svg id="Capa_1" data-name="Capa 1" xmlns="http://www.w3.org/2000/svg" viewBox="0 0 24 24"><defs><style>.cls-1{fill:#20273f;}.cls-2{fill:none;}</style></defs><path class="cls-1" d="M15.76,13.08a.17.17,0,0,0,.17-.17l.15-3.51a.18.18,0,0,0-.17-.18.16.16,0,0,0-.18.17l-.15,3.51a.18.18,0,0,0,.17.18Z"/><path class="cls-1" d="M18.66,9.12a.55.55,0,0,0-.59.5l-.7,9A1.29,1.29,0,0,1,16,19.72h-.39l.18-4.35a.18.18,0,0,0-.17-.18h0a.18.18,0,0,0-.18.17l-.18,4.36H12.19V9.44A.18.18,0,0,0,12,9.26a.18.18,0,0,0-.17.18V19.72H9.09L8.5,9.43a.18.18,0,0,0-.18-.17.18.18,0,0,0-.17.19l.59,10.27H8a1.28,1.28,0,0,1-1.32-1.13L5.93,9.52a.55.55,0,0,0-1.1.09l.71,9.07A2.4,2.4,0,0,0,8,20.82H16a2.38,2.38,0,0,0,2.42-2.14l.71-9A.56.56,0,0,0,18.66,9.12Z"/><path class="cls-1" d="M20.26,6.42H15.93s0-.08,0-.12l-.12-1.65a1.59,1.59,0,0,0-1.58-1.47H9.77A1.6,1.6,0,0,0,8.18,4.65L8.06,6.37v0H3.74a.55.55,0,1,0,0,1.1H20.26a.55.55,0,0,0,0-1.1Zm-11-1.69a.49.49,0,0,1,.49-.45h4.47a.48.48,0,0,1,.48.45l.13,1.65s0,0,0,0H9.16Z"/><rect class="cls-2" width="24" height="24"/></svg>