<svg id="Capa_1" data-name="Capa 1" xmlns="http://www.w3.org/2000/svg" viewBox="0 0 24 24"><defs><style>.cls-1{fill:#20273f;}.cls-2{fill:none;}</style></defs><path class="cls-1" d="M17.83,7.91a.17.17,0,1,0-.28.2,6.84,6.84,0,1,1-2-1.87.18.18,0,0,0,.24-.06.17.17,0,0,0,0-.24,7.15,7.15,0,1,0,2.09,2Z"/><path class="cls-1" d="M12,2.37A9.63,9.63,0,1,0,21.63,12,9.64,9.64,0,0,0,12,2.37Zm0,18.16A8.53,8.53,0,1,1,20.53,12,8.54,8.54,0,0,1,12,20.53Z"/><path class="cls-1" d="M9.55,8.73v6.46a.55.55,0,0,0,.55.55.55.55,0,0,0,.55-.55V8.73a.54.54,0,0,0-.55-.55A.55.55,0,0,0,9.55,8.73Z"/><path class="cls-1" d="M13.35,8.73v6.46a.55.55,0,0,0,.55.55.55.55,0,0,0,.55-.55V8.73a.55.55,0,0,0-.55-.55A.54.54,0,0,0,13.35,8.73Z"/><rect class="cls-2" width="24" height="24"/></svg>