<svg id="Capa_1" data-name="Capa 1" xmlns="http://www.w3.org/2000/svg" viewBox="0 0 24 24"><defs><style>.cls-1{fill:#20273f;}.cls-2{fill:none;}</style></defs><path class="cls-1" d="M12.1,9.89A3.75,3.75,0,1,0,8.35,6.14,3.75,3.75,0,0,0,12.1,9.89Zm0-6.4A2.65,2.65,0,1,1,9.45,6.14,2.65,2.65,0,0,1,12.1,3.49Z"/><path class="cls-1" d="M18.66,14.13a9.56,9.56,0,0,0-13.42.12,4.2,4.2,0,0,0-.91,4.64,4.29,4.29,0,0,0,4,2.71h7.32a4.34,4.34,0,0,0,3-7.47Zm0,4.35a3.18,3.18,0,0,1-3,2c-2.36,0-4.94,0-7.31,0a3.21,3.21,0,0,1-3-2A3.11,3.11,0,0,1,6,15a8.46,8.46,0,0,1,11.88-.11A3.19,3.19,0,0,1,18.66,18.48Z"/><path class="cls-1" d="M17,15.28a6.66,6.66,0,0,0-1-.65.17.17,0,0,0-.24.07.19.19,0,0,0,.07.24,6.78,6.78,0,0,1,.93.61,1.91,1.91,0,0,1,.74,2.19,2.71,2.71,0,0,1-2.65,1.64H9.18a2.74,2.74,0,0,1-2.67-1.65,1.84,1.84,0,0,1,.67-2.11A7.63,7.63,0,0,1,12,14a8.48,8.48,0,0,1,2.31.32.17.17,0,1,0,.1-.33A8.41,8.41,0,0,0,12,13.64a8,8,0,0,0-5,1.71,2.2,2.2,0,0,0-.78,2.5,3.11,3.11,0,0,0,3,1.88h5.66a3.06,3.06,0,0,0,3-1.88A2.24,2.24,0,0,0,17,15.28Z"/><rect class="cls-2" width="24" height="24"/></svg>