<svg id="Capa_1" data-name="Capa 1" xmlns="http://www.w3.org/2000/svg" viewBox="0 0 24 24"><defs><style>.cls-1{fill:#20273f;}.cls-2{fill:none;}</style></defs><path class="cls-1" d="M17.8,7.86a.18.18,0,0,0-.25,0,.16.16,0,0,0,0,.24A6.71,6.71,0,0,1,18.74,12,6.78,6.78,0,1,1,12,5.18a6.86,6.86,0,0,1,3.56,1,.18.18,0,0,0,.24,0,.19.19,0,0,0-.06-.25,7.13,7.13,0,1,0,2.1,2Z"/><path class="cls-1" d="M12,2.37A9.63,9.63,0,1,0,21.63,12,9.64,9.64,0,0,0,12,2.37Zm0,18.16A8.53,8.53,0,1,1,20.53,12,8.54,8.54,0,0,1,12,20.53Z"/><path class="cls-1" d="M10,7.88a.54.54,0,0,0-.29.48v7.12A.55.55,0,0,0,10,16a.59.59,0,0,0,.57,0l5.32-3.56a.55.55,0,0,0,0-.91L10.53,7.91A.53.53,0,0,0,10,7.88Zm.81,1.51,3.78,2.53-3.78,2.53Z"/><rect class="cls-2" width="24" height="24"/></svg>