<svg id="Capa_1" data-name="Capa 1" xmlns="http://www.w3.org/2000/svg" viewBox="0 0 24 24"><defs><style>.cls-1{fill:#20273f;}.cls-2{fill:none;}</style></defs><path class="cls-1" d="M21.24,7.37s0,0,0,0-.09-.08-.13-.13a3.59,3.59,0,0,0-.39-.39l-.25-.21A4,4,0,0,0,20,6.32a2.09,2.09,0,0,0-.29-.16A3.35,3.35,0,0,0,19.19,6l-.27-.08a4.12,4.12,0,0,0-.86-.1H16.25l-.1-1.46a1.7,1.7,0,0,0-1.69-1.56H9.54A1.69,1.69,0,0,0,7.86,4.33L7.75,5.79H5.94a4.39,4.39,0,0,0-.72.07l-.15,0a3.83,3.83,0,0,0-.63.2l-.16.07a4.74,4.74,0,0,0-.54.29l-.06,0a4.06,4.06,0,0,0-.51.42L3,7a4.42,4.42,0,0,0-.39.47v0a4,4,0,0,0-.73,2.3V17.2a4,4,0,0,0,4,4H18.06a4,4,0,0,0,4-4V9.82A4,4,0,0,0,21.24,7.37ZM9,4.41a.59.59,0,0,1,.58-.54h4.92a.59.59,0,0,1,.59.54l.1,1.38H8.85Zm9.1,2.48a2.78,2.78,0,0,1,.58.06l.19,0,.36.12c.07,0,.14.08.22.11l.28.15a3.73,3.73,0,0,1,.43.36,9.37,9.37,0,0,1-5.75,4.52h0a9.23,9.23,0,0,1-1.8.28,5.46,5.46,0,0,1-.58,0c-.23,0-.45,0-.68,0l-.52,0a7.85,7.85,0,0,1-.82-.15A9.34,9.34,0,0,1,3.76,7.88l.05,0a2.44,2.44,0,0,1,.29-.27l.15-.13c.12-.08.25-.15.38-.22l.13-.07A2.57,2.57,0,0,1,5.23,7l.1,0a3.15,3.15,0,0,1,.61-.06Zm-6.16,6.8h0a10.63,10.63,0,0,0,1.25-.08l.42-.07.32,0v1.29a1,1,0,0,1-1,1H11a1,1,0,0,1-1-1V13.52l.21,0,.41,0a9.59,9.59,0,0,0,1.06.07ZM21,17.2a2.93,2.93,0,0,1-2.93,2.93H5.94A2.93,2.93,0,0,1,3,17.2V9.82A2.72,2.72,0,0,1,3.16,9a10.63,10.63,0,0,0,1.08,1.4v6.39A2.27,2.27,0,0,0,6.5,19a.18.18,0,0,0,.18-.18.17.17,0,0,0-.18-.17,1.92,1.92,0,0,1-1.91-1.91V10.7A10.41,10.41,0,0,0,9,13.26v1.51A2.08,2.08,0,0,0,11,16.85H13A2.08,2.08,0,0,0,15,14.77V13.2a10.4,10.4,0,0,0,4.37-2.69v6.24a1.92,1.92,0,0,1-1.91,1.91h-9a.17.17,0,0,0-.17.17.18.18,0,0,0,.17.18h9a2.27,2.27,0,0,0,2.26-2.26V10.28s0-.09,0-.13a11.72,11.72,0,0,0,1-1.4A2.91,2.91,0,0,1,21,9.82Z"/><rect class="cls-2" width="24" height="24"/></svg>