<svg id="Capa_1" data-name="Capa 1" xmlns="http://www.w3.org/2000/svg" viewBox="0 0 24 24"><defs><style>.cls-1{fill:#20273f;}.cls-2{fill:none;}</style></defs><path class="cls-1" d="M15.9,5.4a.17.17,0,0,0-.17.18v6.06c0,1.62-1.68,2.95-3.73,2.95s-3.73-1.33-3.73-2.95V4.83H14.7a.17.17,0,0,0,.17-.18.16.16,0,0,0-.17-.17H8.1a.17.17,0,0,0-.18.17v7c0,1.82,1.83,3.3,4.08,3.3s4.08-1.48,4.08-3.3V5.58A.18.18,0,0,0,15.9,5.4Z"/><path class="cls-1" d="M18.11,5.88H18V3.24a.55.55,0,0,0-.55-.55H6.6a.55.55,0,0,0-.55.55V5.88H5.89a3.08,3.08,0,0,0,0,6.15h.23a5.37,5.37,0,0,0,4.38,4.62v1.74h-3a1.46,1.46,0,1,0,0,2.92h9a1.46,1.46,0,1,0,0-2.92H13.55V16.64A5.36,5.36,0,0,0,17.88,12h.23a3.08,3.08,0,0,0,0-6.15ZM3.92,9a2,2,0,0,1,2-2h.16v3.95H5.89A2,2,0,0,1,3.92,9ZM16.85,19.86a.35.35,0,0,1-.36.35h-9a.35.35,0,0,1-.36-.36.36.36,0,0,1,.36-.36h9A.36.36,0,0,1,16.85,19.86ZM11.6,18.39V16.74h.85v1.65Zm1-2.75H11.43a4.28,4.28,0,0,1-4.28-4.28V3.79h9.7v7.57A4.28,4.28,0,0,1,12.57,15.64Zm5.54-4.71H18V7h.16a2,2,0,0,1,0,3.95Z"/><rect class="cls-2" width="24" height="24"/></svg>