<svg id="Capa_1" data-name="Capa 1" xmlns="http://www.w3.org/2000/svg" viewBox="0 0 24 24"><defs><style>.cls-1{fill:#20273f;}.cls-2{fill:none;}</style></defs><path class="cls-1" d="M15.67,8.85a.18.18,0,0,0-.09.24,1.53,1.53,0,0,1,.16.7v4.34a1.62,1.62,0,0,1-1.61,1.62H9.79a1.62,1.62,0,0,1-1.62-1.62V9.79A1.61,1.61,0,0,1,9.79,8.17h4.34a1.47,1.47,0,0,1,.62.13A.17.17,0,0,0,15,8.2.18.18,0,0,0,14.89,8a2,2,0,0,0-.76-.15H9.79a2,2,0,0,0-2,2v4.34a2,2,0,0,0,2,2h4.34a2,2,0,0,0,2-2V9.79a2,2,0,0,0-.19-.86A.18.18,0,0,0,15.67,8.85Z"/><path class="cls-1" d="M20.84,12.55a.55.55,0,1,0,0-1.1H18.05V10.24h2.79a.55.55,0,0,0,.55-.55.55.55,0,0,0-.55-.55H18a3.29,3.29,0,0,0-3.18-3.22V3.16a.55.55,0,0,0-.55-.55.55.55,0,0,0-.55.55V5.91H12.55V3.16a.55.55,0,0,0-1.1,0V5.91H10.24V3.16a.55.55,0,0,0-.55-.55.55.55,0,0,0-.55.55V5.91A3.3,3.3,0,0,0,5.87,9.14H3.16a.55.55,0,0,0-.55.55.55.55,0,0,0,.55.55h2.7v1.21H3.16a.55.55,0,1,0,0,1.1h2.7v1.21H3.16a.55.55,0,0,0-.55.55.55.55,0,0,0,.55.55H5.87a3.3,3.3,0,0,0,3.27,3.23v2.75a.55.55,0,0,0,.55.55.55.55,0,0,0,.55-.55V18.09h1.21v2.75a.55.55,0,1,0,1.1,0V18.09h1.21v2.75a.55.55,0,0,0,.55.55.55.55,0,0,0,.55-.55V18.08A3.29,3.29,0,0,0,18,14.86h2.8a.55.55,0,0,0,.55-.55.55.55,0,0,0-.55-.55H18.05V12.55ZM17,14.79A2.22,2.22,0,0,1,14.74,17H9.17A2.22,2.22,0,0,1,7,14.79V9.21A2.22,2.22,0,0,1,9.17,7h5.57A2.22,2.22,0,0,1,17,9.21Z"/><rect class="cls-2" width="24" height="24"/></svg>