<svg id="Capa_1" data-name="Capa 1" xmlns="http://www.w3.org/2000/svg" viewBox="0 0 24 24"><defs><style>.cls-1{fill:#20273f;}.cls-2{fill:none;}</style></defs><path class="cls-1" d="M12,19.34A7.34,7.34,0,1,1,19.34,12,7.34,7.34,0,0,1,12,19.34ZM12,5.76A6.24,6.24,0,1,0,18.24,12,6.25,6.25,0,0,0,12,5.76Z"/><path class="cls-1" d="M12,17.36a5.36,5.36,0,1,1,2.81-9.93.17.17,0,0,1-.18.3A5,5,0,1,0,17,12a4.93,4.93,0,0,0-.91-2.88.2.2,0,0,1,0-.25.17.17,0,0,1,.25.05,5.29,5.29,0,0,1,1,3.08A5.36,5.36,0,0,1,12,17.36Z"/><rect class="cls-2" width="24" height="24"/></svg>