<svg id="Capa_1" data-name="Capa 1" xmlns="http://www.w3.org/2000/svg" viewBox="0 0 24 24"><defs><style>.cls-1{fill:#20273f;}.cls-2{fill:none;}</style></defs><path class="cls-1" d="M17.78,6.38H6.51v-1A1.37,1.37,0,0,1,7.88,4h9.66a.55.55,0,0,0,.55-.55.55.55,0,0,0-.55-.55H7.88A2.48,2.48,0,0,0,5.41,5.41V6.49a3.86,3.86,0,0,0-3,3.74v7a3.85,3.85,0,0,0,3.85,3.85h11.5a3.85,3.85,0,0,0,3.85-3.85v-7A3.86,3.86,0,0,0,17.78,6.38Zm2.75,10.83A2.75,2.75,0,0,1,17.78,20H6.28a2.75,2.75,0,0,1-2.75-2.75v-7a2.85,2.85,0,0,1,0-.41H15.06a.17.17,0,0,0,.18-.17.18.18,0,0,0-.18-.18H3.65a2.74,2.74,0,0,1,2.63-2h11.5a2.75,2.75,0,0,1,2.63,2H16.23a.18.18,0,0,0-.17.18.17.17,0,0,0,.17.17h4.26a2.85,2.85,0,0,1,0,.41Z"/><path class="cls-1" d="M8,11.23a2.71,2.71,0,1,0,2.71,2.71A2.71,2.71,0,0,0,8,11.23Zm0,4.32a1.62,1.62,0,1,1,1.61-1.61A1.61,1.61,0,0,1,8,15.55Z"/><path class="cls-1" d="M18,12.08H13.4a.55.55,0,0,0-.55.55.55.55,0,0,0,.55.55H18a.55.55,0,0,0,.55-.55A.55.55,0,0,0,18,12.08Z"/><path class="cls-1" d="M18,14.4H13.4a.55.55,0,0,0-.55.55.55.55,0,0,0,.55.55H18a.55.55,0,0,0,.55-.55A.55.55,0,0,0,18,14.4Z"/><rect class="cls-2" width="24" height="24"/></svg>