<svg id="Capa_1" data-name="Capa 1" xmlns="http://www.w3.org/2000/svg" viewBox="0 0 24 24"><defs><style>.cls-1{fill:#20273f;}.cls-2{fill:none;}</style></defs><path class="cls-1" d="M12,4.66A7.34,7.34,0,1,0,19.34,12,7.34,7.34,0,0,0,12,4.66Zm0,13.58A6.24,6.24,0,1,1,18.24,12,6.25,6.25,0,0,1,12,18.24Z"/><path class="cls-1" d="M14.19,9.37l-2.82,3.51L9.89,11.57a.53.53,0,0,0-.77,0,.56.56,0,0,0,0,.78l1.91,1.7a.55.55,0,0,0,.37.14h0a.56.56,0,0,0,.39-.21l3.17-4a.55.55,0,1,0-.85-.69Z"/><path class="cls-1" d="M16.39,8.92a.17.17,0,0,0-.25-.05.2.2,0,0,0,0,.25A4.93,4.93,0,0,1,17,12a5,5,0,1,1-2.38-4.27.17.17,0,0,0,.18-.3,5.36,5.36,0,1,0,1.58,1.49Z"/><rect class="cls-2" width="24" height="24"/></svg>