<svg id="Capa_1" data-name="Capa 1" xmlns="http://www.w3.org/2000/svg" viewBox="0 0 24 24"><defs><style>.cls-1{fill:#20273f;}.cls-2{fill:none;}</style></defs><path class="cls-1" d="M11.92,7.19a4.83,4.83,0,1,0,0,9.65,4.77,4.77,0,0,0,1.87-.38.19.19,0,0,0,.1-.23.17.17,0,0,0-.23-.09,4.46,4.46,0,1,1,2.2-2,.17.17,0,0,0,.3.16,4.82,4.82,0,0,0-4.24-7.11Z"/><path class="cls-1" d="M11.92,9.2a.55.55,0,0,0-.55.55V12a.52.52,0,0,0,0,.21.66.66,0,0,0,.12.17h0l4.21,4.21a.55.55,0,0,0,.78-.78l-4-4.05v-2A.55.55,0,0,0,11.92,9.2Z"/><path class="cls-1" d="M18.71,5.23A9.61,9.61,0,0,0,6.07,4.4V2.93a.55.55,0,0,0-.55-.55A.55.55,0,0,0,5,2.93v2.7a.61.61,0,0,0,.08.27l0,0a.55.55,0,0,0,.18.16s0,0,0,0h0l0,0,2.57.8a.41.41,0,0,0,.16,0,.55.55,0,0,0,.16-1.07L6.61,5.38a8.49,8.49,0,1,1-3,8.26.55.55,0,1,0-1.08.21A9.6,9.6,0,1,0,18.71,5.23Z"/><rect class="cls-2" width="24" height="24"/></svg>