<svg id="Capa_1" data-name="Capa 1" xmlns="http://www.w3.org/2000/svg" viewBox="0 0 24 24"><defs><style>.cls-1{fill:#20273f;}.cls-2{fill:none;}</style></defs><path class="cls-1" d="M16.89,3.7H7.11A4.72,4.72,0,0,0,2.4,8.42v7.16A4.72,4.72,0,0,0,7.11,20.3h9.78a4.72,4.72,0,0,0,4.71-4.72V8.42A4.72,4.72,0,0,0,16.89,3.7ZM7.11,4.8h9.78A3.62,3.62,0,0,1,20.5,8.42v4.94H15.06a.55.55,0,0,0-.54.48,2.54,2.54,0,0,1-5,0,.55.55,0,0,0-.54-.48H3.5V8.42A3.62,3.62,0,0,1,7.11,4.8Zm.34,14.4a4,4,0,0,1-3.95-4v-.78h5a3.63,3.63,0,0,0,7,0h5v.78a4,4,0,0,1-3.95,4Z"/><path class="cls-1" d="M9.6,11.9l1.93,1.94h0a.28.28,0,0,0,.11.08l.06,0a.57.57,0,0,0,.42,0h0a.57.57,0,0,0,.16-.11l2-1.89a.55.55,0,0,0,0-.78.56.56,0,0,0-.78,0l-1,1,.08-5.11A.56.56,0,0,0,12,6.5h0a.55.55,0,0,0-.55.55l-.08,5.1-1-1a.54.54,0,0,0-.78,0A.53.53,0,0,0,9.6,11.9Z"/><path class="cls-1" d="M5.21,7.65H9.74a.18.18,0,0,0,.17-.18.18.18,0,0,0-.17-.17H5.21A.17.17,0,0,0,5,7.47.17.17,0,0,0,5.21,7.65Z"/><path class="cls-1" d="M5.21,9.94H9.74a.18.18,0,0,0,.17-.17.18.18,0,0,0-.17-.18H5.21A.17.17,0,0,0,5,9.77.17.17,0,0,0,5.21,9.94Z"/><path class="cls-1" d="M14.26,7.65h4.53A.17.17,0,0,0,19,7.47a.17.17,0,0,0-.17-.17H14.26a.18.18,0,0,0-.17.17A.18.18,0,0,0,14.26,7.65Z"/><path class="cls-1" d="M14.26,9.94h4.53A.17.17,0,0,0,19,9.77a.17.17,0,0,0-.17-.18H14.26a.18.18,0,0,0-.17.18A.18.18,0,0,0,14.26,9.94Z"/><rect class="cls-2" width="24" height="24"/></svg>