<svg id="Capa_1" data-name="Capa 1" xmlns="http://www.w3.org/2000/svg" viewBox="0 0 24 24"><defs><style>.cls-1{fill:#20273f;}.cls-2{fill:none;}</style></defs><path class="cls-1" d="M14.06,8.54a.57.57,0,0,0,0,.26l0,.06a.61.61,0,0,0,.19.2h0a.58.58,0,0,0,.17.06l2.72.38h.08a.54.54,0,0,0,.54-.47.55.55,0,0,0-.46-.63L16,8.22,20,5.1a.55.55,0,0,0,.1-.77.57.57,0,0,0-.78-.1l-4,3.12.17-1.43a.55.55,0,0,0-1.09-.13l-.32,2.72h0Z"/><path class="cls-1" d="M16,15.78l1.43-.2a.55.55,0,0,0,.46-.63.54.54,0,0,0-.62-.46l-2.72.38a.49.49,0,0,0-.17.06h0a.61.61,0,0,0-.19.2l0,.06a.57.57,0,0,0,0,.26v0h0l.32,2.72a.54.54,0,0,0,.61.48.55.55,0,0,0,.48-.61l-.17-1.43,4,3.12a.53.53,0,0,0,.34.11.56.56,0,0,0,.44-.21.55.55,0,0,0-.1-.77Z"/><path class="cls-1" d="M10,8.51h0L9.63,5.79a.55.55,0,1,0-1.09.13l.17,1.43-4-3.12a.57.57,0,0,0-.78.1A.55.55,0,0,0,4,5.1L8,8.22l-1.43.2a.55.55,0,0,0-.46.63.54.54,0,0,0,.54.47h.08l2.72-.38a.58.58,0,0,0,.17-.06h0a.61.61,0,0,0,.19-.2l0-.06a.57.57,0,0,0,0-.26v0Z"/><path class="cls-1" d="M9.94,15.46a.57.57,0,0,0,0-.26l0-.06a.61.61,0,0,0-.19-.2h0a.49.49,0,0,0-.17-.06l-2.72-.38a.54.54,0,0,0-.62.46.55.55,0,0,0,.46.63l1.43.2L4,18.9a.55.55,0,0,0-.1.77.56.56,0,0,0,.44.21.53.53,0,0,0,.34-.11l4-3.12-.17,1.43a.55.55,0,0,0,.48.61.54.54,0,0,0,.61-.48L10,15.49h0Z"/><rect class="cls-2" width="24" height="24"/></svg>