<svg id="Capa_1" data-name="Capa 1" xmlns="http://www.w3.org/2000/svg" viewBox="0 0 24 24"><defs><style>.cls-1{fill:#20273f;}.cls-2{fill:none;}</style></defs><path class="cls-1" d="M12,7.57a4.38,4.38,0,0,1,2.07.52A.17.17,0,0,0,14.31,8a.17.17,0,0,0-.07-.24A4.71,4.71,0,1,0,16,9.48a.17.17,0,1,0-.3.18A4.35,4.35,0,1,1,12,7.57Z"/><path class="cls-1" d="M3.32,8.45a.63.63,0,0,0,.16.23l0,0a.62.62,0,0,0,.24.08l0,0h.05l2.68-.09a.56.56,0,0,0,.53-.57.57.57,0,0,0-.56-.53l-1.72,0A8.5,8.5,0,0,1,20,9.4a.56.56,0,0,0,.52.37l.18,0a.55.55,0,0,0,.34-.7A9.6,9.6,0,0,0,8.82,3.13,9.48,9.48,0,0,0,4,6.93L3.47,5.54a.55.55,0,0,0-.7-.33.55.55,0,0,0-.34.7l.88,2.53Z"/><path class="cls-1" d="M21.57,18.09l-.88-2.53h0a.55.55,0,0,0-.17-.23l0,0a.63.63,0,0,0-.23-.08l0,0h-.05l-2.68.09a.56.56,0,0,0-.53.57.54.54,0,0,0,.55.53h0l1.72-.05A8.5,8.5,0,0,1,4,14.6.55.55,0,1,0,3,15a9.6,9.6,0,0,0,17.1,2.11l.48,1.39a.55.55,0,0,0,.7.33A.55.55,0,0,0,21.57,18.09Z"/><rect class="cls-2" width="24" height="24"/></svg>