<svg id="Capa_1" data-name="Capa 1" xmlns="http://www.w3.org/2000/svg" viewBox="0 0 24 24"><defs><style>.cls-1{fill:#20273f;}.cls-2{fill:none;}</style></defs><path class="cls-1" d="M20,6H15.59l.11-.18A2.63,2.63,0,0,0,15.43,3a.57.57,0,0,0-.31-.15,3.15,3.15,0,0,0-2.85.75,2,2,0,0,0-.22.29,2,2,0,0,0-.28-.37A3.17,3.17,0,0,0,8.92,2.8.6.6,0,0,0,8.61,3a2.63,2.63,0,0,0-.27,2.83A1.64,1.64,0,0,0,8.51,6H4a.55.55,0,0,0-.55.55v4.18a.55.55,0,0,0,.55.55H4.5v7.09a2.84,2.84,0,0,0,2.83,2.84h9a2.84,2.84,0,0,0,2.84-2.84V11.32H20a.55.55,0,0,0,.55-.55V6.59A.55.55,0,0,0,20,6ZM13.07,4.39A2,2,0,0,1,14.75,4a1.64,1.64,0,0,1,0,1.39c-.36.68-1.29.73-2.14.6A2.19,2.19,0,0,1,13.07,4.39ZM9.29,3.87A2,2,0,0,1,11,4.31a2.19,2.19,0,0,1,.48,1.55c-.84.13-1.77.09-2.14-.6A1.68,1.68,0,0,1,9.29,3.87ZM4.53,7.14h6.92v3.08H4.53Zm6.92,4.3V12.7H5.6V11.44Zm-5.85,7V13.05h5.85v7.1H7.33A1.74,1.74,0,0,1,5.6,18.41Zm10.74,1.74H12.55v-7.1h1.71a.17.17,0,0,0,.18-.17.18.18,0,0,0-.18-.18H12.55V11.44h5.53V12.7H16.53a.18.18,0,0,0-.18.18.17.17,0,0,0,.18.17h1.55v5.36A1.74,1.74,0,0,1,16.34,20.15Zm3.13-9.93H12.55V7.14h6.92Z"/><rect class="cls-2" width="24" height="24"/></svg>