<svg id="Capa_1" data-name="Capa 1" xmlns="http://www.w3.org/2000/svg" viewBox="0 0 24 24"><defs><style>.cls-1{fill:#20273f;}.cls-2{fill:none;}</style></defs><path class="cls-1" d="M19.9,15.43a.55.55,0,0,0-.55.55A3.39,3.39,0,0,1,16,19.37H8A3.39,3.39,0,0,1,4.65,16V8A3.39,3.39,0,0,1,8,4.63H16A3.39,3.39,0,0,1,19.35,8a.55.55,0,0,0,.55.55A.55.55,0,0,0,20.45,8,4.49,4.49,0,0,0,16,3.53H8A4.49,4.49,0,0,0,3.55,8v8A4.49,4.49,0,0,0,8,20.47H16A4.49,4.49,0,0,0,20.45,16,.55.55,0,0,0,19.9,15.43Z"/><path class="cls-1" d="M8.62,6h6.76A2.62,2.62,0,0,1,18,8.61a.17.17,0,0,0,.18.17.17.17,0,0,0,.17-.17,3,3,0,0,0-3-3H8.62a3,3,0,0,0-3,3v6.78a3,3,0,0,0,3,3h6.76a3,3,0,0,0,3-3,.17.17,0,0,0-.17-.17.17.17,0,0,0-.18.17A2.62,2.62,0,0,1,15.38,18H8.62A2.62,2.62,0,0,1,6,15.39V8.61A2.62,2.62,0,0,1,8.62,6Z"/><path class="cls-1" d="M18.83,12a.51.51,0,0,0,0-.17s0-.05,0-.08l0-.05h0L16.37,8.51a.55.55,0,0,0-.77-.11.54.54,0,0,0-.11.77l1.69,2.28H10.39a.55.55,0,0,0,0,1.1H17.2l-1.71,2.31a.54.54,0,0,0,.11.77.51.51,0,0,0,.33.11.56.56,0,0,0,.44-.22l2.32-3.14a.55.55,0,0,0,.14-.32S18.83,12,18.83,12Z"/><rect class="cls-2" width="24" height="24"/></svg>