<svg id="Capa_1" data-name="Capa 1" xmlns="http://www.w3.org/2000/svg" viewBox="0 0 24 24"><defs><style>.cls-1{fill:#20273f;}.cls-2{fill:none;}</style></defs><path class="cls-1" d="M7.65,20A3.68,3.68,0,0,1,4,16.28V14.11a.55.55,0,0,0-.55-.55.54.54,0,0,0-.55.55v2.17a4.78,4.78,0,0,0,4.78,4.78.55.55,0,0,0,.55-.55A.55.55,0,0,0,7.65,20Z"/><path class="cls-1" d="M16.21,4a3.68,3.68,0,0,1,3.68,3.68.54.54,0,0,0,.55.55A.55.55,0,0,0,21,7.72a4.79,4.79,0,0,0-4.78-4.78.54.54,0,0,0-.55.55A.55.55,0,0,0,16.21,4Z"/><path class="cls-1" d="M3.42,8.27A.55.55,0,0,0,4,7.72,3.68,3.68,0,0,1,7.65,4a.55.55,0,0,0,.55-.55.55.55,0,0,0-.55-.55A4.78,4.78,0,0,0,2.87,7.72.54.54,0,0,0,3.42,8.27Z"/><path class="cls-1" d="M22.54,10.55H1.46a.55.55,0,0,0,0,1.1H22.54a.55.55,0,0,0,0-1.1Z"/><path class="cls-1" d="M14,12.71H5.13a.18.18,0,0,0-.17.17.18.18,0,0,0,.17.18H14a.18.18,0,0,0,.18-.17A.18.18,0,0,0,14,12.71Z"/><path class="cls-1" d="M18.71,13.06h0a.18.18,0,0,0,.18-.17.18.18,0,0,0-.18-.18H15.9a.18.18,0,0,0-.17.17.18.18,0,0,0,.17.18Z"/><path class="cls-1" d="M20.44,13.56a.54.54,0,0,0-.55.55v2.17A3.68,3.68,0,0,1,16.21,20a.55.55,0,0,0-.55.55.54.54,0,0,0,.55.55A4.79,4.79,0,0,0,21,16.28V14.11A.55.55,0,0,0,20.44,13.56Z"/><rect class="cls-2" width="24" height="24"/></svg>