<svg id="Capa_1" data-name="Capa 1" xmlns="http://www.w3.org/2000/svg" viewBox="0 0 24 24"><defs><style>.cls-1{fill:#20273f;}.cls-2{fill:none;}</style></defs><path class="cls-1" d="M19.45,4.13l-7.3-2a.51.51,0,0,0-.3,0L4.55,4.13A2.11,2.11,0,0,0,3.09,6.19V9A13.24,13.24,0,0,0,9.56,20.66l2.17,1.21a.54.54,0,0,0,.27.07.52.52,0,0,0,.27-.07l2.17-1.21A13.24,13.24,0,0,0,20.91,9V6.19A2.11,2.11,0,0,0,19.45,4.13ZM19.81,9a12.17,12.17,0,0,1-5.9,10.75L12,20.76,10.09,19.7A12.17,12.17,0,0,1,4.19,9V6.19a1,1,0,0,1,.65-1l7.16-2,7.16,2h0a1,1,0,0,1,.65,1Z"/><path class="cls-1" d="M18.69,7.18a.18.18,0,0,0-.18.17V9.56a10,10,0,0,1-4.86,8.82L12,19.31l-1.65-.93A10,10,0,0,1,5.49,9.56V7.35a1.06,1.06,0,0,1,.72-1L12,4.68,17.79,6.3a.17.17,0,1,0,.1-.33L12.05,4.33a.09.09,0,0,0-.1,0L6.11,6a1.41,1.41,0,0,0-1,1.38V9.56a10.34,10.34,0,0,0,5,9.13l1.73,1,.09,0,.09,0,1.73-1a10.34,10.34,0,0,0,5-9.13V7.35A.18.18,0,0,0,18.69,7.18Z"/><path class="cls-1" d="M15.39,8.41l-3.78,4L10,11a.54.54,0,0,0-.78,0,.55.55,0,0,0,0,.78l2,1.77a.59.59,0,0,0,.37.14.58.58,0,0,0,.4-.17l4.15-4.37a.55.55,0,0,0-.8-.76Z"/><rect class="cls-2" width="24" height="24"/></svg>