<svg id="Capa_1" data-name="Capa 1" xmlns="http://www.w3.org/2000/svg" viewBox="0 0 24 24"><defs><style>.cls-1{fill:#20273f;}.cls-2{fill:none;}</style></defs><path class="cls-1" d="M9.6,10A2.4,2.4,0,1,0,12,7.63,2.41,2.41,0,0,0,9.6,10Zm3.7,0A1.3,1.3,0,1,1,12,8.73,1.3,1.3,0,0,1,13.3,10Z"/><path class="cls-1" d="M12,2.69A7.34,7.34,0,0,0,4.66,10c0,5.74,6.09,10.65,6.34,10.84a2,2,0,0,0,.27.22,1.26,1.26,0,0,0,.73.23,1.19,1.19,0,0,0,.7-.22,2.6,2.6,0,0,0,.3-.22c.25-.2,6.34-5.11,6.34-10.85A7.34,7.34,0,0,0,12,2.69ZM12.29,20a1.73,1.73,0,0,1-.21.17.15.15,0,0,1-.17,0c-.08-.05-.14-.11-.22-.17S5.76,15.23,5.76,10a6.24,6.24,0,0,1,12.48,0C18.24,15.23,12.37,20,12.29,20Z"/><path class="cls-1" d="M16.74,7.62a.17.17,0,0,0-.23-.08.18.18,0,0,0-.08.24A4.91,4.91,0,0,1,17,10.07c0,4.08-4.56,7.75-4.61,7.79a1.24,1.24,0,0,1-.18.14.35.35,0,0,1-.41,0l-.18-.14S7,14.15,7,10.07a5,5,0,0,1,7.78-4.13A.18.18,0,0,0,15,5.89a.18.18,0,0,0,0-.25,5.35,5.35,0,0,0-8.33,4.43c0,4.25,4.54,7.91,4.73,8.06l.19.15a.73.73,0,0,0,.42.14.66.66,0,0,0,.4-.13l.21-.16c.19-.15,4.73-3.81,4.73-8.06A5.34,5.34,0,0,0,16.74,7.62Z"/><rect class="cls-2" width="24" height="24"/></svg>