<svg id="Capa_1" data-name="Capa 1" xmlns="http://www.w3.org/2000/svg" viewBox="0 0 24 24"><defs><style>.cls-1{fill:#20273f;}.cls-2{fill:none;}</style></defs><path class="cls-1" d="M13.2,11.46a.18.18,0,0,0-.11.22,1.31,1.31,0,0,1,0,.59,1.15,1.15,0,1,1-2.26-.44,1.15,1.15,0,0,1,1.35-.91,1.28,1.28,0,0,1,.42.17.16.16,0,0,0,.24,0,.17.17,0,0,0-.05-.25,1.51,1.51,0,0,0-2.3,1,1.46,1.46,0,0,0,.23,1.13,1.49,1.49,0,0,0,1,.63l.29,0a1.5,1.5,0,0,0,1.42-2A.18.18,0,0,0,13.2,11.46Z"/><path class="cls-1" d="M12,8.28A3.75,3.75,0,1,0,15.75,12,3.75,3.75,0,0,0,12,8.28Zm0,6.4A2.65,2.65,0,1,1,14.65,12,2.65,2.65,0,0,1,12,14.68Z"/><path class="cls-1" d="M21.11,11.83a9.61,9.61,0,0,0-18.22,0,.65.65,0,0,0,0,.34,9.61,9.61,0,0,0,18.22,0A.65.65,0,0,0,21.11,11.83ZM12,17.63A8.48,8.48,0,0,1,4,12a8.5,8.5,0,0,1,16,0A8.48,8.48,0,0,1,12,17.63Z"/><rect class="cls-2" width="24" height="24"/></svg>