<svg id="Capa_1" data-name="Capa 1" xmlns="http://www.w3.org/2000/svg" viewBox="0 0 24 24"><defs><style>.cls-1{fill:#20273f;}.cls-2{fill:none;}</style></defs><path class="cls-1" d="M21.48,7.94a3.63,3.63,0,0,0-3.31-3.18,121.13,121.13,0,0,0-12.35,0A3.63,3.63,0,0,0,2.52,8a49.91,49.91,0,0,0,0,8.11,3.63,3.63,0,0,0,3.31,3.18c2.05.1,4.11.16,6.17.16s4.12-.06,6.17-.16h0a3.63,3.63,0,0,0,3.3-3.19A49.91,49.91,0,0,0,21.48,7.94Zm-1.1,8a2.55,2.55,0,0,1-2.27,2.18,118.59,118.59,0,0,1-12.22,0A2.55,2.55,0,0,1,3.62,16,47.6,47.6,0,0,1,3.62,8,2.55,2.55,0,0,1,5.89,5.86q3-.17,6.11-.16t6.11.16A2.55,2.55,0,0,1,20.38,8,47.6,47.6,0,0,1,20.38,16Z"/><path class="cls-1" d="M19.6,8a.19.19,0,0,0-.23-.1.17.17,0,0,0-.09.23,2.37,2.37,0,0,1,.14.57,40.52,40.52,0,0,1,0,6.61,2.42,2.42,0,0,1-2.21,2.07c-3.46.17-7,.17-10.42,0a2.43,2.43,0,0,1-2.21-2.06,40.52,40.52,0,0,1,0-6.61A2.42,2.42,0,0,1,6.79,6.63c3.46-.17,7-.17,10.42,0a2.42,2.42,0,0,1,.79.2.17.17,0,1,0,.15-.31,2.36,2.36,0,0,0-.92-.23,101.37,101.37,0,0,0-10.46,0A2.78,2.78,0,0,0,4.23,8.67a41.26,41.26,0,0,0,0,6.67,2.78,2.78,0,0,0,2.54,2.37c1.73.09,3.48.14,5.23.14s3.5-.05,5.23-.14a2.78,2.78,0,0,0,2.54-2.38,41.26,41.26,0,0,0,0-6.67A2.36,2.36,0,0,0,19.6,8Z"/><path class="cls-1" d="M15.46,13.85c.06-.14.12-.29.17-.43a.1.1,0,0,1,.12-.09H17c0,.18.07.34.1.5s0,.09.11.09h.9c0-.12,0-.22-.06-.32-.26-1.24-.51-2.47-.76-3.7,0-.08-.05-.1-.12-.1h-.93a.15.15,0,0,0-.17.11c-.52,1.18-1,2.37-1.55,3.56-.07.14-.13.29-.2.45h1S15.45,13.88,15.46,13.85ZM16.54,11h0l.3,1.51H16Z"/><path class="cls-1" d="M13,13.09a1.57,1.57,0,0,1-.52.08,2.37,2.37,0,0,1-1-.23c-.05.27-.1.52-.16.77,0,.09,0,.12.08.15a2.76,2.76,0,0,0,1.06.19,2.08,2.08,0,0,0,1.69-.85A1,1,0,0,0,14,11.83l-.06,0a4.66,4.66,0,0,0-.47-.3,5.26,5.26,0,0,1-.47-.27.29.29,0,0,1-.13-.41.25.25,0,0,1,.18-.15,1,1,0,0,1,.67-.07,5.29,5.29,0,0,1,.6.21s0,0,0,0c.05-.27.11-.54.16-.81a.1.1,0,0,0-.06-.08A4.84,4.84,0,0,0,14,9.76a2.37,2.37,0,0,0-1.59.23,1.17,1.17,0,0,0-.45,1.6,1.07,1.07,0,0,0,.38.41c.15.1.32.18.47.27a1.76,1.76,0,0,1,.37.23.33.33,0,0,1,.09.46A.26.26,0,0,1,13,13.09Z"/><path class="cls-1" d="M7,13.92H8a.11.11,0,0,0,.13-.09c.53-1.3,1-2.61,1.58-3.91l0-.12H8.7a.12.12,0,0,0-.14.1c-.3.9-.61,1.81-.92,2.71a.3.3,0,0,1,0,.08h0A2.35,2.35,0,0,0,7,11.5a3.19,3.19,0,0,0-1-.91v.05c.28,1.07.56,2.14.85,3.21C6.89,13.92,6.93,13.92,7,13.92Z"/><path class="cls-1" d="M11.31,9.8H10.25c-.07,0-.06,0-.06.09l-.57,3.56c0,.15,0,.3-.07.46h1.1Z"/><path class="cls-1" d="M7.43,11.93a.07.07,0,0,0,0,0l-.3-1.52a.63.63,0,0,0-.66-.55H4.88l.17.08A5.16,5.16,0,0,1,6.77,11,3.17,3.17,0,0,1,7.43,11.93Z"/><rect class="cls-2" width="24" height="24"/></svg>