<svg id="Capa_1" data-name="Capa 1" xmlns="http://www.w3.org/2000/svg" viewBox="0 0 24 24"><defs><style>.cls-1{fill:#20273f;}.cls-2{fill:none;}</style></defs><path class="cls-1" d="M14,3.53C12.45,3.1,10.83,4.89,8.94,7l-.65.72H4.61a2.2,2.2,0,0,0-2.2,2.2V14a2.2,2.2,0,0,0,2.2,2.21H8.16l.86.94c1.62,1.82,3.06,3.43,4.42,3.43a1.72,1.72,0,0,0,.66-.13c2.39-1,3.37-5.8,3.11-10C17,6.56,15.78,4,14,3.53Zm-.36,15.86c-.84.35-2.44-1.43-3.84-3l-1-1.14a.57.57,0,0,0-.41-.17H4.61A1.11,1.11,0,0,1,3.5,14V9.89a1.11,1.11,0,0,1,1.11-1.1H8.53a.55.55,0,0,0,.4-.18l.83-.9c1.43-1.58,3.05-3.38,4-3.12,1.23.34,2.16,2.63,2.36,5.84C16.37,14.71,15.29,18.73,13.68,19.39Z"/><path class="cls-1" d="M21.08,7.26A.55.55,0,1,0,20,7.54a18.7,18.7,0,0,1-.13,8.92.54.54,0,0,0,.38.68.4.4,0,0,0,.15,0,.56.56,0,0,0,.53-.4A20,20,0,0,0,21.08,7.26Z"/><path class="cls-1" d="M18.72,9.15a.54.54,0,0,0-.49.6,20.24,20.24,0,0,1-.06,4.4.55.55,0,0,0,.48.61h.07a.57.57,0,0,0,.55-.48,21.92,21.92,0,0,0,.05-4.65A.55.55,0,0,0,18.72,9.15Z"/><path class="cls-1" d="M7.86,9.64a.18.18,0,0,0-.18.18v4.27a.18.18,0,0,0,.18.18A.17.17,0,0,0,8,14.09V9.82A.17.17,0,0,0,7.86,9.64Z"/><path class="cls-1" d="M6.37,12.4a.18.18,0,0,0-.17.18v1.51a.18.18,0,0,0,.17.18.18.18,0,0,0,.18-.18V12.58A.18.18,0,0,0,6.37,12.4Z"/><path class="cls-1" d="M6.37,9.64a.18.18,0,0,0-.17.18v1.51a.18.18,0,0,0,.17.18.18.18,0,0,0,.18-.18V9.82A.18.18,0,0,0,6.37,9.64Z"/><path class="cls-1" d="M4.76,9.64a.18.18,0,0,0-.17.18v4.27a.18.18,0,0,0,.17.18.18.18,0,0,0,.18-.18V9.82A.18.18,0,0,0,4.76,9.64Z"/><rect class="cls-2" width="24" height="24"/></svg>