<svg id="Capa_1" data-name="Capa 1" xmlns="http://www.w3.org/2000/svg" viewBox="0 0 24 24"><defs><style>.cls-1{fill:#20273f;}.cls-2{fill:none;}</style></defs><path class="cls-1" d="M20.75,4.56a.54.54,0,0,0-.77,0L17.37,7.09c-.55-2-1.45-3.24-2.65-3.56C13,3,11,5.27,9,7.69H5.29a2.21,2.21,0,0,0-2.2,2.2V14a2.21,2.21,0,0,0,2.2,2.21H8.1l-2.66,2.6a.56.56,0,0,0,.38.95.54.54,0,0,0,.39-.16L20.75,5.33A.54.54,0,0,0,20.75,4.56ZM9.09,15.07H5.29A1.11,1.11,0,0,1,4.19,14V9.89a1.1,1.1,0,0,1,1.1-1.1H9.21a.52.52,0,0,0,.42-.2c1.64-1.92,3.67-4.31,4.8-4,.88.24,1.61,1.48,2,3.4L9.2,15.09Z"/><path class="cls-1" d="M17.38,10.88h0a.56.56,0,0,0-.54.56c.05,3.93-1,7.35-2.47,8-.28.12-1.14.16-3.08-2a.55.55,0,0,0-.78,0,.54.54,0,0,0,0,.77c1.45,1.59,2.65,2.37,3.64,2.37a1.75,1.75,0,0,0,.68-.13c2.23-.93,3.18-5.18,3.14-9A.55.55,0,0,0,17.38,10.88Z"/><path class="cls-1" d="M8.62,9.64a.18.18,0,0,0-.17.18v4.27a.18.18,0,0,0,.17.18.18.18,0,0,0,.18-.18V9.82A.18.18,0,0,0,8.62,9.64Z"/><path class="cls-1" d="M7.14,12.4a.18.18,0,0,0-.18.18v1.51a.18.18,0,0,0,.18.18.18.18,0,0,0,.17-.18V12.58A.18.18,0,0,0,7.14,12.4Z"/><path class="cls-1" d="M7.14,9.64A.18.18,0,0,0,7,9.82v1.51a.18.18,0,0,0,.18.18.18.18,0,0,0,.17-.18V9.82A.18.18,0,0,0,7.14,9.64Z"/><path class="cls-1" d="M5.53,9.64a.18.18,0,0,0-.18.18v4.27a.18.18,0,0,0,.18.18.18.18,0,0,0,.17-.18V9.82A.18.18,0,0,0,5.53,9.64Z"/><rect class="cls-2" width="24" height="24"/></svg>