<svg id="Capa_1" data-name="Capa 1" xmlns="http://www.w3.org/2000/svg" viewBox="0 0 24 24"><defs><style>.cls-1{fill:#20273f;}.cls-2{fill:none;}</style></defs><path class="cls-1" d="M12,16.84a.86.86,0,0,0-.85.86.85.85,0,1,0,1.7,0A.86.86,0,0,0,12,16.84Z"/><path class="cls-1" d="M12,10.68a6.58,6.58,0,0,0-5.69,3,.55.55,0,1,0,.94.56A5.49,5.49,0,0,1,12,11.78a5.49,5.49,0,0,1,4.75,2.46.53.53,0,0,0,.47.27.6.6,0,0,0,.28-.08.54.54,0,0,0,.19-.75A6.58,6.58,0,0,0,12,10.68Z"/><path class="cls-1" d="M12,8.65a8.83,8.83,0,0,1,3,.52.19.19,0,0,0,.23-.11.18.18,0,0,0-.11-.22A9,9,0,0,0,12,8.3a8.19,8.19,0,0,0-7,3.64.18.18,0,0,0,0,.24.17.17,0,0,0,.1,0,.16.16,0,0,0,.14-.09A7.84,7.84,0,0,1,12,8.65Z"/><path class="cls-1" d="M16.79,9.67a.18.18,0,0,0-.25.05.17.17,0,0,0,.06.24,7,7,0,0,1,2.15,2.16.16.16,0,0,0,.14.09.17.17,0,0,0,.1,0,.18.18,0,0,0,.05-.24A7.27,7.27,0,0,0,16.79,9.67Z"/><path class="cls-1" d="M12,13.89a3.38,3.38,0,0,0-2.92,1.55A.55.55,0,1,0,10,16a2.29,2.29,0,0,1,2-1,2.29,2.29,0,0,1,2,1,.56.56,0,0,0,.47.27.6.6,0,0,0,.29-.08.55.55,0,0,0,.18-.76A3.38,3.38,0,0,0,12,13.89Z"/><path class="cls-1" d="M20.8,9.53A10.19,10.19,0,0,0,12,4.9,10.19,10.19,0,0,0,3.2,9.53a.55.55,0,1,0,.94.57A9.07,9.07,0,0,1,12,6a9.07,9.07,0,0,1,7.86,4.1.54.54,0,0,0,.47.26.58.58,0,0,0,.28-.07A.55.55,0,0,0,20.8,9.53Z"/><rect class="cls-2" width="24" height="24"/></svg>